SplineFontDB: 3.2
FontName: SeriousShanns
FullName: Serious Shanns
FamilyName: Serious Shanns
Weight: Book
Copyright: https://github.com/kaBeech/serious-shanns/blob/main/LICENSE
Version: 6.0.0
ItalicAngle: 0
UnderlinePosition: 0
UnderlineWidth: 0
Ascent: 800
Descent: 200
InvalidEm: 0
sfntRevision: 0x00003333
LayerCount: 2
Layer: 0 0 "Back" 1
Layer: 1 0 "Fore" 0
XUID: [1021 45 630387186 12505762]
StyleMap: 0x0040
FSType: 0
OS2Version: 3
OS2_WeightWidthSlopeOnly: 0
OS2_UseTypoMetrics: 0
CreationTime: 1532631502
ModificationTime: 315532800
PfmFamily: 49
TTFWeight: 400
TTFWidth: 5
LineGap: 0
VLineGap: 0
Panose: 0 0 0 0 0 0 0 0 0 0
OS2TypoAscent: 613
OS2TypoAOffset: 0
OS2TypoDescent: -188
OS2TypoDOffset: 0
OS2TypoLinegap: 98
OS2WinAscent: 778
OS2WinAOffset: 0
OS2WinDescent: 308
OS2WinDOffset: 0
HheadAscent: 796
HheadAOffset: 0
HheadDescent: -317
HheadDOffset: 0
OS2SubXSize: 317
OS2SubYSize: 293
OS2SubXOff: 0
OS2SubYOff: 37
OS2SupXSize: 317
OS2SupYSize: 293
OS2SupXOff: 0
OS2SupYOff: 171
OS2StrikeYSize: 0
OS2StrikeYPos: 132
OS2CapHeight: 576
OS2XHeight: 485
OS2Vendor: 'NONE'
OS2CodePages: 00000001.00000000
OS2UnicodeRanges: 00000001.00000000.00000000.00000000
MarkAttachClasses: 1
DEI: 91125
LangName: 1033 "" "" "Normal" "FontForge 2.0 : Serious Shanns : 11-6-2024" "" "Version 0.2.0"
Encoding: UnicodeBmp
Compacted: 1
UnicodeInterp: none
NameList: AGL For New Fonts
DisplaySize: -48
AntiAlias: 1
FitToEm: 0
WinInfo: 0 16 11
BeginPrivate: 8
BlueValues 32 [-40 -6 502 523 708 718 765 769]
OtherBlues 11 [-297 -287]
BlueScale 9 0.0291667
BlueShift 1 2
StdHW 4 [85]
StdVW 4 [96]
StemSnapH 7 [65 85]
StemSnapV 4 [96]
EndPrivate
BeginChars: 65537 99

StartChar: .notdef
Encoding: 65536 -1 0
Width: 550
VWidth: 886
GlyphClass: 1
Flags: W
HStem: -191.725 45.8994<161.15 434> 626.825 45.8994<161.15 434>
VStem: 116.1 45.0508<-145.825 626.825> 434 45.9004<-145.825 626.825>
LayerCount: 2
Fore
SplineSet
116.099609375 -191.724609375 m 1
 116.099609375 672.724609375 l 1
 479.900390625 672.724609375 l 1
 479.900390625 -191.724609375 l 1
 116.099609375 -191.724609375 l 1
161.150390625 -145.825195312 m 1
 434 -145.825195312 l 1
 434 626.825195312 l 1
 161.150390625 626.825195312 l 1
 161.150390625 -145.825195312 l 1
EndSplineSet
Validated: 524289
EndChar

StartChar: exclam
Encoding: 33 33 1
Width: 550
VWidth: 907
GlyphClass: 2
Flags: HMW
HStem: 36.5258 130.571
VStem: 228.297 139.401 263.147 78.5278
LayerCount: 2
Fore
SplineSet
348.149414062 684.712890625 m 0xa0
 348.149414062 679.612304688 346.873046875 642.35546875 344.323242188 572.938476562 c 0
 342.557617188 524.879882812 341.674804688 483.000976562 341.674804688 447.30078125 c 0
 341.674804688 431.434570312 341.849609375 416.7890625 342.198242188 403.36328125 c 0
 342.763671875 382.11328125 343.046875 365.149414062 343.046875 352.469726562 c 0
 343.046875 339.790039062 342.763671875 331.396484375 342.197265625 327.287109375 c 0
 341.44140625 321.810546875 341.064453125 314.131835938 341.064453125 304.25 c 0
 341.064453125 299.305664062 341.159179688 293.809570312 341.34765625 287.762695312 c 0
 340.21484375 275.295898438 335.3984375 265.520507812 326.8984375 258.4375 c 0
 319.028320312 251.87890625 309.700195312 248.600585938 298.916015625 248.600585938 c 0
 298.052734375 248.600585938 297.180664062 248.62109375 296.298828125 248.663085938 c 0
 284.965820312 248.663085938 275.616210938 252.346679688 268.249023438 259.713867188 c 0
 261.864257812 266.098632812 258.670898438 275.037109375 258.670898438 286.530273438 c 0
 258.670898438 288.297851562 258.747070312 290.125976562 258.8984375 292.014648438 c 0
 259.46484375 300.514648438 260.314453125 308.731445312 261.448242188 316.6640625 c 0
 262.581054688 324.59765625 263.2890625 331.254882812 263.572265625 336.638671875 c 0
 263.85546875 342.021484375 264.280273438 354.771484375 264.846679688 374.888671875 c 0
 264.989257812 379.91796875 265.059570312 385.310546875 265.059570312 391.06640625 c 0
 265.059570312 408.33203125 264.421875 428.864257812 263.147460938 452.663085938 c 0
 262.580078125 474.763671875 262.155273438 498.138671875 261.872070312 522.788085938 c 0
 261.77734375 530.997070312 261.73046875 538.75 261.73046875 546.046875 c 0
 261.73046875 560.663085938 261.919921875 573.452148438 262.297851562 584.412109375 c 0
 262.865234375 600.845703125 263.431640625 619.545898438 263.999023438 640.512695312 c 0
 264.565429688 661.479492188 264.848632812 675.362304688 264.848632812 682.162109375 c 0
 265.416015625 697.462890625 269.807617188 709.079101562 278.024414062 717.012695312 c 0
 286.241210938 724.9453125 296.299804688 728.912109375 308.19921875 728.912109375 c 0
 309.049804688 728.953125 309.887695312 728.973632812 310.715820312 728.973632812 c 0
 321.463867188 728.973632812 330.258789062 725.553710938 337.099609375 718.712890625 c 0
 344.466796875 711.345703125 348.149414062 700.012695312 348.149414062 684.712890625 c 0xa0
299.698242188 37.013671875 m 0
 296.701171875 36.689453125 293.783203125 36.52734375 290.942382812 36.52734375 c 0
 273.909179688 36.52734375 259.685546875 42.3544921875 248.272460938 54.009765625 c 0
 234.955078125 67.6103515625 228.296875 84.04296875 228.296875 103.310546875 c 0
 228.296875 120.310546875 235.805664062 135.04296875 250.822265625 147.509765625 c 0
 265.838867188 159.9765625 282.130859375 166.494140625 299.698242188 167.060546875 c 0
 300.579101562 167.0859375 301.454101562 167.098632812 302.322265625 167.098632812 c 0
 320.97265625 167.098632812 336.389648438 161.27734375 348.573242188 149.63671875 c 0
 361.323242188 137.454101562 367.698242188 122.295898438 367.698242188 104.162109375 c 0xc0
 367.698242188 86.029296875 361.46484375 70.87109375 348.998046875 58.6884765625 c 0
 336.53125 46.5048828125 320.09765625 39.2802734375 299.698242188 37.013671875 c 0
EndSplineSet
Validated: 524289
EndChar

StartChar: quotedbl
Encoding: 34 34 2
Width: 550
VWidth: 941
GlyphClass: 2
Flags: HMW
VStem: 187.998 86.2121 322.258 87.9537
LayerCount: 2
Fore
SplineSet
275.063476562 718.748046875 m 0
 275.251953125 711.01953125 275.345703125 701.646484375 275.345703125 690.626953125 c 0
 275.345703125 668.516601562 274.965820312 639.78125 274.209960938 604.420898438 c 0
 273.077148438 551.438476562 271.09375 515.030273438 268.260742188 495.197265625 c 0
 266.560546875 483.864257812 261.744140625 475.364257812 253.810546875 469.697265625 c 0
 246.598632812 464.545898438 238.684570312 461.969726562 230.068359375 461.969726562 c 0
 229.20703125 461.969726562 228.337890625 461.99609375 227.461914062 462.046875 c 0
 216.12890625 462.614257812 206.071289062 466.15625 197.288085938 472.672851562 c 0
 189.508789062 478.4453125 185.619140625 486.328125 185.619140625 496.323242188 c 0
 185.619140625 499.913085938 187.999023438 526.419921875 187.999023438 592.73046875 c 0
 187.999023438 598.869140625 187.978515625 605.173828125 187.938476562 611.647460938 c 0
 187.655273438 656.98046875 186.663085938 694.379882812 184.962890625 723.846679688 c 0
 184.396484375 730.647460938 185.670898438 736.455078125 188.788085938 741.272460938 c 0
 191.905273438 746.088867188 196.012695312 749.630859375 201.11328125 751.897460938 c 0
 206.212890625 754.165039062 211.455078125 755.72265625 216.837890625 756.573242188 c 0
 222.220703125 757.422851562 227.462890625 757.564453125 232.563476562 756.998046875 c 0
 237.663085938 756.998046875 242.48046875 756.430664062 247.012695312 755.297851562 c 0
 251.545898438 754.165039062 255.938476562 752.323242188 260.188476562 749.772460938 c 0
 264.438476562 747.22265625 267.98046875 743.255859375 270.813476562 737.873046875 c 0
 273.646484375 732.490234375 275.063476562 726.115234375 275.063476562 718.748046875 c 0
411.059570312 718.745117188 m 0
 411.249023438 710.9921875 411.342773438 701.583007812 411.342773438 690.516601562 c 0
 411.342773438 668.419921875 410.965820312 639.720703125 410.211914062 604.418945312 c 0
 409.078125 551.435546875 407.377929688 515.02734375 405.111328125 495.194335938 c 0
 403.411132812 483.861328125 398.453125 475.361328125 390.236328125 469.694335938 c 0
 382.766601562 464.54296875 374.9453125 461.967773438 366.7734375 461.967773438 c 0
 365.956054688 461.967773438 365.134765625 461.993164062 364.310546875 462.044921875 c 0
 352.977539062 462.611328125 342.77734375 466.153320312 333.7109375 472.670898438 c 0
 326.075195312 478.158203125 322.2578125 485.553710938 322.2578125 494.859375 c 0
 322.2578125 496.604492188 322.392578125 498.416015625 322.66015625 500.295898438 c 0
 323.935546875 521.969726562 324.573242188 548.265625 324.573242188 579.182617188 c 0
 324.573242188 589.490234375 324.502929688 600.310546875 324.360351562 611.64453125 c 0
 323.793945312 656.977539062 322.66015625 694.377929688 320.9609375 723.844726562 c 0
 320.9609375 730.64453125 322.518554688 736.453125 325.635742188 741.26953125 c 0
 328.752929688 746.086914062 332.860351562 749.62890625 337.9609375 751.895507812 c 0
 343.060546875 754.162109375 348.16015625 755.720703125 353.260742188 756.5703125 c 0
 358.360351562 757.420898438 363.4609375 757.5625 368.560546875 756.995117188 c 0
 373.66015625 756.995117188 378.477539062 756.428710938 383.010742188 755.295898438 c 0
 387.543945312 754.162109375 392.077148438 752.3203125 396.609375 749.770507812 c 0
 401.142578125 747.220703125 404.684570312 743.25390625 407.234375 737.870117188 c 0
 409.78515625 732.487304688 411.059570312 726.112304688 411.059570312 718.745117188 c 0
EndSplineSet
Validated: 524289
EndChar

StartChar: numbersign
Encoding: 35 35 3
Width: 550
VWidth: 904
GlyphClass: 2
Flags: HMW
HStem: 217.396 69.7 432.446 71.4 647.213 17G
LayerCount: 2
Fore
SplineSet
201.09375 89.8955078125 m 0
 197.126953125 77.99609375 188.909179688 68.2197265625 176.442382812 60.5693359375 c 0
 167.810546875 55.2734375 159.587890625 52.6259765625 151.771484375 52.6259765625 c 0
 148.297851562 52.6259765625 144.904296875 53.1484375 141.591796875 54.1943359375 c 0
 130.82421875 56.4619140625 122.891601562 63.6865234375 117.791015625 75.8701171875 c 0
 115.090820312 82.3193359375 113.741210938 89.126953125 113.741210938 96.291015625 c 0
 113.741210938 102.66015625 114.807617188 109.310546875 116.94140625 116.244140625 c 0
 121.474609375 131.543945312 129.407226562 164.411132812 140.740234375 214.84375 c 1
 115.240234375 214.84375 l 2
 101.073242188 214.84375 90.306640625 217.676757812 82.939453125 223.34375 c 0
 72.1064453125 231.676757812 71.82421875 242.190429688 71.82421875 248.618164062 c 0
 71.82421875 257.791015625 74.962890625 265.516601562 81.2392578125 271.793945312 c 0
 88.0400390625 278.59375 98.806640625 282.560546875 113.540039062 283.694335938 c 0
 118.072265625 283.694335938 125.014648438 283.8359375 134.364257812 284.119140625 c 0
 143.71484375 284.40234375 150.65625 284.543945312 155.189453125 284.543945312 c 1
 184.08984375 431.59375 l 1
 179.556640625 431.59375 173.323242188 431.452148438 165.390625 431.168945312 c 0
 157.45703125 430.885742188 152.07421875 430.744140625 149.241210938 430.744140625 c 0
 148.107421875 430.698242188 146.994140625 430.67578125 145.90234375 430.67578125 c 0
 133.348632812 430.67578125 123.553710938 433.672851562 116.516601562 439.668945312 c 0
 105.248046875 449.267578125 104.979492188 459.853515625 104.979492188 466.056640625 c 0
 104.979492188 475.321289062 108.399414062 483.241210938 115.240234375 489.818359375 c 0
 122.607421875 496.901367188 133.657226562 500.7265625 148.390625 501.29296875 c 0
 159.157226562 501.860351562 175.590820312 502.143554688 197.690429688 502.143554688 c 1
 213.557617188 587.709960938 221.774414062 631.91015625 222.341796875 634.743164062 c 0
 226.874023438 648.91015625 233.95703125 658.827148438 243.590820312 664.494140625 c 0
 250.012695312 668.272460938 256.561523438 670.162109375 263.236328125 670.162109375 c 0
 266.573242188 670.162109375 269.94140625 669.689453125 273.341796875 668.745117188 c 0
 285.241210938 666.477539062 294.44921875 660.810546875 300.966796875 651.744140625 c 0
 305.508789062 645.424804688 307.779296875 637.728515625 307.779296875 628.657226562 c 0
 307.779296875 624.712890625 307.350585938 620.508789062 306.4921875 616.044921875 c 2
 283.541992188 503.844726562 l 1
 379.591796875 503.844726562 l 1
 402.541992188 627.944335938 l 2
 407.075195312 642.677734375 414.017578125 652.877929688 423.3671875 658.544921875 c 0
 429.6015625 662.323242188 436.275390625 664.212890625 443.391601562 664.212890625 c 0
 446.948242188 664.212890625 450.615234375 663.740234375 454.392578125 662.795898438 c 0
 466.860351562 660.528320312 476.209960938 654.861328125 482.443359375 645.794921875 c 0
 486.4765625 639.927734375 488.493164062 632.875 488.493164062 624.635742188 c 0
 488.493164062 620.141601562 487.893554688 615.293945312 486.693359375 610.094726562 c 0
 480.459960938 586.294921875 473.376953125 551.444335938 465.443359375 505.544921875 c 1
 474.793945312 505.544921875 l 2
 488.393554688 505.544921875 499.869140625 501.719726562 509.21875 494.069335938 c 0
 518.568359375 486.419921875 523.52734375 478.344726562 524.09375 469.844726562 c 0
 524.09375 459.64453125 520.693359375 451.002929688 513.893554688 443.919921875 c 0
 507.09375 436.836914062 496.610351562 433.01171875 482.443359375 432.444335938 c 2
 451.84375 432.444335938 l 1
 427.193359375 287.094726562 l 1
 462.043945312 287.094726562 l 2
 475.077148438 287.094726562 484.143554688 284.120117188 489.244140625 278.169921875 c 0
 494.34375 272.219726562 497.176757812 264.427734375 497.744140625 254.794921875 c 0
 497.744140625 229.861328125 485.84375 217.39453125 462.043945312 217.39453125 c 2
 414.443359375 217.39453125 l 1
 403.110351562 152.794921875 394.893554688 109.162109375 389.793945312 86.4951171875 c 0
 385.260742188 74.5947265625 377.185546875 65.38671875 365.568359375 58.8701171875 c 0
 357.934570312 54.587890625 350.361328125 52.4462890625 342.850585938 52.4462890625 c 0
 338.931640625 52.4462890625 335.029296875 53.029296875 331.143554688 54.1943359375 c 0
 320.376953125 56.4619140625 312.443359375 63.1201171875 307.34375 74.169921875 c 0
 304.643554688 80.01953125 303.293945312 86.306640625 303.293945312 93.0302734375 c 0
 303.293945312 99.0068359375 304.360351562 105.328125 306.494140625 111.99609375 c 0
 312.161132812 134.662109375 319.52734375 169.512695312 328.594726562 216.545898438 c 1
 316.694335938 216.545898438 299.412109375 216.403320312 276.745117188 216.12109375 c 0
 254.078125 215.837890625 237.360351562 215.6953125 226.59375 215.6953125 c 1
 214.693359375 154.49609375 206.193359375 112.5625 201.09375 89.8955078125 c 0
269.943359375 432.444335938 m 1
 240.193359375 287.09375 l 1
 263.426757812 287.661132812 296.860351562 287.944335938 340.493164062 287.944335938 c 1
 349.559570312 334.411132812 358.342773438 382.578125 366.842773438 432.444335938 c 1
 269.943359375 432.444335938 l 1
EndSplineSet
Validated: 524289
EndChar

StartChar: dollar
Encoding: 36 36 4
Width: 550
VWidth: 901
GlyphClass: 2
Flags: HMW
HStem: 26.5075 72.2442 597.7 67.1517
VStem: 105.974 78.2009 265.774 73.9509 427.276 79.0491
LayerCount: 2
Fore
SplineSet
333.775390625 -32.998046875 m 0
 332.641601562 -45.46484375 327.825195312 -55.0927734375 319.325195312 -61.892578125 c 0
 310.825195312 -68.6923828125 300.908203125 -72.0927734375 289.575195312 -72.0927734375 c 0
 278.807617188 -72.0927734375 270.733398438 -68.267578125 265.349609375 -60.6171875 c 0
 260.903320312 -54.2978515625 258.6796875 -45.7548828125 258.6796875 -34.98828125 c 0
 258.6796875 -32.7216796875 258.778320312 -30.3564453125 258.974609375 -27.8935546875 c 0
 259.73046875 -18.8291015625 260.108398438 -7.7509765625 260.108398438 5.341796875 c 0
 260.108398438 11.892578125 260.013671875 18.947265625 259.82421875 26.5068359375 c 1
 257.274414062 26.5068359375 l 2
 236.874023438 26.5068359375 217.749023438 29.056640625 199.899414062 34.1572265625 c 0
 182.048828125 39.2568359375 166.749023438 46.056640625 153.999023438 54.556640625 c 0
 141.249023438 63.056640625 130.19921875 72.1240234375 120.848632812 81.7568359375 c 0
 111.499023438 91.3896484375 103.991210938 101.873046875 98.32421875 113.206054688 c 0
 93.2236328125 124.680664062 90.673828125 134.5625 90.673828125 142.849609375 c 0
 90.673828125 145.612304688 90.95703125 148.198242188 91.5244140625 150.60546875 c 0
 93.791015625 160.239257812 99.7412109375 167.322265625 109.374023438 171.85546875 c 0
 116.173828125 174.688476562 121.557617188 176.670898438 125.524414062 177.8046875 c 0
 129.491210938 178.9375 133.8828125 179.220703125 138.700195312 178.653320312 c 0
 143.516601562 178.086914062 148.19140625 175.819335938 152.724609375 171.852539062 c 0
 157.2578125 167.885742188 162.075195312 162.21875 167.174804688 154.8515625 c 0
 178.5078125 137.28515625 191.541015625 123.54296875 206.274414062 113.625976562 c 0
 221.006835938 103.708984375 238.857421875 98.7509765625 259.82421875 98.7509765625 c 2
 263.223632812 98.7509765625 l 1
 264.357421875 193.383789062 264.923828125 277.817382812 264.923828125 352.049804688 c 1
 262.090820312 352.049804688 257.1328125 352.6171875 250.049804688 353.75 c 0
 242.966796875 354.8828125 237.724609375 355.450195312 234.325195312 355.450195312 c 0
 213.924804688 357.716796875 195.224609375 363.099609375 178.224609375 371.599609375 c 0
 161.224609375 380.099609375 147.766601562 390.442382812 137.849609375 402.625 c 0
 127.932617188 414.80859375 120.140625 427.55859375 114.473632812 440.875 c 0
 108.807617188 454.192382812 105.973632812 467.650390625 105.973632812 481.25 c 0
 105.973632812 501.650390625 109.090820312 521.200195312 115.32421875 539.900390625 c 0
 121.557617188 558.599609375 131.048828125 576.025390625 143.798828125 592.174804688 c 0
 156.548828125 608.325195312 173.124023438 622.208007812 193.524414062 633.825195312 c 0
 213.923828125 645.442382812 238.006835938 653.516601562 265.774414062 658.049804688 c 1
 266.340820312 671.650390625 266.624023438 688.083007812 266.624023438 707.349609375 c 0
 267.19140625 738.516601562 278.807617188 754.099609375 301.474609375 754.099609375 c 0
 301.947265625 754.111328125 302.415039062 754.116210938 302.879882812 754.116210938 c 0
 327.443359375 754.116210938 339.724609375 739.377929688 339.724609375 709.901367188 c 2
 339.724609375 664.850585938 l 1
 352.19140625 664.284179688 369.6171875 661.451171875 392 656.350585938 c 0
 414.3828125 651.250976562 430.958007812 646.43359375 441.724609375 641.901367188 c 0
 452.4921875 637.93359375 460.141601562 631.701171875 464.674804688 623.201171875 c 0
 468.301757812 616.401367188 470.114257812 609.23828125 470.114257812 601.712890625 c 0
 470.114257812 599.83203125 470.001953125 597.928710938 469.775390625 596.001953125 c 0
 469.208007812 589.202148438 467.083007812 583.959960938 463.400390625 580.276367188 c 0
 459.716796875 576.59375 455.18359375 574.327148438 449.80078125 573.4765625 c 0
 444.41796875 572.626953125 439.317382812 572.484375 434.500976562 573.051757812 c 0
 429.68359375 573.619140625 424.44140625 574.46875 418.775390625 575.6015625 c 0
 413.674804688 576.734375 407.299804688 579.142578125 399.650390625 582.826171875 c 0
 392 586.508789062 383.358398438 589.766601562 373.724609375 592.599609375 c 0
 364.091796875 595.43359375 352.474609375 597.1328125 338.875 597.700195312 c 1
 338.307617188 552.3671875 337.174804688 492.299804688 335.474609375 417.5 c 1
 361.541992188 414.099609375 384.775390625 408.0078125 405.174804688 399.224609375 c 0
 425.575195312 390.442382812 441.8671875 380.383789062 454.049804688 369.05078125 c 0
 466.233398438 357.717773438 476.575195312 344.684570312 485.075195312 329.952148438 c 0
 493.575195312 315.21875 499.2421875 300.768554688 502.075195312 286.6015625 c 0
 504.908203125 272.434570312 506.325195312 257.702148438 506.325195312 242.401367188 c 0
 506.325195312 216.334960938 501.932617188 191.684570312 493.150390625 168.452148438 c 0
 484.3671875 145.21875 472.041992188 125.1015625 456.174804688 108.1015625 c 0
 440.307617188 91.1015625 421.890625 76.369140625 400.923828125 63.9013671875 c 0
 379.95703125 51.4345703125 357.006835938 42.0849609375 332.07421875 35.8515625 c 1
 332.640625 1.8515625 333.208007812 -21.0986328125 333.775390625 -32.998046875 c 0
184.174804688 502.5078125 m 0
 184.174804688 484.375 191.400390625 468.5078125 205.850585938 454.907226562 c 0
 220.30078125 441.307617188 239.993164062 431.674804688 264.92578125 426.0078125 c 1
 265.493164062 465.107421875 265.775390625 519.5078125 265.775390625 589.208007812 c 1
 241.409179688 581.840820312 221.716796875 570.791015625 206.700195312 556.057617188 c 0
 191.682617188 541.32421875 184.174804688 523.474609375 184.174804688 502.5078125 c 0
427.275390625 227.958007812 m 0
 427.275390625 238.724609375 425.857421875 248.641601562 423.024414062 257.708007812 c 0
 420.19140625 266.775390625 415.658203125 276.267578125 409.424804688 286.184570312 c 0
 403.19140625 296.1015625 393.841796875 305.309570312 381.375 313.809570312 c 0
 368.908203125 322.309570312 353.325195312 329.67578125 334.625 335.909179688 c 1
 334.625 310.9765625 334.483398438 273.434570312 334.200195312 223.284179688 c 0
 333.916992188 173.133789062 333.208984375 136.7265625 332.076171875 114.059570312 c 1
 359.275390625 125.392578125 381.942382812 140.975585938 400.076171875 160.80859375 c 0
 418.208984375 180.641601562 427.275390625 203.024414062 427.275390625 227.958007812 c 0
EndSplineSet
Validated: 524289
EndChar

StartChar: percent
Encoding: 37 37 5
Width: 550
VWidth: 899
GlyphClass: 2
Flags: HMW
HStem: 25.1899 64.5771 194.366 62.9 416.217 63.75<185.782 192.865 185.782 195.131> 586.217 62.05
VStem: 77.8322 61.1311 230.885 59.7559 305.573 61.1932 406.78 75.5471 456.947 60.9723
LayerCount: 2
Fore
SplineSet
176.431640625 416.216796875 m 0xfe
 156.598632812 416.216796875 138.890625 421.741210938 123.307617188 432.791992188 c 0
 107.723632812 443.841796875 96.2490234375 457.724609375 88.8818359375 474.44140625 c 0
 81.515625 491.158203125 77.83203125 509.150390625 77.83203125 528.416992188 c 0
 77.83203125 563.55078125 87.607421875 592.30859375 107.157226562 614.69140625 c 0
 126.70703125 637.07421875 154.33203125 648.266601562 190.032226562 648.266601562 c 0
 204.19921875 648.266601562 217.374023438 645.858398438 229.557617188 641.041992188 c 0
 241.740234375 636.224609375 252.6484375 629 262.28125 619.366210938 c 0
 271.9140625 609.733398438 279.28125 596.55859375 284.380859375 579.841796875 c 0
 288.553710938 566.163085938 290.639648438 550.684570312 290.639648438 533.40234375 c 0
 290.639648438 529.5625 290.537109375 525.633789062 290.331054688 521.616210938 c 0
 288.630859375 487.049804688 278.573242188 460.841796875 260.15625 442.991210938 c 0
 241.739257812 425.141601562 213.831054688 416.216796875 176.431640625 416.216796875 c 0xfe
99.0810546875 65.1669921875 m 0
 110.981445312 89.533203125 139.173828125 140.67578125 183.657226562 218.592773438 c 0
 228.140625 296.509765625 272.623046875 375.134765625 317.106445312 454.467773438 c 0
 361.58984375 533.80078125 391.481445312 590.467773438 406.78125 624.467773438 c 0
 413.581054688 634.666992188 422.505859375 641.041992188 433.556640625 643.592773438 c 0
 436.985351562 644.383789062 440.346679688 644.779296875 443.639648438 644.779296875 c 0
 450.956054688 644.779296875 457.9375 642.825195312 464.580078125 638.916992188 c 0
 470.250976562 636.397460938 482.327148438 629.958007812 482.327148438 614.823242188 c 0xff
 482.327148438 606.897460938 478.962890625 597.645507812 472.231445312 587.068359375 c 0
 451.264648438 552.500976562 401.255859375 464.384765625 322.206054688 322.717773438 c 0
 243.15625 181.05078125 190.880859375 85.283203125 165.380859375 35.4169921875 c 0
 154.501953125 15.330078125 142.231445312 5.287109375 128.5703125 5.287109375 c 0
 123.732421875 5.287109375 118.719726562 6.546875 113.532226562 9.06640625 c 0
 99.140625 15.9033203125 91.9443359375 25.9375 91.9443359375 39.1689453125 c 0
 91.9443359375 46.77734375 94.3232421875 55.443359375 99.0810546875 65.1669921875 c 0
185.782226562 479.966796875 m 0
 199.94921875 479.966796875 210.573242188 484.5 217.65625 493.56640625 c 0
 228.256835938 507.134765625 230.885742188 525.888671875 230.885742188 533.669921875 c 0
 230.885742188 551.134765625 226.901367188 564.1171875 218.932617188 572.6171875 c 0
 210.432617188 581.684570312 198.532226562 586.217773438 183.232421875 586.217773438 c 0
 169.631835938 586.217773438 159.149414062 581.259765625 151.782226562 571.342773438 c 0
 149.301757812 568.002929688 138.963867188 552.568359375 138.963867188 527.227539062 c 0
 138.963867188 513.172851562 141.961914062 502.236328125 147.95703125 494.416992188 c 0
 154.473632812 485.916992188 167.08203125 481.099609375 185.782226562 479.966796875 c 0
403.380859375 25.216796875 m 0
 383.547851562 25.216796875 365.981445312 30.7412109375 350.681640625 41.7919921875 c 0
 335.380859375 52.841796875 323.90625 66.724609375 316.255859375 83.44140625 c 0
 309.133789062 99.005859375 305.572265625 115.673828125 305.572265625 133.448242188 c 0
 305.572265625 152.983398438 306.572265625 191.2109375 334.53125 223.69140625 c 0
 353.797851562 246.07421875 381.28125 257.266601562 416.981445312 257.266601562 c 0
 431.1484375 257.266601562 444.323242188 255 456.505859375 250.466796875 c 0
 468.689453125 245.93359375 479.739257812 238.708007812 489.65625 228.791992188 c 0
 499.573242188 218.875 507.081054688 205.557617188 512.181640625 188.840820312 c 0
 516.005859375 176.302734375 517.918945312 162.251953125 517.918945312 146.685546875 c 0xfe80
 517.918945312 141.497070312 517.706054688 136.140625 517.28125 130.615234375 c 0
 515.581054688 96.048828125 505.5234375 69.69921875 487.106445312 51.5654296875 c 0
 469.248046875 33.982421875 442.46484375 25.1904296875 406.756835938 25.1904296875 c 0
 405.639648438 25.1904296875 404.515625 25.19921875 403.380859375 25.216796875 c 0
412.731445312 89.81640625 m 0
 413.508789062 89.7841796875 414.275390625 89.76953125 415.032226562 89.76953125 c 0
 427.51953125 89.76953125 437.235351562 94.1767578125 444.181640625 102.9921875 c 0
 445.349609375 104.474609375 456.946289062 119.73046875 456.946289062 141.07421875 c 0
 456.946289062 176.602539062 441.641601562 194.3671875 411.03125 194.3671875 c 0
 397.998046875 194.3671875 387.65625 189.409179688 380.005859375 179.4921875 c 0
 377.330078125 176.022460938 366.765625 160.786132812 366.765625 136.4921875 c 0
 366.765625 122.833007812 369.904296875 111.94921875 376.181640625 103.841796875 c 0
 382.981445312 95.05859375 395.1640625 90.3837890625 412.731445312 89.81640625 c 0
EndSplineSet
Validated: 524289
EndChar

StartChar: ampersand
Encoding: 38 38 6
Width: 550
VWidth: 901
GlyphClass: 2
Flags: HMW
HStem: 15.4518 79.8983 16.8298 17.85G 599.401 67.15
VStem: 77.7959 85.8474 151.745 81.5983 350.643 70.5517
LayerCount: 2
Fore
SplineSet
489.193359375 21.400390625 m 0xac
 484.20703125 18.3525390625 478.916992188 16.8291015625 473.321289062 16.8291015625 c 0x6c
 467.470703125 16.8291015625 461.286132812 18.4951171875 454.768554688 21.826171875 c 0
 442.018554688 28.3427734375 430.826171875 39.53515625 421.193359375 55.4013671875 c 0
 420.060546875 58.234375 416.802734375 66.734375 411.418945312 80.9013671875 c 0
 406.036132812 95.068359375 401.927734375 105.268554688 399.094726562 111.501953125 c 1
 397.395507812 109.234375 393.711914062 104.41796875 388.044921875 97.05078125 c 0
 382.377929688 89.68359375 378.127929688 84.30078125 375.294921875 80.9013671875 c 0
 372.461914062 77.5009765625 367.928710938 72.4013671875 361.696289062 65.6005859375 c 0
 355.462890625 58.80078125 349.9375 53.55859375 345.12109375 49.8759765625 c 0
 340.303710938 46.1923828125 334.071289062 41.80078125 326.420898438 36.701171875 c 0
 318.770507812 31.6005859375 311.404296875 27.7763671875 304.321289062 25.2255859375 c 0
 297.23828125 22.67578125 288.73828125 20.4091796875 278.821289062 18.42578125 c 0
 268.904296875 16.4423828125 258.845703125 15.451171875 248.645507812 15.451171875 c 0
 216.913085938 15.451171875 187.87109375 23.66796875 161.520507812 40.1005859375 c 0
 135.170898438 56.5341796875 114.62890625 78.0673828125 99.8955078125 104.700195312 c 0
 85.1630859375 131.333007812 77.7958984375 160.233398438 77.7958984375 191.400390625 c 0xb4
 77.7958984375 298.5 121.99609375 371.317382812 210.395507812 409.849609375 c 1
 205.295898438 418.349609375 199.204101562 428.549804688 192.12109375 440.450195312 c 0
 185.038085938 452.349609375 179.795898438 460.708007812 176.395507812 465.525390625 c 0
 172.99609375 470.341796875 169.3125 476.575195312 165.345703125 484.224609375 c 0
 161.37890625 491.875 158.6875 498.533203125 157.270507812 504.200195312 c 0
 155.853515625 509.8671875 154.578125 516.80859375 153.4453125 525.026367188 c 0
 152.3125 533.243164062 151.745117188 542.16796875 151.745117188 551.80078125 c 0
 151.745117188 562.000976562 153.020507812 572.05859375 155.5703125 581.975585938 c 0
 158.120117188 591.892578125 162.9375 602.092773438 170.020507812 612.576171875 c 0
 177.103515625 623.05859375 185.3203125 632.266601562 194.669921875 640.200195312 c 0
 204.020507812 648.1328125 216.770507812 654.5078125 232.919921875 659.325195312 c 0
 249.0703125 664.141601562 267.344726562 666.549804688 287.745117188 666.549804688 c 0
 304.177734375 666.549804688 320.328125 664 336.1953125 658.900390625 c 0
 352.0625 653.799804688 366.370117188 646.291992188 379.120117188 636.375 c 0
 391.870117188 626.458007812 402.0703125 613.424804688 409.719726562 597.275390625 c 0
 417.370117188 581.125 421.1953125 563.1328125 421.1953125 543.299804688 c 0
 421.1953125 525.166992188 418.927734375 508.30859375 414.395507812 492.725585938 c 0
 409.862304688 477.142578125 404.053710938 464.109375 396.970703125 453.626953125 c 0
 389.887695312 443.143554688 380.962890625 433.0859375 370.196289062 423.452148438 c 0
 359.428710938 413.819335938 349.51171875 406.169921875 340.4453125 400.502929688 c 0
 331.377929688 394.8359375 320.895507812 389.168945312 308.995117188 383.501953125 c 1
 319.1953125 365.934570312 336.478515625 339.868164062 360.844726562 305.30078125 c 0
 385.211914062 270.734375 400.794921875 247.784179688 407.594726562 236.451171875 c 1
 411.5625 244.383789062 416.094726562 253.591796875 421.1953125 264.075195312 c 0
 426.294921875 274.55859375 430.120117188 283.05859375 432.669921875 289.575195312 c 0
 435.219726562 296.091796875 437.627929688 300.766601562 439.895507812 303.599609375 c 0
 450.094726562 318.333007812 459.870117188 327.541015625 469.219726562 331.224609375 c 0
 472.903320312 332.674804688 476.6953125 333.400390625 480.598632812 333.400390625 c 0
 486.603515625 333.400390625 492.869140625 331.68359375 499.395507812 328.248046875 c 0
 509.028320312 323.715820312 514.8359375 315.357421875 516.819335938 303.173828125 c 0
 517.240234375 300.58984375 517.450195312 297.936523438 517.450195312 295.211914062 c 0
 517.450195312 285.091796875 514.547851562 274.004882812 508.743164062 261.94921875 c 0
 505.91015625 256.849609375 497.41015625 245.516601562 483.243164062 227.94921875 c 0
 469.076171875 210.381835938 457.743164062 194.232421875 449.243164062 179.499023438 c 1
 455.4765625 168.732421875 464.118164062 153.290039062 475.16796875 133.173828125 c 0
 486.21875 113.056640625 492.876953125 101.298828125 495.143554688 97.8984375 c 0
 502.03515625 86.8720703125 505.481445312 74.9130859375 505.481445312 62.0234375 c 0
 505.481445312 59.015625 505.293945312 55.9580078125 504.91796875 52.849609375 c 0
 502.935546875 36.416015625 497.693359375 25.93359375 489.193359375 21.400390625 c 0xac
233.344726562 537.349609375 m 0
 233.344726562 523.18359375 237.02734375 507.599609375 244.39453125 490.599609375 c 0
 251.760742188 473.599609375 260.828125 458.583007812 271.594726562 445.549804688 c 1
 284.0625 449.516601562 294.6875 453.625 303.469726562 457.875 c 0
 312.252929688 462.125 320.611328125 467.650390625 328.543945312 474.450195312 c 0
 336.477539062 481.25 342.14453125 489.608398438 345.543945312 499.525390625 c 0
 348.944335938 509.442382812 350.64453125 521.200195312 350.64453125 534.799804688 c 0
 350.64453125 555.766601562 344.26953125 571.775390625 331.51953125 582.825195312 c 0
 318.76953125 593.875 303.327148438 599.400390625 285.194335938 599.400390625 c 0
 250.626953125 599.400390625 233.344726562 578.716796875 233.344726562 537.349609375 c 0
163.64453125 199.049804688 m 0xb4
 163.64453125 169.583007812 171.575195312 144.932617188 187.442382812 125.099609375 c 0
 203.309570312 105.266601562 223.9921875 95.349609375 249.4921875 95.349609375 c 0
 257.42578125 95.349609375 265.217773438 96.19921875 272.8671875 97.8994140625 c 0
 280.517578125 99.599609375 287.034179688 101.298828125 292.41796875 102.999023438 c 0
 297.80078125 104.69921875 303.467773438 107.532226562 309.41796875 111.499023438 c 0
 315.3671875 115.465820312 320.04296875 118.724609375 323.442382812 121.274414062 c 0
 326.842773438 123.82421875 330.950195312 127.791015625 335.767578125 133.173828125 c 0
 340.584960938 138.557617188 343.701171875 142.381835938 345.118164062 144.649414062 c 0
 346.53515625 146.916015625 349.510742188 151.024414062 354.04296875 156.974609375 c 0
 358.576171875 162.923828125 361.126953125 166.465820312 361.693359375 167.599609375 c 0
 351.493164062 189.69921875 342.993164062 206.982421875 336.193359375 219.44921875 c 0
 329.393554688 232.482421875 315.651367188 253.732421875 294.96875 283.19921875 c 0
 274.28515625 312.666015625 259.693359375 334.483398438 251.193359375 348.650390625 c 1
 234.193359375 341.283203125 219.6015625 332.075195312 207.41796875 321.025390625 c 0
 195.235351562 309.974609375 186.02734375 297.791992188 179.793945312 284.474609375 c 0
 173.561523438 271.158203125 169.311523438 257.700195312 167.043945312 244.099609375 c 0
 164.77734375 230.5 163.64453125 215.483398438 163.64453125 199.049804688 c 0xb4
EndSplineSet
Validated: 524289
EndChar

StartChar: quotesingle
Encoding: 39 39 7
Width: 550
VWidth: 941
GlyphClass: 2
Flags: HMW
HStem: 470.397 276.751
VStem: 252.977 90.3822
LayerCount: 2
Fore
SplineSet
343.075195312 710.172851562 m 0
 343.264648438 702.61328125 343.359375 693.68359375 343.359375 683.383789062 c 0
 343.359375 662.797851562 342.981445312 636.736328125 342.225585938 605.19921875 c 0
 341.092773438 557.881835938 339.110351562 524.307617188 336.27734375 504.473632812 c 0
 334.577148438 492.57421875 329.619140625 483.791015625 321.40234375 478.124023438 c 0
 313.931640625 472.97265625 306.111328125 470.396484375 297.938476562 470.396484375 c 0
 297.12109375 470.396484375 296.30078125 470.422851562 295.475585938 470.473632812 c 0
 284.142578125 471.041015625 274.084960938 474.723632812 265.301757812 481.524414062 c 0
 257.522460938 487.546875 253.6328125 495.5703125 253.6328125 505.594726562 c 0
 253.6328125 508.65234375 255.739257812 534.173828125 255.739257812 583.521484375 c 0
 255.739257812 592.58984375 255.668945312 601.940429688 255.52734375 611.57421875 c 0
 254.959960938 650.107421875 254.110351562 684.390625 252.9765625 714.422851562 c 0
 252.9765625 721.223632812 254.251953125 727.172851562 256.801757812 732.2734375 c 0
 259.3515625 737.373046875 263.318359375 740.915039062 268.702148438 742.8984375 c 0
 274.084960938 744.880859375 279.327148438 746.297851562 284.426757812 747.1484375 c 0
 289.52734375 747.998046875 294.626953125 748.140625 299.7265625 747.573242188 c 0
 304.827148438 747.573242188 309.643554688 747.005859375 314.176757812 745.873046875 c 0
 318.709960938 744.740234375 323.243164062 742.8984375 327.776367188 740.348632812 c 0
 332.30859375 737.797851562 335.9921875 733.973632812 338.825195312 728.873046875 c 0
 341.658203125 723.7734375 343.075195312 717.540039062 343.075195312 710.172851562 c 0
EndSplineSet
Validated: 524289
EndChar

StartChar: parenleft
Encoding: 40 40 8
Width: 550
VWidth: 901
GlyphClass: 2
Flags: HMW
HStem: -60.1229 71.3983 674.277 68.85
VStem: 170.536 82.7746
LayerCount: 2
Fore
SplineSet
423.735351562 -27.82421875 m 0
 423.735351562 -36.8916015625 420.053710938 -44.5390625 412.686523438 -50.7724609375 c 0
 405.319335938 -57.0048828125 397.669921875 -60.1220703125 389.736328125 -60.1220703125 c 0
 351.76953125 -60.1220703125 317.344726562 -46.5224609375 286.4609375 -19.322265625 c 0
 255.578125 7.8779296875 230.361328125 45.560546875 210.811523438 93.7275390625 c 0
 191.26171875 141.89453125 178.653320312 197.427734375 172.986328125 260.328125 c 0
 171.352539062 277.362304688 170.536132812 296.509765625 170.536132812 317.770507812 c 0
 170.536132812 348.142578125 172.203125 382.828125 175.536132812 421.828125 c 0
 181.203125 488.127929688 192.252929688 542.810546875 208.686523438 585.877929688 c 0
 216.053710938 604.578125 225.828125 623.135742188 238.01171875 641.552734375 c 0
 250.194335938 659.969726562 264.077148438 676.828125 279.66015625 692.127929688 c 0
 295.243164062 707.427734375 312.810546875 719.752929688 332.360351562 729.102539062 c 0
 351.91015625 738.453125 371.318359375 743.127929688 390.5859375 743.127929688 c 0
 413.264648438 743.127929688 424.604492188 732.057617188 424.604492188 709.918945312 c 0
 424.604492188 703.594726562 424.48046875 690.345703125 414.384765625 682.352539062 c 0
 407.584960938 676.969726562 399.084960938 674.278320312 388.884765625 674.278320312 c 0
 374.151367188 674.278320312 360.41015625 670.028320312 347.66015625 661.528320312 c 0
 334.91015625 653.028320312 323.717773438 641.411132812 314.084960938 626.677734375 c 0
 304.451171875 611.9453125 296.09375 595.794921875 289.010742188 578.227539062 c 0
 281.927734375 560.661132812 275.8359375 541.677734375 270.735351562 521.278320312 c 0
 263.368164062 491.810546875 258.268554688 451.293945312 255.435546875 399.727539062 c 0
 254.01953125 373.943359375 253.311523438 350.568359375 253.311523438 329.6015625 c 0
 253.311523438 308.634765625 254.01953125 290.076171875 255.435546875 273.92578125 c 0
 258.268554688 239.359375 264.360351562 205.784179688 273.7109375 173.201171875 c 0
 283.060546875 140.618164062 293.96875 112.568359375 306.435546875 89.0517578125 c 0
 318.90234375 65.5341796875 332.502929688 46.6923828125 347.235351562 32.525390625 c 0
 361.96875 18.3583984375 376.135742188 11.275390625 389.735351562 11.275390625 c 0
 401.068359375 11.275390625 409.568359375 8.4423828125 415.235351562 2.775390625 c 0
 420.90234375 -2.8916015625 423.735351562 -13.091796875 423.735351562 -27.82421875 c 0
EndSplineSet
Validated: 524289
EndChar

StartChar: parenright
Encoding: 41 41 9
Width: 550
VWidth: 901
GlyphClass: 2
Flags: HMW
HStem: -60.1296 71.4 674.273 68.8517
VStem: 341.105 84.361
LayerCount: 2
Fore
SplineSet
423.016601562 260.32421875 m 0
 416.783203125 197.424804688 403.89453125 141.887695312 384.344726562 93.720703125 c 0
 364.794921875 45.5537109375 339.719726562 7.8701171875 309.119140625 -19.3291015625 c 0
 278.51953125 -46.529296875 244.236328125 -60.1298828125 206.26953125 -60.1298828125 c 0
 198.336914062 -60.1298828125 190.686523438 -57.0126953125 183.319335938 -50.779296875 c 0
 175.953125 -44.546875 172.26953125 -36.896484375 172.26953125 -27.8291015625 c 0
 172.26953125 -13.0966796875 175.244140625 -2.896484375 181.194335938 2.7705078125 c 0
 187.14453125 8.4375 195.502929688 11.2705078125 206.26953125 11.2705078125 c 0
 219.302734375 11.2705078125 233.044921875 18.353515625 247.494140625 32.5205078125 c 0
 261.944335938 46.6875 275.40234375 65.529296875 287.869140625 89.0458984375 c 0
 300.336914062 112.563476562 311.38671875 140.754882812 321.01953125 173.622070312 c 0
 330.65234375 206.489257812 336.602539062 239.921875 338.869140625 273.921875 c 0
 340.360351562 290.922851562 341.10546875 310.591796875 341.10546875 332.928710938 c 0
 341.10546875 353.032226562 340.501953125 375.295898438 339.293945312 399.721679688 c 0
 336.744140625 451.2890625 331.501953125 491.805664062 323.568359375 521.2734375 c 0
 319.036132812 541.672851562 313.369140625 560.65625 306.568359375 578.22265625 c 0
 299.768554688 595.790039062 291.411132812 611.939453125 281.494140625 626.672851562 c 0
 271.577148438 641.40625 260.384765625 653.0234375 247.91796875 661.5234375 c 0
 235.451171875 670.0234375 222.133789062 674.2734375 207.966796875 674.2734375 c 0
 197.200195312 674.2734375 188.416992188 676.96484375 181.6171875 682.34765625 c 0
 174.817382812 687.731445312 171.416992188 696.373046875 171.416992188 708.2734375 c 0
 171.416992188 715.639648438 172.267578125 721.731445312 173.966796875 726.548828125 c 0
 175.666992188 731.366210938 178.642578125 734.907226562 182.892578125 737.174804688 c 0
 187.142578125 739.44140625 190.825195312 741 193.942382812 741.849609375 c 0
 197.05859375 742.69921875 200.883789062 743.125 205.416992188 743.125 c 0
 224.68359375 743.125 244.091796875 738.44921875 263.642578125 729.099609375 c 0
 283.192382812 719.75 300.6171875 707.424804688 315.916992188 692.125 c 0
 331.216796875 676.82421875 344.958984375 659.966796875 357.142578125 641.549804688 c 0
 369.325195312 623.1328125 379.3828125 604.57421875 387.31640625 585.875 c 0
 403.749023438 542.807617188 414.799804688 488.125 420.465820312 421.82421875 c 0
 423.799804688 382.825195312 425.466796875 348.139648438 425.466796875 317.766601562 c 0
 425.466796875 296.505859375 424.649414062 277.358398438 423.016601562 260.32421875 c 0
EndSplineSet
Validated: 524289
EndChar

StartChar: asterisk
Encoding: 42 42 10
Width: 550
VWidth: 901
GlyphClass: 2
Flags: HMW
HStem: 301.041 88.3991 312.517 65.0251
LayerCount: 2
Fore
SplineSet
252.950195312 170.143554688 m 0x40
 250.682617188 163.342773438 246.85546875 158.2421875 241.47265625 154.841796875 c 0
 236.088867188 151.442382812 230.139648438 149.458984375 223.622070312 148.892578125 c 0
 217.10546875 148.325195312 210.872070312 148.75 204.921875 150.166992188 c 0
 198.97265625 151.583984375 193.73046875 153.42578125 189.197265625 155.693359375 c 0
 184.09765625 158.526367188 179.84765625 162.633789062 176.447265625 168.017578125 c 0
 173.046875 173.400390625 170.780273438 180.05859375 169.647460938 187.991210938 c 0
 168.514648438 195.924804688 170.213867188 204.141601562 174.747070312 212.641601562 c 2
 231.697265625 305.291015625 l 1
 185.23046875 302.458007812 150.947265625 301.041015625 128.84765625 301.041015625 c 0
 115.247070312 301.041015625 104.48046875 305.57421875 96.546875 314.641601562 c 0
 88.6142578125 323.708007812 84.6474609375 333.341796875 84.6474609375 343.541015625 c 0
 84.6474609375 348.641601562 85.35546875 353.883789062 86.7724609375 359.266601562 c 0
 88.189453125 364.649414062 90.314453125 369.749023438 93.1474609375 374.56640625 c 0
 95.98046875 379.383789062 100.372070312 383.208007812 106.322265625 386.041015625 c 0
 112.272460938 388.874023438 118.930664062 390.0078125 126.296875 389.440429688 c 0x80
 152.364257812 387.173828125 190.897460938 384.340820312 241.897460938 380.940429688 c 1
 217.530273438 422.307617188 197.413085938 454.041015625 181.546875 476.140625 c 0
 174.815429688 487.19921875 171.450195312 498.052734375 171.450195312 508.704101562 c 0
 171.450195312 510.606445312 171.557617188 512.501953125 171.772460938 514.391601562 c 0
 173.189453125 526.858398438 178.431640625 535.075195312 187.498046875 539.041992188 c 0
 192.59765625 542.442382812 198.97265625 544.284179688 206.623046875 544.567382812 c 0
 214.2734375 544.850585938 222.065429688 542.725585938 229.998046875 538.192382812 c 0
 237.931640625 533.659179688 244.1640625 526.859375 248.697265625 517.791992188 c 0
 254.930664062 504.192382812 271.647460938 471.609375 298.84765625 420.041992188 c 1
 321.514648438 458.575195312 338.514648438 490.875 349.84765625 516.942382812 c 0
 353.814453125 526.008789062 359.622070312 532.809570312 367.272460938 537.341796875 c 0
 374.921875 541.875 382.2890625 544 389.372070312 543.716796875 c 0
 396.455078125 543.434570312 402.546875 541.309570312 407.647460938 537.341796875 c 0
 413.314453125 534.508789062 417.989257812 529.9765625 421.671875 523.743164062 c 0
 425.35546875 517.509765625 427.197265625 510.143554688 427.197265625 501.643554688 c 0
 427.197265625 493.143554688 424.364257812 484.92578125 418.697265625 476.993164062 c 0
 400.564453125 450.360351562 380.731445312 417.209960938 359.198242188 377.54296875 c 1
 408.498046875 377.54296875 443.630859375 380.66015625 464.59765625 386.893554688 c 0
 468.565429688 388.155273438 472.359375 388.786132812 475.981445312 388.786132812 c 0
 483.745117188 388.786132812 490.717773438 385.888671875 496.899414062 380.092773438 c 0
 505.965820312 371.592773438 510.783203125 362.526367188 511.349609375 352.893554688 c 0
 511.349609375 347.79296875 510.783203125 342.693359375 509.649414062 337.592773438 c 0
 508.516601562 332.493164062 506.533203125 327.393554688 503.700195312 322.29296875 c 0
 500.8671875 317.193359375 496.900390625 313.2265625 491.80078125 310.393554688 c 0
 486.700195312 307.559570312 480.467773438 306.993164062 473.100585938 308.693359375 c 0
 458.649414062 311.243164062 433.83984375 312.518554688 398.669921875 312.518554688 c 0
 386.947265625 312.518554688 374.07421875 312.375976562 360.049804688 312.092773438 c 1
 417 213.493164062 l 2
 422.078125 202.874023438 424.6171875 193.2890625 424.6171875 184.73828125 c 0
 424.6171875 182.793945312 424.486328125 180.904296875 424.223632812 179.067382812 c 0
 422.806640625 169.150390625 418.69921875 161.92578125 411.899414062 157.392578125 c 0
 406.232421875 153.9921875 399.006835938 152.008789062 390.223632812 151.442382812 c 0
 389.125976562 151.372070312 388.02734375 151.3359375 386.9296875 151.3359375 c 2
 363.875 156.541992188 l 2
 355.091796875 160.508789062 349.56640625 167.026367188 347.299804688 176.092773438 c 0
 339.932617188 198.759765625 324.916015625 231.342773438 302.249023438 273.842773438 c 1
 275.616210938 221.709960938 259.182617188 187.143554688 252.950195312 170.143554688 c 0x40
EndSplineSet
Validated: 524289
EndChar

StartChar: plus
Encoding: 43 43 11
Width: 550
VWidth: 910
GlyphClass: 2
Flags: HMW
HStem: 365.837 67.3193
VStem: 262.297 68.8475
LayerCount: 2
Fore
SplineSet
331.14453125 272.5078125 m 0
 331.14453125 259.474609375 328.314453125 250.265625 322.647460938 244.8828125 c 0
 316.98046875 239.499023438 309.047851562 236.807617188 298.84765625 236.807617188 c 0
 274.48046875 236.807617188 262.297851562 248.70703125 262.297851562 272.5078125 c 2
 262.297851562 363.45703125 l 1
 250.96484375 363.45703125 235.665039062 363.315429688 216.397460938 363.032226562 c 0
 197.130859375 362.749023438 183.813476562 362.607421875 176.447265625 362.607421875 c 0
 162.280273438 362.607421875 151.796875 366.149414062 144.997070312 373.232421875 c 0
 135.102539062 383.5390625 134.731445312 394.581054688 134.731445312 401.61328125 c 0
 134.731445312 411.309570312 137.870117188 419.55859375 144.146484375 426.358398438 c 0
 150.4609375 433.19921875 159.951171875 436.619140625 172.616210938 436.619140625 c 0
 173.590820312 436.619140625 174.583984375 436.598632812 175.596679688 436.55859375 c 0
 215.263671875 435.424804688 244.1640625 434.858398438 262.296875 434.858398438 c 1
 262.296875 484.854492188 260.524414062 526.295898438 260.524414062 529.701171875 c 0
 260.524414062 552.0390625 272.731445312 563.20703125 297.146484375 563.20703125 c 0
 298.28125 563.263671875 299.393554688 563.291992188 300.483398438 563.291992188 c 0
 310.30078125 563.291992188 318.396484375 560.997070312 324.770507812 556.407226562 c 0
 330.875976562 552.010742188 333.9296875 544.245117188 333.9296875 533.109375 c 0
 333.9296875 531.328125 333.8515625 529.4609375 333.6953125 527.506835938 c 0
 331.995117188 494.639648438 331.145507812 463.189453125 331.145507812 433.15625 c 1
 424.645507812 433.15625 l 2
 437.678710938 433.15625 446.88671875 430.323242188 452.26953125 424.65625 c 0
 457.65234375 418.989257812 460.627929688 411.33984375 461.194335938 401.70703125 c 0
 461.194335938 396.606445312 460.627929688 391.931640625 459.494140625 387.681640625 c 0
 458.361328125 383.431640625 456.661132812 379.323242188 454.39453125 375.356445312 c 0
 452.127929688 371.389648438 448.444335938 368.415039062 443.344726562 366.431640625 c 0
 438.244140625 364.448242188 432.01171875 363.740234375 424.64453125 364.307617188 c 0
 415.8046875 365.327148438 400.947265625 365.836914062 380.071289062 365.836914062 c 0
 366.154296875 365.836914062 349.561523438 365.610351562 330.294921875 365.157226562 c 1
 330.294921875 349.857421875 330.436523438 331.724609375 330.719726562 310.7578125 c 0
 331.002929688 289.790039062 331.14453125 277.040039062 331.14453125 272.5078125 c 0
EndSplineSet
Validated: 524289
EndChar

StartChar: comma
Encoding: 44 44 12
Width: 550
VWidth: 845
GlyphClass: 2
Flags: HMW
VStem: 210.873 173.826
LayerCount: 2
Fore
SplineSet
384.698242188 76.6953125 m 0
 379.03125 48.927734375 366.848632812 6.1435546875 348.1484375 -51.65625 c 0
 329.448242188 -109.456054688 314.998046875 -145.15625 304.798828125 -158.755859375 c 0
 295.731445312 -170.65625 284.256835938 -179.15625 270.373046875 -184.255859375 c 0
 262.043945312 -187.315429688 254.479492188 -188.845703125 247.678710938 -188.845703125 c 0
 243.145507812 -188.845703125 238.952148438 -188.166015625 235.099609375 -186.805664062 c 0
 229.432617188 -185.106445312 224.190429688 -181.706054688 219.373046875 -176.606445312 c 0
 214.556640625 -171.505859375 211.723632812 -165.2734375 210.873046875 -157.90625 c 0
 210.0234375 -150.5390625 212.1484375 -142.888671875 217.248046875 -134.956054688 c 0
 229.1484375 -117.956054688 245.581054688 -80.5556640625 266.548828125 -22.755859375 c 0
 287.515625 35.0439453125 300.265625 75.27734375 304.798828125 97.9443359375 c 0
 306.498046875 105.876953125 310.46484375 112.110351562 316.698242188 116.643554688 c 0
 322.931640625 121.17578125 329.448242188 123.443359375 336.248046875 123.443359375 c 0
 343.048828125 123.443359375 349.848632812 122.875976562 356.6484375 121.743164062 c 0
 365.71484375 118.91015625 373.08203125 113.52734375 378.749023438 105.59375 c 0
 383.108398438 99.4921875 385.287109375 92.3837890625 385.287109375 84.2705078125 c 0
 385.287109375 81.8359375 385.090820312 79.310546875 384.698242188 76.6953125 c 0
EndSplineSet
Validated: 524289
EndChar

StartChar: hyphen
Encoding: 45 45 13
Width: 550
VWidth: 893
GlyphClass: 2
Flags: HMW
HStem: 249.75 73.95<191.453 213.269> 256.55 69.7<389.786 398.853 389.786 404.519>
VStem: 166.923 261.962
LayerCount: 2
Fore
SplineSet
201.935546875 323.700195312 m 0xa0
 234.235351562 323.700195312 272.76953125 324.125 317.536132812 324.974609375 c 0
 362.303710938 325.825195312 387.236328125 326.25 392.336914062 326.25 c 0
 405.369140625 326.25 414.577148438 323.275390625 419.9609375 317.325195312 c 0
 425.34375 311.375 428.318359375 303.583007812 428.885742188 293.950195312 c 0
 428.885742188 269.016601562 416.702148438 256.549804688 392.3359375 256.549804688 c 0x60
 384.96875 256.549804688 356.494140625 255.416992188 306.91015625 253.150390625 c 0
 257.327148438 250.8828125 222.90234375 249.75 203.635742188 249.75 c 0
 179.268554688 249.75 167.0859375 261.932617188 167.0859375 286.299804688 c 0
 166.9765625 287.891601562 166.922851562 289.431640625 166.922851562 290.921875 c 0
 166.922851562 312.7734375 178.59375 323.700195312 201.935546875 323.700195312 c 0xa0
EndSplineSet
Validated: 524289
EndChar

StartChar: period
Encoding: 46 46 14
Width: 550
VWidth: 859
GlyphClass: 2
Flags: HMW
HStem: -2.96641 131.413
VStem: 228.299 139.401
LayerCount: 2
Fore
SplineSet
299.700195312 -2.4892578125 m 0
 296.755859375 -2.806640625 293.88671875 -2.9658203125 291.09375 -2.9658203125 c 0
 273.994140625 -2.9658203125 259.720703125 2.9990234375 248.274414062 14.9326171875 c 0
 234.95703125 28.8154296875 228.298828125 45.107421875 228.298828125 63.8076171875 c 0
 228.298828125 81.375 235.807617188 96.3916015625 250.82421875 108.858398438 c 0
 265.840820312 121.325195312 282.1328125 127.842773438 299.700195312 128.409179688 c 0
 300.581054688 128.434570312 301.456054688 128.446289062 302.32421875 128.446289062 c 0
 320.974609375 128.446289062 336.391601562 122.625976562 348.575195312 110.985351562 c 0
 361.325195312 98.8017578125 367.700195312 83.3603515625 367.700195312 64.66015625 c 0
 367.700195312 46.52734375 361.466796875 31.369140625 349 19.1865234375 c 0
 336.533203125 7.0029296875 320.099609375 -0.2216796875 299.700195312 -2.4892578125 c 0
EndSplineSet
Validated: 524289
EndChar

StartChar: slash
Encoding: 47 47 15
Width: 550
VWidth: 901
GlyphClass: 2
Flags: W
LayerCount: 2
Fore
SplineSet
502.845703125 626.501953125 m 0
 488.112304688 597.6015625 446.74609375 526.623046875 378.74609375 413.573242188 c 0
 310.74609375 300.5234375 269.37890625 230.3984375 254.645507812 203.198242188 c 0
 245.579101562 185.631835938 230.845703125 155.881835938 210.4453125 113.948242188 c 0
 190.045898438 72.015625 177.295898438 46.515625 172.1953125 37.4482421875 c 0
 163.12890625 21.5810546875 151.653320312 10.53125 137.770507812 4.298828125 c 0
 130.829101562 1.1826171875 124.34765625 -0.3759765625 118.327148438 -0.3759765625 c 0
 112.306640625 -0.3759765625 106.74609375 1.1826171875 101.645507812 4.298828125 c 0
 93.1455078125 8.83203125 88.0458984375 19.3154296875 86.345703125 35.748046875 c 0
 86.0458984375 38.6474609375 85.8955078125 41.5029296875 85.8955078125 44.314453125 c 0
 85.8955078125 57.4365234375 89.1630859375 69.5986328125 95.6962890625 80.798828125 c 0
 178.4296875 216.798828125 249.262695312 337.78125 308.1953125 443.748046875 c 0
 345.028320312 508.915039062 384.12890625 582.58203125 425.49609375 664.749023438 c 0
 430.028320312 673.81640625 436.26171875 680.7578125 444.194335938 685.575195312 c 0
 452.127929688 690.391601562 459.77734375 692.659179688 467.14453125 692.375976562 c 0
 474.51171875 692.092773438 481.87890625 690.53515625 489.24609375 687.702148438 c 0
 499.4453125 682.6015625 505.962890625 674.668945312 508.795898438 663.901367188 c 0
 509.62890625 660.735351562 510.045898438 657.420898438 510.045898438 653.9609375 c 0
 510.045898438 645.655273438 507.645507812 636.501953125 502.845703125 626.501953125 c 0
EndSplineSet
Validated: 524289
EndChar

StartChar: zero
Encoding: 48 48 16
Width: 550
VWidth: 902
GlyphClass: 2
Flags: HMW
HStem: 31.6501 71.3991 593.499 68.8509
VStem: 97.39 81.1767 416.144 82.3143
LayerCount: 2
Fore
SplineSet
279.2890625 31.650390625 m 0
 252.655273438 31.650390625 228.149414062 36.4677734375 205.765625 46.1005859375 c 0
 183.3828125 55.734375 164.2578125 69.05078125 148.390625 86.05078125 c 0
 132.524414062 103.05078125 120.057617188 124.30078125 110.990234375 149.80078125 c 0
 102.45703125 173.799804688 98.1904296875 200.057617188 98.1904296875 228.57421875 c 0
 98.1904296875 230.357421875 98.20703125 232.149414062 98.240234375 233.950195312 c 0
 98.240234375 239.6171875 98.0986328125 253.641601562 97.8154296875 276.025390625 c 0
 97.5322265625 298.408203125 97.390625 316.2578125 97.390625 329.575195312 c 0
 97.390625 342.891601562 97.8154296875 361.30859375 98.6650390625 384.826171875 c 0
 99.515625 408.342773438 101.073242188 428.600585938 103.33984375 445.600585938 c 0
 105.607421875 462.600585938 108.58203125 480.875976562 112.265625 500.42578125 c 0
 115.948242188 519.975585938 120.90625 537.118164062 127.139648438 551.850585938 c 0
 140.739257812 587.55078125 163.689453125 614.892578125 195.989257812 633.875976562 c 0
 228.2890625 652.859375 267.672851562 662.350585938 314.139648438 662.350585938 c 0
 337.372070312 662.350585938 359.189453125 658.383789062 379.58984375 650.451171875 c 0
 399.989257812 642.517578125 418.122070312 630.901367188 433.989257812 615.600585938 c 0
 449.856445312 600.30078125 463.03125 580.467773438 473.514648438 556.100585938 c 0
 483.997070312 531.734375 490.655273438 503.68359375 493.48828125 471.951171875 c 0
 495.755859375 443.618164062 497.313476562 411.459960938 498.1640625 375.4765625 c 0
 498.359375 367.173828125 498.45703125 358.85546875 498.45703125 350.522460938 c 0
 498.45703125 322.741210938 497.3671875 294.791992188 495.188476562 266.67578125 c 0
 492.35546875 230.125976562 488.388671875 202.217773438 483.2890625 182.951171875 c 0
 478.188476562 163.68359375 472.521484375 146.68359375 466.2890625 131.951171875 c 0
 460.055664062 117.217773438 453.397460938 104.467773438 446.314453125 93.701171875 c 0
 439.231445312 82.93359375 431.297851562 73.8671875 422.515625 66.5 c 0
 413.732421875 59.1328125 404.381835938 53.18359375 394.46484375 48.650390625 c 0
 384.547851562 44.1171875 373.356445312 40.5751953125 360.889648438 38.025390625 c 0
 348.422851562 35.474609375 335.955078125 33.775390625 323.48828125 32.9248046875 c 0
 311.021484375 32.0751953125 296.2890625 31.650390625 279.2890625 31.650390625 c 0
181.540039062 247.55078125 m 0
 181.540039062 245.284179688 181.685546875 241.883789062 181.96875 237.350585938 c 0
 182.251953125 232.817382812 182.393554688 229.701171875 182.393554688 228.000976562 c 1
 258.326171875 331.701171875 326.609375 438.234375 387.243164062 547.600585938 c 1
 377.04296875 562.333984375 364.576171875 573.666992188 349.842773438 581.599609375 c 0
 335.109375 589.533203125 319.243164062 593.5 302.243164062 593.5 c 0
 270.509765625 593.5 245.717773438 584.716796875 227.868164062 567.150390625 c 0
 210.017578125 549.583007812 196.559570312 521.25 187.493164062 482.150390625 c 0
 184.092773438 467.983398438 181.684570312 451.408203125 180.267578125 432.424804688 c 0
 179.086914062 416.602539062 178.49609375 398.025390625 178.49609375 376.69140625 c 0
 178.49609375 372.4296875 178.51953125 368.057617188 178.56640625 363.576171875 c 0
 178.849609375 336.659179688 179.1328125 317.67578125 179.416015625 306.625976562 c 0
 179.69921875 295.576171875 180.407226562 275.883789062 181.540039062 247.55078125 c 0
403.393554688 194.850585938 m 0
 405.66015625 201.651367188 408.068359375 220.349609375 410.618164062 250.950195312 c 0
 413.168945312 281.549804688 415.010742188 316.541992188 416.143554688 355.924804688 c 0
 416.466796875 367.17578125 416.62890625 378.299804688 416.62890625 389.296875 c 0
 416.62890625 416.79296875 415.6171875 443.494140625 413.59375 469.400390625 c 1
 352.9609375 344.733398438 281.560546875 240.18359375 199.393554688 155.75 c 1
 214.693359375 120.6171875 241.326171875 103.049804688 279.293945312 103.049804688 c 0
 294.59375 103.049804688 308.3359375 104.325195312 320.518554688 106.875 c 0
 332.701171875 109.424804688 344.318359375 113.958007812 355.368164062 120.474609375 c 0
 366.418945312 126.9921875 375.768554688 136.484375 383.418945312 148.951171875 c 0
 391.068359375 161.41796875 397.7265625 176.717773438 403.393554688 194.850585938 c 0
EndSplineSet
Validated: 524289
EndChar

StartChar: one
Encoding: 49 49 17
Width: 550
VWidth: 904
GlyphClass: 2
Flags: HMW
HStem: 46.4251 72.675 49.8251 75.65<122.051 141.601 122.051 141.601> 488.883 17.85G
VStem: 257.484 82.1647 265.7 77.7733
LayerCount: 2
Fore
SplineSet
504.618164062 83.6884765625 m 0xb0
 504.618164062 73.5341796875 501.62109375 64.9375 495.625976562 57.900390625 c 0
 489.109375 50.25 477.634765625 46.4248046875 461.201171875 46.4248046875 c 0xb0
 453.833984375 46.4248046875 403.259765625 46.9921875 309.4765625 48.125 c 0
 215.693359375 49.2578125 155.201171875 49.8251953125 128.000976562 49.8251953125 c 0
 115.534179688 49.8251953125 106.326171875 53.224609375 100.375976562 60.025390625 c 0
 94.4267578125 66.8251953125 91.451171875 75.6083984375 91.451171875 86.375 c 0
 91.40234375 87.361328125 91.376953125 88.33203125 91.376953125 89.2880859375 c 0
 91.376953125 99.3203125 94.0947265625 107.69921875 99.5263671875 114.424804688 c 0
 105.4765625 121.791992188 115.250976562 125.474609375 128.8515625 125.474609375 c 0
 154.3515625 125.474609375 197.701171875 125.192382812 258.901367188 124.625 c 1
 258.901367188 147.291992188 258.618164062 165.424804688 258.051757812 179.025390625 c 0
 257.672851562 182.047851562 257.483398438 189.735351562 257.483398438 202.086914062 c 0x70
 257.483398438 208.25390625 257.53125 215.583007812 257.625 224.075195312 c 0
 257.908203125 249.575195312 258.05078125 267.9921875 258.05078125 279.325195312 c 0
 258.05078125 290.658203125 258.6171875 311.625 259.75 342.224609375 c 0
 260.883789062 372.825195312 261.733398438 395.6328125 262.30078125 410.650390625 c 0
 262.8671875 425.666992188 264 449.466796875 265.700195312 482.049804688 c 0
 267.400390625 514.6328125 268.533203125 538.575195312 269.100585938 553.875 c 1
 227.166992188 518.7421875 196.567382812 497.775390625 177.30078125 490.974609375 c 0
 173.813476562 489.580078125 170.3125 488.8828125 166.798828125 488.8828125 c 0
 158.892578125 488.8828125 150.91796875 492.4140625 142.875 499.474609375 c 0
 131.798828125 509.200195312 126.260742188 518.92578125 126.260742188 528.650390625 c 0
 126.260742188 529.125 126.2734375 529.600585938 126.30078125 530.075195312 c 0
 126.30078125 539.141601562 128.283203125 547.216796875 132.25 554.299804688 c 0
 136.217773438 561.3828125 143.30078125 568.608398438 153.5 575.974609375 c 0
 169.93359375 588.442382812 187.216796875 602.18359375 205.349609375 617.201171875 c 0
 223.482421875 632.217773438 236.515625 643.125976562 244.44921875 649.92578125 c 0
 252.381835938 656.725585938 260.598632812 662.534179688 269.098632812 667.350585938 c 0
 277.598632812 672.16796875 284.965820312 674.576171875 291.19921875 674.576171875 c 0
 303.098632812 674.576171875 315.565429688 669.475585938 328.598632812 659.276367188 c 0
 341.631835938 649.076171875 348.1484375 640.576171875 348.1484375 633.776367188 c 0
 348.1484375 620.743164062 346.590820312 574.41796875 343.473632812 494.80078125 c 0x68
 340.356445312 415.18359375 338.798828125 368.576171875 338.798828125 354.975585938 c 0
 338.798828125 298.30859375 339.08203125 250.9921875 339.6484375 213.025390625 c 0
 339.6484375 192.05859375 340.215820312 161.458007812 341.348632812 121.224609375 c 1
 357.782226562 121.224609375 375.064453125 120.942382812 393.198242188 120.375 c 0
 411.331054688 119.80859375 426.206054688 119.3828125 437.823242188 119.099609375 c 0
 449.439453125 118.817382812 457.797851562 118.674804688 462.8984375 118.674804688 c 0
 478.764648438 118.674804688 489.532226562 115.700195312 495.19921875 109.75 c 0
 499.809570312 104.909179688 504.618164062 96.7333984375 504.618164062 83.6884765625 c 0xb0
EndSplineSet
Validated: 524289
EndChar

StartChar: two
Encoding: 50 50 18
Width: 550
VWidth: 902
GlyphClass: 2
Flags: HMW
HStem: 37.3452 71.4042 40.7443 77.355 594.947 71.3991
VStem: 99.977 84.9975 400.026 84.1475
LayerCount: 2
Fore
SplineSet
468.025390625 42.44921875 m 0x78
 444.225585938 42.44921875 414.619140625 41.876953125 379.203125 40.744140625 c 0x78
 343.786132812 39.611328125 312.477539062 38.478515625 285.27734375 37.3447265625 c 0
 258.078125 36.2119140625 230.169921875 35.6455078125 201.552734375 35.6455078125 c 0
 172.935546875 35.6455078125 150.693359375 36.7783203125 134.827148438 39.044921875 c 0
 122.360351562 40.1787109375 113.434570312 47.828125 108.051757812 61.9951171875 c 0
 102.668945312 76.162109375 99.9765625 96.5625 99.9765625 123.1953125 c 0
 99.9765625 147.5625 105.21875 173.204101562 115.702148438 200.12109375 c 0
 126.184570312 227.038085938 141.626953125 252.821289062 162.026367188 277.470703125 c 0
 182.426757812 302.12109375 206.2265625 322.095703125 233.426757812 337.396484375 c 0
 294.059570312 371.396484375 333.16015625 395.196289062 350.7265625 408.795898438 c 0
 373.959960938 426.928710938 388.693359375 446.196289062 394.92578125 466.595703125 c 0
 398.326171875 478.49609375 400.026367188 493.229492188 400.026367188 510.795898438 c 0
 400.026367188 540.262695312 391.383789062 561.655273438 374.100585938 574.971679688 c 0
 356.818359375 588.2890625 332.309570312 594.947265625 300.577148438 594.947265625 c 0
 278.4765625 594.947265625 257.369140625 588.146484375 237.251953125 574.546875 c 0
 217.134765625 560.947265625 201.693359375 545.9296875 190.92578125 529.497070312 c 0
 185.826171875 522.129882812 181.008789062 516.322265625 176.475585938 512.072265625 c 0
 171.943359375 507.822265625 167.125976562 505.4140625 162.026367188 504.846679688 c 0
 156.92578125 504.280273438 152.392578125 504.5625 148.42578125 505.696289062 c 0
 144.458984375 506.829101562 139.076171875 508.8125 132.276367188 511.645507812 c 0
 122.642578125 516.745117188 116.693359375 524.112304688 114.42578125 533.745117188 c 0
 113.859375 536.153320312 113.576171875 538.739257812 113.576171875 541.500976562 c 0
 113.576171875 549.7890625 116.125976562 559.669921875 121.225585938 571.145507812 c 0
 126.892578125 581.912109375 135.392578125 592.678710938 146.725585938 603.446289062 c 0
 158.05859375 614.212890625 171.091796875 624.413085938 185.825195312 634.045898438 c 0
 200.55859375 643.678710938 217.840820312 651.470703125 237.674804688 657.420898438 c 0
 257.5078125 663.37109375 277.340820312 666.345703125 297.173828125 666.345703125 c 0
 358.373046875 666.345703125 404.840820312 652.178710938 436.573242188 623.845703125 c 0
 468.306640625 595.512695312 484.173828125 553.012695312 484.173828125 496.345703125 c 0
 484.173828125 449.3125 472.2734375 411.629882812 448.473632812 383.296875 c 0
 430.90625 362.330078125 399.173828125 339.096679688 353.2734375 313.596679688 c 0
 341.940429688 306.796875 322.390625 296.313476562 294.623046875 282.146484375 c 0
 270.256835938 269.114257812 249.856445312 253.10546875 233.423828125 234.123046875 c 0
 216.990234375 215.139648438 205.232421875 195.731445312 198.149414062 175.8984375 c 0
 191.06640625 156.065429688 186.674804688 134.532226562 184.974609375 111.299804688 c 1
 216.70703125 109.599609375 247.307617188 108.749023438 276.774414062 108.749023438 c 0xb8
 306.241210938 108.749023438 329.19140625 109.174804688 345.624023438 110.024414062 c 0
 362.057617188 110.874023438 381.040039062 112.149414062 402.573242188 113.849609375 c 0
 424.106445312 115.549804688 438.2734375 116.682617188 445.073242188 117.249023438 c 0
 445.640625 117.249023438 448.33203125 117.391601562 453.149414062 117.674804688 c 0
 457.965820312 117.95703125 461.224609375 118.099609375 462.924804688 118.099609375 c 2
 471.424804688 118.099609375 l 2
 475.391601562 118.099609375 478.366210938 117.532226562 480.349609375 116.399414062 c 0
 482.33203125 115.266601562 484.599609375 113.849609375 487.149414062 112.149414062 c 0
 489.69921875 110.44921875 491.682617188 108.182617188 493.099609375 105.349609375 c 0
 494.516601562 102.516601562 495.5078125 99.1162109375 496.075195312 95.1494140625 c 0
 496.642578125 88.349609375 496.359375 81.1240234375 495.225585938 73.474609375 c 0
 494.092773438 65.82421875 491.118164062 58.7412109375 486.30078125 52.224609375 c 0
 481.484375 45.70703125 475.392578125 42.44921875 468.025390625 42.44921875 c 0x78
EndSplineSet
Validated: 524289
EndChar

StartChar: three
Encoding: 51 51 19
Width: 550
VWidth: 902
GlyphClass: 2
Flags: HMW
HStem: 31.956 71.4 322.656 85 594.656 71.3983
VStem: 388.967 84.1917 407.652 84.9983
LayerCount: 2
Fore
SplineSet
492.650390625 221.500976562 m 0xe8
 492.650390625 163.133789062 474.655273438 116.958007812 438.672851562 82.9580078125 c 0
 402.689453125 48.9580078125 352.114257812 31.9580078125 286.947265625 31.9580078125 c 0
 267.114257812 31.9580078125 247.28125 34.9326171875 227.448242188 40.8828125 c 0
 207.615234375 46.8330078125 190.473632812 54.482421875 176.0234375 63.8330078125 c 0
 161.573242188 73.1826171875 148.681640625 83.3828125 137.348632812 94.4326171875 c 0
 126.015625 105.482421875 117.232421875 116.390625 110.999023438 127.157226562 c 0
 105.899414062 136.932617188 103.348632812 146.0703125 103.348632812 154.5703125 c 0
 103.348632812 157.403320312 103.631835938 160.166015625 104.19921875 162.857421875 c 0
 106.465820312 173.625 112.69921875 181.274414062 122.899414062 185.807617188 c 0
 130.71484375 189.715820312 137.9921875 191.669921875 144.73046875 191.669921875 c 0
 147.762695312 191.669921875 150.685546875 191.2734375 153.5 190.482421875 c 0
 162.56640625 187.932617188 171.633789062 180.708007812 180.701171875 168.807617188 c 0
 193.16796875 151.807617188 209.034179688 136.649414062 228.301757812 123.333007812 c 0
 247.568359375 110.015625 268.251953125 103.357421875 290.3515625 103.357421875 c 0
 324.3515625 103.357421875 352.401367188 112.990234375 374.501953125 132.2578125 c 0
 396.6015625 151.524414062 407.651367188 176.458007812 407.651367188 207.057617188 c 0xe8
 407.651367188 225.7578125 404.818359375 241.907226562 399.151367188 255.5078125 c 0
 393.484375 269.107421875 384.41796875 281.0078125 371.951171875 291.208007812 c 0
 359.483398438 301.407226562 342.341796875 309.19921875 320.525390625 314.583007812 c 0
 298.708007812 319.965820312 273.349609375 322.657226562 244.450195312 322.657226562 c 0
 232.549804688 322.657226562 222.208007812 327.333007812 213.424804688 336.682617188 c 0
 204.641601562 346.032226562 200.25 356.375 200.25 367.708007812 c 0
 200.25 379.607421875 203.3671875 389.240234375 209.599609375 396.607421875 c 0
 215.833007812 403.974609375 224.900390625 407.657226562 236.799804688 407.657226562 c 0
 284.400390625 407.657226562 321.799804688 417.149414062 349 436.1328125 c 0
 375.64453125 454.727539062 388.967773438 481.616210938 388.967773438 516.796875 c 0
 388.967773438 517.530273438 388.961914062 518.267578125 388.950195312 519.0078125 c 0
 388.966796875 519.768554688 388.974609375 520.524414062 388.974609375 521.2734375 c 0
 388.974609375 545.634765625 380.041992188 563.862304688 362.174804688 575.95703125 c 0
 343.7578125 588.423828125 317.265625 594.657226562 282.69921875 594.657226562 c 0
 275.899414062 594.657226562 269.241210938 593.948242188 262.723632812 592.532226562 c 0
 256.20703125 591.115234375 250.96484375 589.698242188 246.998046875 588.28125 c 0
 243.03125 586.864257812 238.78125 584.456054688 234.248046875 581.055664062 c 0
 229.71484375 577.65625 225.890625 574.823242188 222.7734375 572.555664062 c 0
 219.65625 570.2890625 216.255859375 566.60546875 212.573242188 561.505859375 c 0
 208.890625 556.40625 206.057617188 552.864257812 204.07421875 550.880859375 c 0
 202.090820312 548.897460938 199.399414062 544.790039062 195.999023438 538.556640625 c 0
 186.932617188 526.08984375 177.723632812 518.72265625 168.374023438 516.456054688 c 0
 165.703125 515.80859375 162.950195312 515.484375 160.116210938 515.484375 c 0
 153.033203125 515.484375 145.444335938 517.508789062 137.348632812 521.555664062 c 0
 127.715820312 526.088867188 121.908203125 533.596679688 119.924804688 544.080078125 c 0
 119.411132812 546.797851562 119.153320312 549.638671875 119.153320312 552.604492188 c 0
 119.153320312 561.077148438 121.252929688 570.560546875 125.451171875 581.0546875 c 0
 131.118164062 592.387695312 138.484375 602.73046875 147.551757812 612.080078125 c 0
 156.618164062 621.4296875 167.1015625 630.35546875 179.001953125 638.85546875 c 0
 190.901367188 647.35546875 205.493164062 654.012695312 222.776367188 658.830078125 c 0
 240.059570312 663.647460938 258.618164062 666.0546875 278.451171875 666.0546875 c 0
 343.618164062 666.0546875 392.634765625 652.455078125 425.501953125 625.254882812 c 0
 457.272460938 598.961914062 473.159179688 560.489257812 473.159179688 509.836914062 c 0xf0
 473.159179688 508.090820312 473.139648438 506.330078125 473.102539062 504.5546875 c 0
 473.102539062 488.12109375 470.977539062 473.24609375 466.727539062 459.9296875 c 0
 462.477539062 446.612304688 456.668945312 435.279296875 449.302734375 425.9296875 c 0
 441.935546875 416.579101562 432.868164062 408.362304688 422.1015625 401.279296875 c 0
 411.334960938 394.196289062 400.426757812 388.670898438 389.376953125 384.704101562 c 0
 378.326171875 380.737304688 366.568359375 377.620117188 354.1015625 375.353515625 c 1
 377.334960938 370.25390625 397.16796875 364.020507812 413.600585938 356.653320312 c 0
 430.034179688 349.286132812 444.341796875 339.794921875 456.525390625 328.177734375 c 0
 468.708007812 316.560546875 477.775390625 301.96875 483.724609375 284.401367188 c 0
 489.674804688 266.834960938 492.650390625 245.868164062 492.650390625 221.500976562 c 0xe8
EndSplineSet
Validated: 524289
EndChar

StartChar: four
Encoding: 52 52 20
Width: 550
VWidth: 902
GlyphClass: 2
Flags: HMW
HStem: 33.1262 17.85G 243.276 68.2847
VStem: 354.953 74.3725 360.902 75.6483 360.902 82.4977
LayerCount: 2
Fore
SplineSet
441.650390625 99.4267578125 m 0xd0
 442.81640625 93.2080078125 443.399414062 87.2880859375 443.399414062 81.66796875 c 0
 443.399414062 70.9033203125 441.258789062 61.23828125 436.977539062 52.67578125 c 0
 430.4609375 39.642578125 420.96875 33.125 408.501953125 33.125 c 0
 397.734375 33.125 387.251953125 37.2333984375 377.051757812 45.4501953125 c 0
 366.8515625 53.6669921875 361.46875 62.025390625 360.901367188 70.525390625 c 2
 360.901367188 103.67578125 l 1
 360.901367188 169.55078125 l 1xc8
 360.901367188 243.075195312 l 1xd0
 348.770507812 243.208984375 337.077148438 243.275390625 325.82421875 243.275390625 c 0
 241.41015625 243.275390625 181.703125 239.526367188 146.702148438 232.026367188 c 0
 137.634765625 230.326171875 129.41796875 230.609375 122.05078125 232.875976562 c 0
 114.68359375 235.143554688 108.875976562 239.110351562 104.625976562 244.77734375 c 0
 100.375976562 250.444335938 97.1181640625 256.9609375 94.8505859375 264.328125 c 0
 92.583984375 271.6953125 91.451171875 279.344726562 91.451171875 287.278320312 c 0
 91.451171875 295.2109375 92.8681640625 302.861328125 95.701171875 310.227539062 c 0
 101.368164062 326.094726562 116.525390625 352.01953125 141.17578125 388.002929688 c 0
 165.826171875 423.986328125 197.842773438 468.46875 237.225585938 521.452148438 c 0
 276.609375 574.435546875 304.516601562 612.827148438 320.950195312 636.626953125 c 0
 328.317382812 647.39453125 336.674804688 655.46875 346.025390625 660.852539062 c 0
 355.375 666.235351562 364.299804688 668.926757812 372.799804688 668.926757812 c 0
 374.860351562 669.1328125 376.887695312 669.236328125 378.8828125 669.236328125 c 0
 387.861328125 669.236328125 396.174804688 667.150390625 403.825195312 662.977539062 c 0
 413.174804688 657.876953125 418.983398438 649.09375 421.25 636.626953125 c 0
 424.650390625 616.793945312 427.341796875 586.194335938 429.325195312 544.827148438 c 0xe0
 431.307617188 503.459960938 432.583007812 468.467773438 433.150390625 439.8515625 c 0
 433.716796875 411.234375 434.567382812 368.026367188 435.700195312 310.2265625 c 1
 445.333007812 309.659179688 456.099609375 309.375976562 468 309.375976562 c 0
 481.033203125 309.375976562 490.241210938 306.401367188 495.624023438 300.451171875 c 0
 501.006835938 294.500976562 503.982421875 286.708984375 504.548828125 277.076171875 c 0
 504.548828125 252.143554688 492.366210938 239.676757812 467.999023438 239.676757812 c 0
 456.666015625 239.676757812 446.182617188 239.958984375 436.549804688 240.526367188 c 1
 437.682617188 157.79296875 439.3828125 110.759765625 441.650390625 99.4267578125 c 0xd0
354.952148438 564.375 m 1xe0
 271.084960938 454.44140625 214.134765625 369.157226562 184.1015625 308.524414062 c 1
 215.674804688 310.548828125 254.764648438 311.560546875 301.373046875 311.560546875 c 0
 320.012695312 311.560546875 339.85546875 311.3984375 360.901367188 311.07421875 c 1
 360.901367188 417.041992188 358.918945312 501.474609375 354.952148438 564.375 c 1xe0
EndSplineSet
Validated: 524289
EndChar

StartChar: five
Encoding: 53 53 21
Width: 550
VWidth: 902
GlyphClass: 2
Flags: HMW
HStem: 36.749 71.3983 409.047 75.6525 578.2 75.6483 587.55 67.9983
VStem: 104.706 79.3942 110.996 74.8025 415.295 85.0051
LayerCount: 2
Fore
SplineSet
500.299804688 303.649414062 m 0xda
 500.299804688 261.716796875 495.05078125 223.890625 484.568359375 190.173828125 c 0
 474.084960938 156.45703125 459.3515625 128.407226562 440.369140625 106.024414062 c 0
 421.385742188 83.640625 398.578125 66.4990234375 371.944335938 54.5986328125 c 0
 345.311523438 42.69921875 316.12890625 36.7490234375 284.395507812 36.7490234375 c 0
 259.462890625 36.7490234375 236.512695312 39.298828125 215.545898438 44.3994140625 c 0
 194.578125 49.4990234375 177.01171875 56.58203125 162.844726562 65.6494140625 c 0
 148.677734375 74.7158203125 136.77734375 84.2080078125 127.14453125 94.125 c 0
 117.51171875 104.041992188 109.578125 114.383789062 103.345703125 125.150390625 c 0
 98.2451171875 136.625976562 95.6953125 146.506835938 95.6953125 154.793945312 c 0
 95.6953125 157.556640625 95.978515625 160.142578125 96.5458984375 162.55078125 c 0
 98.8125 172.18359375 104.762695312 179.55078125 114.395507812 184.650390625 c 0
 120.62890625 187.483398438 125.870117188 189.466796875 130.120117188 190.599609375 c 0
 134.370117188 191.732421875 139.045898438 192.015625 144.145507812 191.44921875 c 0
 149.245117188 190.881835938 154.0625 188.615234375 158.595703125 184.6484375 c 0
 163.12890625 180.681640625 167.9453125 175.014648438 173.045898438 167.647460938 c 0
 198.545898438 128.547851562 233.112304688 108.713867188 276.745117188 108.147460938 c 0
 319.245117188 108.147460938 352.962890625 125.005859375 377.895507812 158.72265625 c 0
 402.828125 192.439453125 415.295898438 237.630859375 415.295898438 294.297851562 c 0
 415.295898438 329.431640625 407.50390625 357.338867188 391.920898438 378.022460938 c 0
 376.337890625 398.705078125 352.395507812 409.046875 320.095703125 409.046875 c 0
 311.595703125 409.046875 303.37890625 408.622070312 295.4453125 407.772460938 c 0
 287.512695312 406.921875 280.712890625 405.7890625 275.045898438 404.372070312 c 0
 269.37890625 402.955078125 263.428710938 400.830078125 257.1953125 397.997070312 c 0
 250.962890625 395.1640625 246.00390625 392.897460938 242.321289062 391.197265625 c 0
 238.638671875 389.497070312 234.10546875 386.380859375 228.721679688 381.84765625 c 0
 223.338867188 377.314453125 219.796875 374.197265625 218.096679688 372.497070312 c 0
 216.397460938 370.796875 212.713867188 367.255859375 207.046875 361.872070312 c 0
 201.379882812 356.489257812 197.98046875 353.231445312 196.846679688 352.098632812 c 0
 192.314453125 348.130859375 186.7890625 344.731445312 180.272460938 341.8984375 c 0
 173.754882812 339.065429688 166.530273438 337.223632812 158.596679688 336.373046875 c 0
 150.6640625 335.5234375 142.731445312 336.797851562 134.797851562 340.198242188 c 0
 125.165039062 344.165039062 117.939453125 352.948242188 113.123046875 366.547851562 c 0
 108.305664062 380.1484375 105.614257812 396.865234375 105.046875 416.698242188 c 0
 104.8203125 424.630859375 104.70703125 432.450195312 104.70703125 440.157226562 c 0xda
 104.70703125 451.717773438 104.961914062 463.0234375 105.471679688 474.07421875 c 0
 106.321289062 492.491210938 107.454101562 512.32421875 108.87109375 533.57421875 c 0
 110.288085938 554.82421875 110.99609375 569.416015625 110.99609375 577.348632812 c 1
 106.462890625 584.715820312 103.629882812 593.07421875 102.497070312 602.423828125 c 0
 101.364257812 611.774414062 101.7890625 620.416015625 103.772460938 628.348632812 c 0
 105.754882812 636.282226562 109.721679688 643.08203125 115.671875 648.749023438 c 0
 121.622070312 654.416015625 128.564453125 657.249023438 136.497070312 657.249023438 c 0
 157.463867188 657.249023438 206.90625 656.681640625 284.823242188 655.548828125 c 0xd6
 362.740234375 654.416015625 422.09765625 653.848632812 462.8984375 653.848632812 c 0
 470.264648438 653.848632812 476.356445312 650.732421875 481.173828125 644.499023438 c 0
 485.991210938 638.265625 489.107421875 631.182617188 490.524414062 623.25 c 0
 491.94140625 615.31640625 492.083984375 607.950195312 490.950195312 601.149414062 c 0
 490.383789062 597.182617188 489.391601562 593.783203125 487.974609375 590.950195312 c 0
 486.557617188 588.1171875 484.57421875 585.9921875 482.024414062 584.575195312 c 0
 479.474609375 583.158203125 477.208007812 581.8828125 475.224609375 580.75 c 0
 473.241210938 579.6171875 470.266601562 578.909179688 466.299804688 578.625976562 c 0
 462.333007812 578.342773438 459.5 578.200195312 457.799804688 578.200195312 c 0xe6
 456.099609375 578.200195312 452.841796875 578.483398438 448.024414062 579.05078125 c 0
 443.208007812 579.6171875 440.515625 579.900390625 439.94921875 579.900390625 c 0
 432.015625 579.900390625 417.848632812 580.750976562 397.44921875 582.450195312 c 0
 377.048828125 584.150390625 358.916015625 585.42578125 343.048828125 586.275390625 c 0
 327.181640625 587.125976562 305.08203125 587.55078125 276.749023438 587.55078125 c 0
 248.416015625 587.55078125 218.666015625 586.700195312 187.499023438 585.000976562 c 1
 187.499023438 579.333984375 186.931640625 562.900390625 185.798828125 535.700195312 c 0xd6
 184.666015625 508.500976562 183.958007812 488.80859375 183.674804688 476.625976562 c 0
 183.580078125 472.568359375 183.532226562 467.9296875 183.532226562 462.709960938 c 0
 183.532226562 452.255859375 183.721679688 439.46875 184.100585938 424.349609375 c 1
 199.967773438 441.916992188 221.5 456.3671875 248.700195312 467.700195312 c 0
 275.900390625 479.033203125 307.067382812 484.700195312 342.200195312 484.700195312 c 0
 367.133789062 484.700195312 389.658203125 480.024414062 409.775390625 470.674804688 c 0
 429.892578125 461.325195312 446.467773438 448.432617188 459.5 432 c 0
 472.533203125 415.56640625 482.591796875 396.44140625 489.674804688 374.625 c 0
 496.7578125 352.807617188 500.299804688 329.149414062 500.299804688 303.649414062 c 0xda
EndSplineSet
Validated: 524289
EndChar

StartChar: six
Encoding: 54 54 22
Width: 550
VWidth: 903
GlyphClass: 2
Flags: HMW
HStem: 34.9564 71.4042 387.707 74.7967
VStem: 93.939 77.4059 418.695 83.3<246.887 265.875>
LayerCount: 2
Fore
SplineSet
501.995117188 262.75390625 m 0
 501.995117188 231.020507812 496.752929688 201.131835938 486.26953125 173.081054688 c 0
 475.787109375 145.03125 461.478515625 120.948242188 443.345703125 100.831054688 c 0
 425.212890625 80.71484375 403.538085938 64.7060546875 378.321289062 52.806640625 c 0
 353.103515625 40.90625 326.329101562 34.9560546875 297.99609375 34.9560546875 c 0
 262.86328125 34.9560546875 232.262695312 41.6142578125 206.196289062 54.931640625 c 0
 180.12890625 68.248046875 158.737304688 87.515625 142.01953125 112.732421875 c 0
 125.302734375 137.94921875 112.978515625 168.124023438 105.044921875 203.256835938 c 0
 97.640625 236.046875 93.9384765625 272.5390625 93.9384765625 312.733398438 c 0
 93.9384765625 315.60546875 93.9580078125 318.49609375 93.99609375 321.40625 c 0
 94.5625 370.139648438 99.3798828125 414.056640625 108.446289062 453.15625 c 0
 117.513671875 492.256835938 130.122070312 525.123046875 146.271484375 551.756835938 c 0
 162.421875 578.389648438 182.396484375 600.9140625 206.196289062 619.331054688 c 0
 229.997070312 637.748046875 255.638671875 651.7734375 283.122070312 661.40625 c 0
 310.604492188 671.0390625 341.0625 677.272460938 374.49609375 680.10546875 c 0
 376.977539062 680.321289062 379.403320312 680.4296875 381.772460938 680.4296875 c 0
 391.842773438 680.4296875 400.892578125 678.479492188 408.920898438 674.580078125 c 0
 418.837890625 669.762695312 424.36328125 661.970703125 425.49609375 651.204101562 c 0
 426.0625 644.404296875 422.663085938 636.895507812 415.295898438 628.678710938 c 0
 407.928710938 620.461914062 399.711914062 614.936523438 390.64453125 612.103515625 c 0
 384.412109375 610.404296875 374.919921875 608.13671875 362.169921875 605.303710938 c 0
 349.419921875 602.470703125 338.51171875 599.779296875 329.4453125 597.228515625 c 0
 320.377929688 594.678710938 309.611328125 590.853515625 297.14453125 585.75390625 c 0
 284.677734375 580.654296875 272.352539062 573.287109375 260.168945312 563.654296875 c 0
 247.986328125 554.020507812 235.944335938 542.404296875 224.043945312 528.803710938 c 0
 211.577148438 514.071289062 200.102539062 493.954101562 189.619140625 468.454101562 c 0
 179.135742188 442.954101562 172.478515625 420.287109375 169.64453125 400.454101562 c 1
 187.211914062 421.420898438 210.162109375 437.00390625 238.495117188 447.204101562 c 0
 266.828125 457.404296875 298.278320312 462.50390625 332.844726562 462.50390625 c 0
 358.912109375 462.50390625 382.14453125 458.821289062 402.544921875 451.454101562 c 0
 422.9453125 444.086914062 440.653320312 432.469726562 455.669921875 416.603515625 c 0
 470.686523438 400.736328125 482.162109375 379.911132812 490.094726562 354.127929688 c 0
 498.028320312 328.344726562 501.995117188 297.88671875 501.995117188 262.75390625 c 0
171.344726562 249.15625 m 0
 172.478515625 236.689453125 175.029296875 224.084960938 178.99609375 211.334960938 c 0
 182.962890625 198.584960938 188.48828125 185.692382812 195.571289062 172.66015625 c 0
 202.654296875 159.626953125 211.01171875 148.293945312 220.64453125 138.66015625 c 0
 230.278320312 129.02734375 241.89453125 121.235351562 255.495117188 115.28515625 c 0
 269.094726562 109.3359375 283.544921875 106.360351562 298.844726562 106.360351562 c 0
 319.811523438 106.360351562 339.64453125 113.727539062 358.344726562 128.4609375 c 0
 377.044921875 143.193359375 391.778320312 161.751953125 402.544921875 184.134765625 c 0
 413.311523438 206.517578125 418.6953125 229.326171875 418.6953125 252.55859375 c 0
 418.6953125 279.192382812 416.427734375 301.575195312 411.89453125 319.708007812 c 0
 407.362304688 337.840820312 400.13671875 351.724609375 390.219726562 361.357421875 c 0
 380.302734375 370.990234375 369.111328125 377.790039062 356.64453125 381.756835938 c 0
 344.177734375 385.724609375 328.876953125 387.70703125 310.744140625 387.70703125 c 0
 282.411132812 387.70703125 255.778320312 380.33984375 230.844726562 365.607421875 c 0
 205.912109375 350.874023438 185.51171875 332.173828125 169.64453125 309.506835938 c 1
 169.64453125 285.140625 170.211914062 265.0234375 171.344726562 249.15625 c 0
EndSplineSet
Validated: 524289
EndChar

StartChar: seven
Encoding: 55 55 23
Width: 550
VWidth: 901
GlyphClass: 2
Flags: HMW
HStem: 32.3264 17.85G 580.951 76.925
LayerCount: 2
Fore
SplineSet
213.0390625 73.9287109375 m 0
 206.239257812 59.1962890625 197.309570312 48.14453125 186.259765625 40.77734375 c 0
 177.809570312 35.1435546875 169.442382812 32.3271484375 161.158203125 32.3271484375 c 0
 158.609375 32.3271484375 156.067382812 32.59375 153.534179688 33.126953125 c 0
 141.633789062 35.9599609375 133.275390625 42.7607421875 128.458984375 53.52734375 c 0
 126.24609375 58.474609375 125.139648438 63.6611328125 125.139648438 69.0859375 c 0
 125.139648438 75.46875 126.670898438 82.1826171875 129.733398438 89.2275390625 c 0
 158.633789062 147.594726562 189.659179688 205.677734375 222.80859375 263.477539062 c 0
 255.958984375 321.27734375 283.442382812 367.319335938 305.258789062 401.602539062 c 0
 327.076171875 435.885742188 347.192382812 469.177734375 365.609375 501.477539062 c 0
 384.026367188 533.77734375 396.3515625 560.126953125 402.584960938 580.52734375 c 1
 375.692382812 581.454101562 347.873046875 581.918945312 319.126953125 581.918945312 c 0
 295.173828125 581.918945312 270.576171875 581.596679688 245.334960938 580.952148438 c 0
 189.801757812 579.53515625 153.53515625 576.560546875 136.53515625 572.02734375 c 0
 129.734375 570.327148438 123.642578125 570.610351562 118.259765625 572.876953125 c 0
 112.876953125 575.14453125 108.484375 578.543945312 105.084960938 583.077148438 c 0
 101.684570312 587.610351562 99.134765625 592.427734375 97.4345703125 597.52734375 c 0
 95.734375 602.626953125 94.884765625 607.727539062 94.884765625 612.827148438 c 0
 94.884765625 623.02734375 97.4345703125 631.102539062 102.53515625 637.052734375 c 0
 107.634765625 643.001953125 116.984375 647.39453125 130.584960938 650.227539062 c 0
 151.551757812 654.194335938 180.59375 656.744140625 217.7109375 657.876953125 c 0
 236.26953125 658.443359375 254.084960938 658.7265625 271.15625 658.7265625 c 0
 288.227539062 658.7265625 304.5546875 658.443359375 320.137695312 657.876953125 c 0
 351.3046875 656.744140625 381.905273438 655.611328125 411.938476562 654.478515625 c 0
 441.970703125 653.344726562 458.12109375 652.778320312 460.387695312 652.778320312 c 0
 466.0546875 652.778320312 471.86328125 651.502929688 477.813476562 648.953125 c 0
 483.762695312 646.403320312 489.146484375 642.294921875 493.962890625 636.627929688 c 0
 497.647460938 632.29296875 501.6328125 624.905273438 501.6328125 613.223632812 c 0
 501.6328125 604.458984375 498.934570312 594.41015625 493.537109375 583.076171875 c 0
 485.604492188 566.076171875 471.295898438 540.434570312 450.61328125 506.151367188 c 0
 429.9296875 471.868164062 408.396484375 436.735351562 386.013671875 400.751953125 c 0
 363.630859375 364.76953125 336.430664062 316.88671875 304.4140625 257.103515625 c 0
 272.396484375 197.3203125 241.938476562 136.26171875 213.0390625 73.9287109375 c 0
EndSplineSet
Validated: 524289
EndChar

StartChar: eight
Encoding: 56 56 24
Width: 550
VWidth: 901
GlyphClass: 2
Flags: W
HStem: 27.958 73.0967<213.397 373.306> 600.854 61.2002<228.002 351.13>
VStem: 88.8965 73.0986<149.821 274.907> 111.848 79.8975<463.46 564.425> 393.195 76.502<459.874 559.21> 428.045 79.0547<150.612 281.197>
LayerCount: 2
Fore
SplineSet
507.099609375 225.151367188 m 0xc4
 507.099609375 207.017578125 504.6875 188.888671875 499.870117188 170.755859375 c 0
 495.053710938 152.623046875 486.978515625 134.915039062 475.645507812 117.631835938 c 0
 464.3125 100.348632812 450.4296875 85.1904296875 433.99609375 72.1572265625 c 0
 417.563476562 59.125 396.596679688 48.5 371.096679688 40.2822265625 c 0
 345.596679688 32.0654296875 317.263671875 27.9580078125 286.096679688 27.9580078125 c 0
 257.763671875 27.9580078125 231.98046875 31.9248046875 208.747070312 39.857421875 c 0
 185.513671875 47.791015625 166.671875 57.8486328125 152.22265625 70.0322265625 c 0
 137.772460938 82.21484375 125.588867188 96.806640625 115.671875 113.806640625 c 0
 105.754882812 130.806640625 98.8134765625 147.948242188 94.8466796875 165.231445312 c 0
 90.8798828125 182.514648438 88.896484375 200.22265625 88.896484375 218.35546875 c 0xe4
 88.896484375 237.623046875 93.712890625 258.305664062 103.346679688 280.40625 c 0
 112.979492188 302.505859375 127.004882812 322.90625 145.421875 341.60546875 c 0
 163.837890625 360.305664062 184.379882812 373.338867188 207.046875 380.706054688 c 1
 177.013671875 394.873046875 153.638671875 413.430664062 136.921875 436.380859375 c 0
 120.205078125 459.331054688 111.84765625 482.706054688 111.84765625 506.505859375 c 0
 111.84765625 513.305664062 112.4140625 520.53125 113.546875 528.180664062 c 0
 114.680664062 535.831054688 116.805664062 544.897460938 119.921875 555.380859375 c 0
 123.0390625 565.864257812 127.2890625 575.921875 132.671875 585.5546875 c 0
 138.055664062 595.188476562 145.421875 604.6796875 154.772460938 614.030273438 c 0
 164.122070312 623.379882812 174.747070312 631.596679688 186.647460938 638.6796875 c 0
 198.546875 645.762695312 213.421875 651.4296875 231.272460938 655.6796875 c 0
 249.122070312 659.9296875 268.530273438 662.0546875 289.497070312 662.0546875 c 0
 311.59765625 662.0546875 331.572265625 659.9296875 349.421875 655.6796875 c 0
 367.272460938 651.4296875 382.2890625 645.762695312 394.47265625 638.6796875 c 0
 406.655273438 631.596679688 417.421875 623.379882812 426.772460938 614.030273438 c 0
 436.122070312 604.6796875 443.34765625 595.188476562 448.447265625 585.5546875 c 0
 453.546875 575.921875 457.796875 565.721679688 461.197265625 554.955078125 c 0
 464.59765625 544.188476562 466.864257812 534.696289062 467.997070312 526.479492188 c 0
 469.129882812 518.262695312 469.697265625 510.470703125 469.697265625 503.103515625 c 0xd8
 469.697265625 496.303710938 468.84765625 489.50390625 467.147460938 482.703125 c 0
 465.447265625 475.903320312 463.180664062 469.953125 460.34765625 464.853515625 c 0
 457.513671875 459.75390625 453.831054688 454.370117188 449.297851562 448.703125 c 0
 444.764648438 443.036132812 440.514648438 438.219726562 436.547851562 434.252929688 c 0
 432.581054688 430.286132812 427.481445312 425.752929688 421.248046875 420.65234375 c 0
 415.014648438 415.552734375 410.056640625 411.727539062 406.374023438 409.177734375 c 0
 402.690429688 406.627929688 397.44921875 403.0859375 390.6484375 398.552734375 c 0
 383.848632812 394.01953125 379.315429688 390.90234375 377.048828125 389.202148438 c 1
 398.015625 380.135742188 416.432617188 369.935546875 432.299804688 358.602539062 c 0
 448.166992188 347.26953125 460.774414062 336.077148438 470.125 325.02734375 c 0
 479.474609375 313.977539062 486.982421875 302.219726562 492.649414062 289.752929688 c 0
 498.31640625 277.286132812 502.141601562 266.09375 504.125 256.176757812 c 0
 506.107421875 246.259765625 507.099609375 235.91796875 507.099609375 225.151367188 c 0xc4
191.745117188 509.0546875 m 0xd8
 191.745117188 490.35546875 200.387695312 473.780273438 217.670898438 459.330078125 c 0
 234.953125 444.879882812 263.428710938 430.288085938 303.095703125 415.5546875 c 1
 326.895507812 425.188476562 347.862304688 438.221679688 365.995117188 454.654296875 c 0
 384.12890625 471.086914062 393.1953125 486.387695312 393.1953125 500.5546875 c 0
 393.1953125 516.420898438 388.662109375 532.00390625 379.595703125 547.3046875 c 0
 370.528320312 562.604492188 357.920898438 575.354492188 341.770507812 585.5546875 c 0
 325.620117188 595.75390625 308.1953125 600.854492188 289.495117188 600.854492188 c 0
 262.862304688 600.854492188 239.912109375 591.362304688 220.645507812 572.37890625 c 0
 201.37890625 553.396484375 191.745117188 532.288085938 191.745117188 509.0546875 c 0xd8
289.495117188 101.0546875 m 0
 305.928710938 101.0546875 322.361328125 103.458984375 338.793945312 108.276367188 c 0
 355.2265625 113.092773438 370.1015625 120.03515625 383.418945312 129.1015625 c 0
 396.736328125 138.168945312 407.502929688 150.068359375 415.719726562 164.801757812 c 0
 423.936523438 179.53515625 428.044921875 195.118164062 428.044921875 211.55078125 c 0
 428.044921875 220.618164062 427.194335938 229.259765625 425.495117188 237.4765625 c 0
 423.794921875 245.693359375 420.39453125 255.185546875 415.294921875 265.952148438 c 0
 410.194335938 276.719726562 403.111328125 286.63671875 394.044921875 295.703125 c 0
 384.977539062 304.770507812 372.370117188 314.262695312 356.219726562 324.1796875 c 0
 340.069335938 334.096679688 321.227539062 343.021484375 299.694335938 350.954101562 c 1
 258.89453125 340.1875 225.745117188 321.487304688 200.245117188 294.854492188 c 0
 174.745117188 268.221679688 161.995117188 239.887695312 161.995117188 209.85546875 c 0xe4
 161.995117188 188.887695312 168.370117188 169.905273438 181.120117188 152.905273438 c 0
 193.870117188 135.905273438 209.877929688 123.012695312 229.14453125 114.23046875 c 0
 248.412109375 105.447265625 268.528320312 101.0546875 289.495117188 101.0546875 c 0
EndSplineSet
Validated: 524289
EndChar

StartChar: nine
Encoding: 57 57 25
Width: 550
VWidth: 903
GlyphClass: 2
Flags: HMW
HStem: 34.7222 17.85G 253.495 75.65 610.492 71.4042
VStem: 93.082 83.3042 427.276 74.7089
LayerCount: 2
Fore
SplineSet
201.030273438 35.0458984375 m 0
 198.545898438 34.830078125 196.1171875 34.720703125 193.74609375 34.720703125 c 0
 183.6796875 34.720703125 174.63671875 36.66796875 166.610351562 40.5673828125 c 0
 156.693359375 45.3837890625 151.168945312 53.17578125 150.036132812 63.943359375 c 0
 149.46875 71.3095703125 152.7265625 78.9599609375 159.809570312 86.892578125 c 0
 166.892578125 94.826171875 175.250976562 100.208984375 184.883789062 103.041992188 c 0
 191.1171875 104.7421875 201.174804688 107.008789062 215.05859375 109.841796875 c 0
 228.94140625 112.674804688 241.408203125 115.650390625 252.458007812 118.766601562 c 0
 263.5078125 121.883789062 275.975585938 125.9921875 289.858398438 131.091796875 c 0
 303.741210938 136.192382812 317.19921875 143.275390625 330.232421875 152.341796875 c 0
 343.265625 161.409179688 355.166015625 172.17578125 365.932617188 184.642578125 c 0
 380.099609375 201.076171875 392.70703125 220.201171875 403.7578125 242.017578125 c 0
 414.807617188 263.834960938 422.599609375 283.526367188 427.1328125 301.09375 c 1
 411.265625 282.9609375 390.865234375 270.494140625 365.932617188 263.693359375 c 0
 340.999023438 256.893554688 310.399414062 253.494140625 274.1328125 253.494140625 c 0
 249.19921875 253.494140625 225.399414062 259.301757812 202.732421875 270.918945312 c 0
 180.065429688 282.536132812 160.798828125 297.977539062 144.931640625 317.244140625 c 0
 129.064453125 336.51171875 116.45703125 358.75390625 107.106445312 383.970703125 c 0
 97.7568359375 409.1875 93.08203125 434.829101562 93.08203125 460.896484375 c 0
 93.08203125 492.62890625 98.46484375 522.237304688 109.231445312 549.720703125 c 0
 119.999023438 577.203125 134.448242188 600.578125 152.58203125 619.845703125 c 0
 170.71484375 639.112304688 192.248046875 654.270507812 217.180664062 665.3203125 c 0
 242.114257812 676.370117188 268.747070312 681.895507812 297.080078125 681.895507812 c 0
 366.780273438 681.895507812 418.629882812 655.544921875 452.629882812 602.845703125 c 0
 485.533203125 551.845703125 501.984375 479.3515625 501.984375 385.364257812 c 0
 501.984375 382.232421875 501.966796875 379.076171875 501.9296875 375.896484375 c 0
 501.36328125 330.563476562 495.696289062 289.62109375 484.928710938 253.071289062 c 0
 474.162109375 216.521484375 459.711914062 185.49609375 441.579101562 159.99609375 c 0
 423.446289062 134.49609375 401.771484375 112.6796875 376.553710938 94.5458984375 c 0
 351.336914062 76.4130859375 324.13671875 62.6708984375 294.954101562 53.3212890625 c 0
 265.771484375 43.9716796875 234.462890625 37.87890625 201.030273438 35.0458984375 c 0
176.384765625 471.090820312 m 0
 176.384765625 424.623046875 186.440429688 389.350585938 206.557617188 365.267578125 c 0
 226.674804688 341.184570312 256.56640625 329.142578125 296.233398438 329.142578125 c 0
 321.166015625 329.142578125 345.533203125 334.809570312 369.333007812 346.142578125 c 0
 393.1328125 357.475585938 412.400390625 373.05859375 427.1328125 392.891601562 c 0
 427.227539062 395.631835938 427.275390625 398.608398438 427.275390625 401.822265625 c 0
 427.275390625 417.876953125 426.094726562 439.833007812 423.734375 467.69140625 c 0
 422.6015625 480.158203125 420.193359375 492.766601562 416.509765625 505.516601562 c 0
 412.827148438 518.266601562 407.301757812 531.158203125 399.934570312 544.19140625 c 0
 392.568359375 557.224609375 384.068359375 568.557617188 374.434570312 578.190429688 c 0
 364.801757812 587.823242188 353.184570312 595.615234375 339.584960938 601.565429688 c 0
 325.985351562 607.515625 311.53515625 610.490234375 296.235351562 610.490234375 c 0
 275.267578125 610.490234375 255.434570312 603.690429688 236.735351562 590.090820312 c 0
 218.03515625 576.490234375 203.301757812 559.065429688 192.53515625 537.815429688 c 0
 181.767578125 516.565429688 176.384765625 494.323242188 176.384765625 471.090820312 c 0
EndSplineSet
Validated: 524289
EndChar

StartChar: colon
Encoding: 58 58 26
Width: 550
VWidth: 887
GlyphClass: 2
Flags: HMW
HStem: 71.5573 131.832 298.516 131.827
VStem: 242.462 108.541
LayerCount: 2
Fore
SplineSet
350.693359375 392.092773438 m 0
 350.899414062 388.692382812 351.002929688 385.254882812 351.002929688 381.780273438 c 0
 351.002929688 366.142578125 348.916992188 349.745117188 344.744140625 332.58984375 c 0
 341.911132812 321.256835938 335.677734375 312.615234375 326.044921875 306.665039062 c 0
 317.249023438 301.233398438 308.690429688 298.515625 300.3671875 298.515625 c 0
 299.57421875 298.515625 298.783203125 298.541015625 297.994140625 298.58984375 c 0
 263.994140625 300.290039062 245.861328125 313.323242188 243.594726562 337.690429688 c 0
 242.838867188 347.887695312 242.461914062 359.97265625 242.461914062 373.946289062 c 0
 242.461914062 380.9375 242.556640625 388.40234375 242.745117188 396.33984375 c 0
 242.745117188 403.70703125 244.870117188 409.798828125 249.120117188 414.616210938 c 0
 253.370117188 419.432617188 258.612304688 422.974609375 264.845703125 425.241210938 c 0
 271.078125 427.508789062 277.028320312 428.92578125 282.6953125 429.4921875 c 0
 288.362304688 430.059570312 293.745117188 430.342773438 298.845703125 430.342773438 c 0
 303.9453125 430.342773438 309.1875 429.775390625 314.5703125 428.642578125 c 0
 319.953125 427.509765625 325.336914062 425.666992188 330.719726562 423.1171875 c 0
 336.102539062 420.567382812 340.635742188 416.600585938 344.318359375 411.217773438 c 0
 348.001953125 405.833984375 350.126953125 399.458984375 350.693359375 392.092773438 c 0
351.543945312 165.139648438 m 0
 352.818359375 157.704101562 353.455078125 150.1875 353.455078125 142.591796875 c 0
 353.455078125 129.927734375 351.68359375 117.04296875 348.142578125 103.936523438 c 0
 345.30859375 92.603515625 338.225585938 84.2451171875 326.892578125 78.8623046875 c 0
 316.639648438 73.9921875 307.08203125 71.556640625 298.220703125 71.556640625 c 0
 297.287109375 71.556640625 296.362304688 71.583984375 295.443359375 71.638671875 c 0
 284.110351562 72.205078125 273.060546875 75.7470703125 262.293945312 82.263671875 c 0
 251.526367188 88.78125 245.577148438 97.9892578125 244.443359375 109.888671875 c 0
 243.876953125 121.7890625 243.452148438 129.296875 243.168945312 132.4140625 c 0
 242.885742188 135.53125 243.168945312 141.338867188 244.018554688 149.838867188 c 0
 244.869140625 158.338867188 245.293945312 164.856445312 245.293945312 169.388671875 c 0
 245.293945312 176.189453125 247.276367188 182.138671875 251.244140625 187.239257812 c 0
 255.2109375 192.338867188 260.168945312 195.880859375 266.119140625 197.864257812 c 0
 272.068359375 199.84765625 277.876953125 201.263671875 283.543945312 202.114257812 c 0
 289.2109375 202.963867188 294.59375 203.388671875 299.693359375 203.388671875 c 0
 306.494140625 203.388671875 313.293945312 202.397460938 320.09375 200.4140625 c 0
 326.893554688 198.430664062 333.411132812 194.323242188 339.643554688 188.08984375 c 0
 345.876953125 181.856445312 349.84375 174.20703125 351.543945312 165.139648438 c 0
EndSplineSet
Validated: 524289
EndChar

StartChar: semicolon
Encoding: 59 59 27
Width: 550
VWidth: 864
GlyphClass: 2
Flags: HMW
HStem: 239.748 131.824
VStem: 267.9 108.543
LayerCount: 2
Fore
SplineSet
376.134765625 333.323242188 m 0
 376.340820312 329.923828125 376.444335938 326.48828125 376.444335938 323.013671875 c 0
 376.444335938 307.375 374.357421875 290.977539062 370.184570312 273.822265625 c 0
 367.3515625 262.489257812 361.259765625 253.846679688 351.909179688 247.896484375 c 0
 343.373046875 242.46484375 334.717773438 239.748046875 325.944335938 239.748046875 c 0
 325.108398438 239.748046875 324.271484375 239.7734375 323.434570312 239.822265625 c 0
 316.067382812 240.388671875 308.559570312 241.947265625 300.909179688 244.497070312 c 0
 293.259765625 247.046875 286.17578125 251.438476562 279.659179688 257.671875 c 0
 273.142578125 263.905273438 269.600585938 271.271484375 269.033203125 279.771484375 c 0
 268.278320312 289.969726562 267.900390625 302.0546875 267.900390625 316.028320312 c 0
 267.900390625 323.01953125 267.995117188 330.484375 268.184570312 338.421875 c 0
 268.184570312 345.221679688 270.166992188 351.171875 274.134765625 356.271484375 c 0
 278.1015625 361.372070312 283.342773438 364.9140625 289.860351562 366.896484375 c 0
 296.376953125 368.879882812 302.610351562 370.296875 308.560546875 371.146484375 c 0
 314.509765625 371.997070312 319.751953125 372.138671875 324.28515625 371.572265625 c 0
 329.384765625 371.572265625 334.485351562 371.146484375 339.584960938 370.296875 c 0
 344.685546875 369.447265625 350.068359375 367.60546875 355.735351562 364.771484375 c 0
 361.40234375 361.938476562 366.077148438 357.831054688 369.759765625 352.448242188 c 0
 373.443359375 347.064453125 375.568359375 340.689453125 376.134765625 333.323242188 c 0
359.984375 77.47265625 m 0
 358.8515625 59.33984375 340.434570312 -14.611328125 304.734375 -144.377929688 c 0
 301.901367188 -156.278320312 296.092773438 -164.919921875 287.310546875 -170.302734375 c 0
 279.364257812 -175.172851562 271.30078125 -177.608398438 263.122070312 -177.608398438 c 0
 262.260742188 -177.608398438 261.3984375 -177.581054688 260.534179688 -177.52734375 c 0
 249.201171875 -176.959960938 239.143554688 -173.27734375 230.360351562 -166.477539062 c 0
 222.581054688 -160.454101562 218.690429688 -152.430664062 218.690429688 -142.40625 c 0
 218.690429688 -131.724609375 225.407226562 -94.421875 236.734375 -38.9775390625 c 0
 247.500976562 13.72265625 256.000976562 53.9560546875 262.234375 81.72265625 c 0
 263.934570312 90.22265625 266.484375 97.0224609375 269.884765625 102.123046875 c 0
 273.284179688 107.22265625 277.109375 110.623046875 281.359375 112.323242188 c 0
 285.609375 114.022460938 290.142578125 115.15625 294.958984375 115.72265625 c 0
 299.776367188 116.290039062 303.884765625 116.290039062 307.284179688 115.72265625 c 0
 312.384765625 115.72265625 317.909179688 115.014648438 323.859375 113.59765625 c 0
 329.809570312 112.180664062 335.759765625 110.198242188 341.708984375 107.647460938 c 0
 347.659179688 105.09765625 352.333984375 101.272460938 355.734375 96.1728515625 c 0
 359.134765625 91.0732421875 360.55078125 84.83984375 359.984375 77.47265625 c 0
EndSplineSet
Validated: 524289
EndChar

StartChar: less
Encoding: 60 60 28
Width: 550
VWidth: 902
GlyphClass: 2
Flags: HMW
HStem: 41.9717 17.85G
LayerCount: 2
Fore
SplineSet
506.244140625 64.4111328125 m 0
 503.411132812 58.744140625 499.161132812 53.9296875 493.494140625 49.962890625 c 0
 487.827148438 45.9951171875 480.318359375 43.4453125 470.96875 42.3125 c 0
 469.099609375 42.0859375 467.14453125 41.97265625 465.10546875 41.97265625 c 0
 456.944335938 41.97265625 447.424804688 43.7861328125 436.543945312 47.412109375 c 0
 422.376953125 51.9453125 404.952148438 61.8623046875 384.268554688 77.162109375 c 0
 363.5859375 92.462890625 341.203125 110.737304688 317.120117188 131.987304688 c 0
 293.037109375 153.237304688 269.094726562 174.912109375 245.294921875 197.012695312 c 0
 221.495117188 219.112304688 196.419921875 241.920898438 170.069335938 265.4375 c 0
 143.719726562 288.954101562 121.477539062 307.229492188 103.344726562 320.262695312 c 0
 95.9775390625 325.362304688 91.1611328125 333.012695312 88.8935546875 343.212890625 c 0
 87.8271484375 348.01171875 87.29296875 352.717773438 87.29296875 357.330078125 c 0
 87.29296875 362.517578125 87.96875 367.586914062 89.318359375 372.537109375 c 0
 91.8681640625 381.88671875 96.826171875 388.544921875 104.193359375 392.51171875 c 0
 136.493164062 416.311523438 174.318359375 446.203125 217.66796875 482.186523438 c 0
 261.017578125 518.169921875 300.684570312 550.752929688 336.66796875 579.935546875 c 0
 372.651367188 609.119140625 404.526367188 632.2109375 432.29296875 649.2109375 c 0
 441.360351562 654.877929688 449.717773438 657.852539062 457.368164062 658.135742188 c 0
 465.017578125 658.418945312 471.67578125 657.001953125 477.342773438 653.884765625 c 0
 483.009765625 650.767578125 487.967773438 646.943359375 492.217773438 642.41015625 c 0
 496.467773438 637.876953125 499.7265625 633.059570312 501.993164062 627.959960938 c 0
 504.231445312 623.73046875 505.3515625 619.473632812 505.3515625 615.190429688 c 0
 505.3515625 609.716796875 503.5234375 604.198242188 499.868164062 598.634765625 c 0
 493.3515625 588.717773438 480.743164062 576.959960938 462.04296875 563.360351562 c 0
 430.309570312 541.259765625 382.001953125 504.993164062 317.119140625 454.559570312 c 0
 252.235351562 404.126953125 211.293945312 372.110351562 194.293945312 358.509765625 c 1
 216.393554688 341.509765625 240.760742188 320.967773438 267.393554688 296.884765625 c 0
 294.02734375 272.801757812 317.827148438 250.985351562 338.793945312 231.434570312 c 0
 359.760742188 211.884765625 382.143554688 191.91015625 405.943359375 171.509765625 c 0
 429.744140625 151.110351562 450.143554688 134.959960938 467.143554688 123.059570312 c 0
 485.27734375 111.16015625 497.318359375 100.818359375 503.268554688 92.03515625 c 0
 506.838867188 86.7646484375 508.625 81.341796875 508.625 75.7666015625 c 0
 508.625 72.048828125 507.831054688 68.263671875 506.244140625 64.4111328125 c 0
EndSplineSet
Validated: 524289
EndChar

StartChar: equal
Encoding: 61 61 29
Width: 550
VWidth: 908
GlyphClass: 2
Flags: HMW
HStem: 268.077 70.55 434.679 72.3116
LayerCount: 2
Fore
SplineSet
175.594726562 506.9296875 m 0
 207.89453125 505.796875 241.1875 505.2265625 275.470703125 505.2265625 c 0
 309.75390625 505.2265625 341.771484375 505.509765625 371.521484375 506.077148438 c 0
 401.271484375 506.643554688 418.979492188 506.926757812 424.646484375 506.926757812 c 0
 437.678710938 506.926757812 446.88671875 504.09375 452.270507812 498.426757812 c 0
 457.653320312 492.759765625 460.627929688 485.109375 461.1953125 475.4765625 c 0
 461.1953125 470.376953125 460.627929688 465.702148438 459.495117188 461.452148438 c 0
 458.362304688 457.202148438 456.662109375 453.09375 454.395507812 449.126953125 c 0
 452.127929688 445.16015625 448.4453125 442.184570312 443.344726562 440.202148438 c 0
 438.245117188 438.21875 432.01171875 437.510742188 424.645507812 438.077148438 c 0
 411.038085938 438.456054688 396.990234375 438.645507812 382.500976562 438.645507812 c 0
 375.267578125 438.645507812 367.923828125 438.59765625 360.469726562 438.502929688 c 0
 338.0859375 438.220703125 307.061523438 437.512695312 267.39453125 436.37890625 c 0
 227.727539062 435.24609375 198.543945312 434.6796875 179.844726562 434.6796875 c 0
 165.677734375 434.6796875 154.626953125 438.079101562 146.694335938 444.87890625 c 0
 134.84375 455.038085938 134.728515625 465.779296875 134.728515625 471.984375 c 0
 134.728515625 481.681640625 137.8671875 489.9296875 144.14453125 496.73046875 c 0
 150.458984375 503.5703125 159.948242188 506.990234375 172.61328125 506.990234375 c 0
 173.587890625 506.990234375 174.58203125 506.970703125 175.594726562 506.9296875 c 0
178.146484375 338.626953125 m 0
 193.094726562 338.4375 208.865234375 338.342773438 225.45703125 338.342773438 c 0
 258.552734375 338.342773438 294.916015625 338.719726562 334.546875 339.474609375 c 0
 394.046875 340.607421875 424.080078125 341.173828125 424.646484375 341.173828125 c 0
 437.6796875 341.173828125 446.887695312 338.19921875 452.271484375 332.249023438 c 0
 457.654296875 326.298828125 460.62890625 318.506835938 461.196289062 308.874023438 c 0
 461.196289062 303.774414062 460.62890625 299.099609375 459.49609375 294.849609375 c 0
 458.36328125 290.599609375 456.663085938 286.491210938 454.396484375 282.524414062 c 0
 452.12890625 278.557617188 448.446289062 275.58203125 443.345703125 273.599609375 c 0
 438.24609375 271.616210938 432.012695312 270.908203125 424.646484375 271.474609375 c 0
 411.0390625 271.853515625 396.866210938 272.04296875 382.124023438 272.04296875 c 0
 374.764648438 272.04296875 367.263671875 271.995117188 359.62109375 271.901367188 c 0
 336.670898438 271.618164062 305.079101562 270.91015625 264.845703125 269.776367188 c 0
 224.61328125 268.643554688 195.146484375 268.077148438 176.446289062 268.077148438 c 0
 162.279296875 268.077148438 151.795898438 271.619140625 144.99609375 278.702148438 c 0
 135.325195312 288.774414062 134.735351562 299.581054688 134.735351562 306.66796875 c 0
 134.735351562 315.40625 138.155273438 322.80078125 144.99609375 328.8515625 c 0
 152.36328125 335.369140625 163.413085938 338.626953125 178.146484375 338.626953125 c 0
EndSplineSet
Validated: 524289
EndChar

StartChar: greater
Encoding: 62 62 30
Width: 550
VWidth: 903
GlyphClass: 2
Flags: W
LayerCount: 2
Fore
SplineSet
163.723632812 57.818359375 m 0
 155.223632812 52.71875 147.004882812 49.8857421875 139.072265625 49.3193359375 c 0
 131.138671875 48.751953125 124.338867188 50.02734375 118.671875 53.14453125 c 0
 113.004882812 56.2607421875 108.1875 60.0859375 104.220703125 64.619140625 c 0
 100.25390625 69.15234375 97.13671875 73.96875 94.8701171875 79.0693359375 c 0
 92.5751953125 83.404296875 91.427734375 87.767578125 91.427734375 92.1591796875 c 0
 91.427734375 97.52734375 93.1416015625 102.938476562 96.5703125 108.393554688 c 0
 102.803710938 118.310546875 115.553710938 130.068359375 134.8203125 143.66796875 c 0
 166.553710938 165.768554688 214.719726562 202.03515625 279.3203125 252.46875 c 0
 343.919921875 302.901367188 385.287109375 334.91796875 403.419921875 348.518554688 c 1
 381.3203125 365.518554688 356.528320312 386.060546875 329.044921875 410.143554688 c 0
 301.5625 434.2265625 277.620117188 456.04296875 257.219726562 475.59375 c 0
 236.8203125 495.143554688 214.719726562 515.118164062 190.919921875 535.518554688 c 0
 167.120117188 555.91796875 146.153320312 572.068359375 128.020507812 583.96875 c 0
 109.88671875 595.868164062 97.8447265625 606.209960938 91.8955078125 614.993164062 c 0
 88.5185546875 619.977539062 86.830078125 625.099609375 86.830078125 630.358398438 c 0
 86.830078125 634.365234375 87.810546875 638.451171875 89.771484375 642.6171875 c 0
 92.6044921875 648.283203125 96.7119140625 653.100585938 102.094726562 657.067382812 c 0
 107.478515625 661.034179688 115.127929688 663.584960938 125.044921875 664.717773438 c 0
 127.028320312 664.944335938 129.073242188 665.056640625 131.180664062 665.056640625 c 0
 139.614257812 665.056640625 149.043945312 663.244140625 159.469726562 659.6171875 c 0
 173.63671875 655.084960938 191.204101562 645.309570312 212.170898438 630.29296875 c 0
 233.137695312 615.275390625 255.663085938 597.000976562 279.74609375 575.467773438 c 0
 303.829101562 553.934570312 327.771484375 532.1171875 351.571289062 510.017578125 c 0
 375.37109375 487.91796875 400.303710938 465.250976562 426.37109375 442.017578125 c 0
 452.4375 418.784179688 475.104492188 400.3671875 494.372070312 386.767578125 c 0
 501.171875 381.66796875 505.705078125 374.017578125 507.971679688 363.817382812 c 0
 508.979492188 359.283203125 509.483398438 354.833984375 509.483398438 350.467773438 c 0
 509.483398438 345.01171875 508.696289062 339.686523438 507.123046875 334.4921875 c 0
 504.290039062 325.142578125 499.47265625 318.484375 492.672851562 314.517578125 c 0
 460.373046875 290.717773438 422.547851562 260.825195312 379.197265625 224.842773438 c 0
 335.84765625 188.859375 296.180664062 156.276367188 260.197265625 127.09375 c 0
 224.21484375 97.91015625 192.056640625 74.818359375 163.723632812 57.818359375 c 0
EndSplineSet
Validated: 524289
EndChar

StartChar: question
Encoding: 63 63 31
Width: 550
VWidth: 903
GlyphClass: 2
Flags: HMW
HStem: 40.6768 131.413 595.357 71.4009
VStem: 209.548 138.55 389.75 84.15
LayerCount: 2
Fore
SplineSet
324.30078125 275.7578125 m 0
 322.034179688 261.024414062 316.788085938 249.688476562 308.571289062 241.754882812 c 0
 303.09375 236.466796875 296.041992188 233.822265625 287.416992188 233.822265625 c 0
 283.103515625 233.822265625 278.397460938 234.483398438 273.297851562 235.805664062 c 0
 257.430664062 239.772460938 246.947265625 247.139648438 241.84765625 257.907226562 c 0
 239.147460938 263.606445312 237.797851562 270.338867188 237.797851562 278.103515625 c 0
 237.797851562 285.005859375 238.864257812 292.723632812 240.997070312 301.256835938 c 0
 244.963867188 316.556640625 250.772460938 331.006835938 258.422851562 344.606445312 c 0
 266.072265625 358.20703125 274.430664062 369.823242188 283.497070312 379.45703125 c 0
 292.564453125 389.08984375 302.056640625 398.297851562 311.973632812 407.081054688 c 0
 321.890625 415.864257812 331.381835938 424.081054688 340.44921875 431.73046875 c 0
 349.515625 439.380859375 357.733398438 447.172851562 365.099609375 455.10546875 c 0
 372.466796875 463.0390625 378.416992188 471.680664062 382.950195312 481.03125 c 0
 387.483398438 490.380859375 389.75 500.439453125 389.75 511.206054688 c 0
 389.75 540.672851562 381.108398438 562.064453125 363.825195312 575.381835938 c 0
 346.541992188 588.698242188 322.034179688 595.356445312 290.30078125 595.356445312 c 0
 282.3671875 595.356445312 274.434570312 593.514648438 266.501953125 589.83203125 c 0
 258.568359375 586.1484375 251.626953125 582.041015625 245.676757812 577.5078125 c 0
 239.7265625 572.974609375 233.493164062 566.8828125 226.9765625 559.232421875 c 0
 220.459960938 551.583007812 215.359375 545.065429688 211.676757812 539.682617188 c 0
 207.993164062 534.299804688 203.6015625 527.924804688 198.501953125 520.557617188 c 0
 193.401367188 513.190429688 188.584960938 507.3828125 184.051757812 503.1328125 c 0
 179.518554688 498.8828125 174.701171875 496.615234375 169.6015625 496.333007812 c 0
 164.501953125 496.049804688 159.96875 496.333007812 156.001953125 497.182617188 c 0
 152.034179688 498.032226562 146.934570312 499.875 140.701171875 502.708007812 c 0
 131.068359375 507.807617188 124.9765625 515.174804688 122.426757812 524.807617188 c 0
 121.770507812 527.284179688 121.443359375 529.94921875 121.443359375 532.80078125 c 0
 121.443359375 541.040039062 124.178710938 550.841796875 129.651367188 562.208007812 c 0
 135.884765625 574.107421875 143.392578125 585.583007812 152.17578125 596.6328125 c 0
 160.958984375 607.682617188 171.8671875 618.732421875 184.899414062 629.782226562 c 0
 197.932617188 640.833007812 213.375 649.7578125 231.224609375 656.557617188 c 0
 249.075195312 663.357421875 267.6328125 666.7578125 286.899414062 666.7578125 c 0
 348.099609375 666.7578125 394.56640625 652.590820312 426.299804688 624.2578125 c 0
 458.033203125 595.924804688 473.899414062 553.424804688 473.899414062 496.7578125 c 0
 473.899414062 481.458007812 471.4921875 467.57421875 466.674804688 455.107421875 c 0
 461.858398438 442.640625 455.483398438 431.874023438 447.549804688 422.806640625 c 0
 439.6171875 413.740234375 430.69140625 405.240234375 420.774414062 397.306640625 c 0
 410.858398438 389.374023438 400.658203125 381.440429688 390.174804688 373.5078125 c 0
 379.69140625 365.57421875 370.05859375 357.357421875 361.275390625 348.857421875 c 0
 352.4921875 340.357421875 344.701171875 329.732421875 337.900390625 316.982421875 c 0
 331.100585938 304.232421875 326.567382812 290.490234375 324.30078125 275.7578125 c 0
280.947265625 41.154296875 m 0
 278.00390625 40.8359375 275.134765625 40.6767578125 272.341796875 40.6767578125 c 0
 255.2421875 40.6767578125 240.96875 46.6416015625 229.522460938 58.576171875 c 0
 216.205078125 72.458984375 209.547851562 88.7509765625 209.547851562 107.451171875 c 0
 209.547851562 125.017578125 216.772460938 140.03515625 231.22265625 152.501953125 c 0
 245.672851562 164.96875 262.247070312 171.485351562 280.947265625 172.052734375 c 0
 281.829101562 172.077148438 282.704101562 172.08984375 283.571289062 172.08984375 c 0
 302.209960938 172.08984375 317.485351562 166.26953125 329.397460938 154.62890625 c 0
 341.864257812 142.4453125 348.09765625 127.00390625 348.09765625 108.303710938 c 0
 348.09765625 90.169921875 342.005859375 75.0126953125 329.822265625 62.8291015625 c 0
 317.639648438 50.646484375 301.34765625 43.4208984375 280.947265625 41.154296875 c 0
EndSplineSet
Validated: 524289
EndChar

StartChar: at
Encoding: 64 64 32
Width: 550
VWidth: 893
GlyphClass: 2
Flags: HMW
HStem: -66.7682 72.4013 129.738 66.2958 143.338 67.995 366.887 65.5635 564.081 76.5066
VStem: 78.694 73.9525 183.245 65.4491 337.943 68.0017 455.246 62.0483
LayerCount: 2
Fore
SplineSet
473.94921875 47.2861328125 m 0xdf80
 471.116210938 39.353515625 468.134765625 32.4111328125 465.018554688 26.4609375 c 0
 461.901367188 20.5107421875 457.651367188 13.1435546875 452.268554688 4.3603515625 c 0
 446.884765625 -4.4228515625 441.217773438 -11.9306640625 435.268554688 -18.1630859375 c 0
 429.318359375 -24.396484375 421.526367188 -30.771484375 411.893554688 -37.2880859375 c 0
 402.259765625 -43.8056640625 391.91796875 -49.1884765625 380.868164062 -53.4384765625 c 0
 369.818359375 -57.6884765625 356.643554688 -61.0888671875 341.342773438 -63.638671875 c 0
 328.825195312 -65.724609375 315.549804688 -66.767578125 301.514648438 -66.767578125 c 0
 298.39453125 -66.767578125 295.23828125 -66.716796875 292.04296875 -66.61328125 c 0
 262.009765625 -66.61328125 233.959960938 -59.24609375 207.893554688 -44.513671875 c 0
 181.826171875 -29.7802734375 159.301757812 -9.23828125 140.318359375 17.111328125 c 0
 121.334960938 43.4619140625 106.318359375 75.478515625 95.2685546875 113.161132812 c 0
 84.2177734375 150.844726562 78.693359375 192.069335938 78.693359375 236.836914062 c 0
 78.693359375 286.703125 82.5185546875 333.169921875 90.16796875 376.237304688 c 0
 97.818359375 419.3046875 108.7265625 456.846679688 122.893554688 488.86328125 c 0
 137.060546875 520.879882812 153.77734375 548.36328125 173.043945312 571.313476562 c 0
 192.310546875 594.263671875 213.560546875 611.545898438 236.793945312 623.163085938 c 0
 260.02734375 634.780273438 284.39453125 640.587890625 309.89453125 640.587890625 c 0
 329.161132812 640.587890625 346.444335938 639.030273438 361.744140625 635.913085938 c 0
 377.043945312 632.795898438 391.918945312 627.696289062 406.369140625 620.61328125 c 0
 420.819335938 613.530273438 433.569335938 604.038085938 444.619140625 592.138671875 c 0
 455.668945312 580.23828125 465.869140625 565.36328125 475.21875 547.513671875 c 0
 484.569335938 529.663085938 492.21875 508.837890625 498.168945312 485.038085938 c 0
 504.119140625 461.23828125 508.793945312 433.188476562 512.194335938 400.888671875 c 0
 515.59375 368.587890625 517.293945312 332.321289062 517.293945312 292.087890625 c 0
 517.293945312 271.688476562 515.736328125 252.280273438 512.619140625 233.86328125 c 0
 509.501953125 215.446289062 504.96875 198.163085938 499.01953125 182.013671875 c 0
 493.069335938 165.86328125 484.286132812 153.11328125 472.668945312 143.763671875 c 0
 461.051757812 134.413085938 447.59375 129.73828125 432.293945312 129.73828125 c 0xdf80
 391.494140625 129.73828125 368.543945312 153.538085938 363.444335938 201.138671875 c 1
 350.411132812 162.60546875 325.760742188 143.337890625 289.494140625 143.337890625 c 0
 256.060546875 143.337890625 229.994140625 153.821289062 211.293945312 174.788085938 c 0
 192.59375 195.754882812 183.244140625 227.772460938 183.244140625 270.838867188 c 0
 183.244140625 292.372070312 185.65234375 312.205078125 190.46875 330.337890625 c 0
 195.286132812 348.471679688 201.802734375 363.913085938 210.01953125 376.663085938 c 0
 218.237304688 389.413085938 227.870117188 400.1796875 238.919921875 408.962890625 c 0
 249.969726562 417.74609375 262.01171875 423.979492188 275.044921875 427.662109375 c 0
 286.33984375 430.853515625 297.846679688 432.450195312 309.567382812 432.450195312 c 0
 311.372070312 432.450195312 313.181640625 432.412109375 314.99609375 432.336914062 c 0
 328.595703125 431.76953125 342.1953125 428.65234375 355.795898438 422.985351562 c 0
 368.829101562 417.885742188 379.311523438 411.0859375 387.245117188 402.5859375 c 0
 395.177734375 394.0859375 397.161132812 386.435546875 393.194335938 379.635742188 c 0
 390.926757812 375.102539062 388.376953125 371.419921875 385.543945312 368.586914062 c 0
 382.7109375 365.75390625 379.310546875 363.770507812 375.34375 362.637695312 c 0
 371.376953125 361.50390625 367.694335938 360.654296875 364.293945312 360.086914062 c 0
 360.89453125 359.520507812 356.64453125 359.662109375 351.543945312 360.512695312 c 0
 346.444335938 361.362304688 342.477539062 362.0703125 339.64453125 362.637695312 c 0
 336.810546875 363.204101562 332.560546875 364.336914062 326.89453125 366.037109375 c 0
 319.52734375 367.169921875 312.301757812 367.453125 305.21875 366.88671875 c 0
 298.135742188 366.319335938 291.194335938 363.911132812 284.39453125 359.661132812 c 0
 277.59375 355.411132812 271.64453125 350.028320312 266.543945312 343.51171875 c 0
 261.444335938 336.994140625 257.194335938 328.352539062 253.793945312 317.5859375 c 0
 250.39453125 306.818359375 248.694335938 294.635742188 248.694335938 281.036132812 c 0
 248.694335938 273.668945312 249.119140625 266.7265625 249.96875 260.209960938 c 0
 250.819335938 253.693359375 252.51953125 246.326171875 255.069335938 238.109375 c 0
 257.619140625 229.892578125 261.5859375 223.375 266.96875 218.55859375 c 0
 272.352539062 213.741210938 279.009765625 211.333007812 286.943359375 211.333007812 c 0xbf80
 305.076171875 211.333007812 317.826171875 218.275390625 325.193359375 232.158203125 c 0
 332.560546875 246.041015625 336.810546875 269.1328125 337.943359375 301.43359375 c 0
 337.943359375 310.5 345.310546875 317.8671875 360.04296875 323.534179688 c 0
 369.229492188 327.142578125 377.561523438 328.947265625 385.038085938 328.947265625 c 0
 390.475585938 328.947265625 395.4609375 327.9921875 399.994140625 326.083984375 c 0
 407.361328125 323.250976562 410.477539062 317.583984375 409.344726562 309.083984375 c 0
 407.078125 289.061523438 405.9453125 271.999023438 405.9453125 257.89453125 c 0
 405.9453125 250.84375 406.227539062 244.53125 406.794921875 238.958984375 c 0
 408.495117188 222.2421875 411.328125 210.909179688 415.294921875 204.958984375 c 0
 419.26171875 199.008789062 424.928710938 196.034179688 432.295898438 196.034179688 c 0
 436.829101562 196.034179688 440.795898438 199.716796875 444.1953125 207.083984375 c 0
 447.595703125 214.451171875 450.00390625 224.083984375 451.420898438 235.984375 c 0
 452.837890625 247.883789062 453.830078125 258.3671875 454.396484375 267.43359375 c 0
 454.963867188 276.500976562 455.24609375 285.284179688 455.24609375 293.784179688 c 0
 455.24609375 322.68359375 453.971679688 349.317382812 451.421875 373.68359375 c 0
 448.87109375 398.05078125 445.754882812 418.875976562 442.071289062 436.159179688 c 0
 438.388671875 453.442382812 433.430664062 469.025390625 427.197265625 482.908203125 c 0
 420.963867188 496.791015625 415.014648438 508.124023438 409.34765625 516.907226562 c 0
 403.680664062 525.690429688 396.880859375 533.198242188 388.947265625 539.431640625 c 0
 381.014648438 545.665039062 374.072265625 550.33984375 368.122070312 553.45703125 c 0
 362.172851562 556.573242188 355.372070312 558.981445312 347.72265625 560.681640625 c 0
 340.072265625 562.381835938 334.264648438 563.373046875 330.297851562 563.65625 c 0
 326.330078125 563.939453125 321.513671875 564.08203125 315.846679688 564.08203125 c 0
 293.1796875 564.08203125 272.071289062 556.998046875 252.521484375 542.83203125 c 0
 232.971679688 528.665039062 215.688476562 508.97265625 200.671875 483.755859375 c 0
 185.654296875 458.5390625 173.896484375 427.23046875 165.396484375 389.831054688 c 0
 156.896484375 352.430664062 152.646484375 311.630859375 152.646484375 267.430664062 c 0
 152.646484375 228.897460938 155.479492188 194.189453125 161.146484375 163.306640625 c 0
 166.813476562 132.423828125 174.463867188 107.490234375 184.096679688 88.5078125 c 0
 193.729492188 69.5244140625 204.921875 53.5166015625 217.671875 40.4833984375 c 0
 230.421875 27.4501953125 243.171875 18.3828125 255.921875 13.283203125 c 0
 268.671875 8.18359375 281.846679688 5.6328125 295.446289062 5.6328125 c 0
 310.1796875 5.6328125 323.779296875 7.0498046875 336.24609375 9.8828125 c 0
 348.713867188 12.7158203125 359.055664062 16.1162109375 367.272460938 20.0830078125 c 0
 375.489257812 24.0498046875 383.28125 29.43359375 390.6484375 36.2333984375 c 0
 398.015625 43.033203125 403.681640625 49.2666015625 407.649414062 54.93359375 c 0
 411.616210938 60.6005859375 416.149414062 67.966796875 421.249023438 77.0341796875 c 0
 423.515625 81.0009765625 425.499023438 84.1181640625 427.19921875 86.384765625 c 0
 428.899414062 88.6513671875 430.881835938 91.34375 433.149414062 94.4609375 c 0
 435.416015625 97.578125 437.399414062 99.8447265625 439.098632812 101.26171875 c 0
 440.798828125 102.678710938 442.923828125 103.953125 445.473632812 105.086914062 c 0
 448.024414062 106.219726562 450.57421875 106.786132812 453.124023438 106.786132812 c 0
 455.673828125 106.786132812 458.366210938 106.219726562 461.19921875 105.086914062 c 0
 465.732421875 103.38671875 469.556640625 101.26171875 472.673828125 98.7119140625 c 0
 475.791015625 96.1611328125 478.19921875 92.76171875 479.899414062 88.51171875 c 0
 481.598632812 84.26171875 481.881835938 78.5947265625 480.749023438 71.51171875 c 0
 479.616210938 64.4287109375 477.348632812 56.353515625 473.94921875 47.2861328125 c 0xdf80
EndSplineSet
Validated: 524289
EndChar

StartChar: A
Encoding: 65 65 33
Width: 550
VWidth: 903
GlyphClass: 2
Flags: HMW
HStem: 49.2596 17.85G 267.328 68.855
VStem: 71.4412 76.9446
LayerCount: 2
Fore
SplineSet
148.385742188 88.828125 m 2
 142.71875 71.26171875 134.786132812 59.6484375 124.5859375 53.9814453125 c 0
 118.918945312 50.8330078125 113.165039062 49.2587890625 107.322265625 49.2587890625 c 0
 102.649414062 49.2587890625 97.9208984375 50.265625 93.134765625 52.2802734375 c 0
 78.673828125 58.892578125 71.4423828125 72.130859375 71.4423828125 91.998046875 c 0
 71.4423828125 99.3779296875 72.4404296875 107.671875 74.435546875 116.880859375 c 0
 77.8359375 135.013671875 94.2685546875 179.213867188 123.736328125 249.48046875 c 1
 113.536132812 256.280273438 108.435546875 264.498046875 108.435546875 274.130859375 c 0
 107.869140625 282.063476562 111.411132812 289.571289062 119.060546875 296.655273438 c 0
 126.7109375 303.73828125 136.768554688 309.262695312 149.236328125 313.229492188 c 1
 218.935546875 475.296875 272.486328125 583.530273438 309.885742188 637.9296875 c 0
 318.385742188 649.262695312 325.893554688 657.479492188 332.411132812 662.580078125 c 0
 338.927734375 667.6796875 346.15234375 670.229492188 354.0859375 670.229492188 c 0
 356.04296875 670.435546875 357.967773438 670.5390625 359.860351562 670.5390625 c 0
 368.374023438 670.5390625 376.223632812 668.452148438 383.41015625 664.280273438 c 0
 392.193359375 659.1796875 397.434570312 650.396484375 399.134765625 637.9296875 c 0
 411.03515625 567.663085938 431.009765625 468.071289062 459.059570312 339.154296875 c 0
 487.110351562 210.237304688 506.518554688 136.145507812 517.28515625 116.877929688 c 0
 522.0078125 107.905273438 524.369140625 99.62109375 524.369140625 92.025390625 c 0
 524.369140625 90.5078125 524.274414062 89.0166015625 524.0859375 87.552734375 c 0
 522.953125 78.7705078125 520.120117188 71.4033203125 515.586914062 65.453125 c 0
 511.053710938 59.5029296875 505.670898438 55.111328125 499.4375 52.2783203125 c 0
 494.515625 50.2060546875 489.592773438 49.169921875 484.670898438 49.169921875 c 2
 467.135742188 53.5537109375 l 2
 456.369140625 58.9375 447.5859375 70.6953125 440.786132812 88.828125 c 0
 433.418945312 106.395507812 419.251953125 165.895507812 398.28515625 267.328125 c 1
 325.751953125 264.495117188 260.869140625 258.544921875 203.635742188 249.478515625 c 1
 148.385742188 88.828125 l 2
337.0859375 565.682617188 m 1
 312.15234375 527.715820312 276.736328125 447.249023438 230.8359375 324.282226562 c 1
 288.635742188 331.08203125 339.918945312 335.048828125 384.685546875 336.182617188 c 1
 337.0859375 565.682617188 l 1
EndSplineSet
Validated: 524289
EndChar

StartChar: B
Encoding: 66 66 34
Width: 550
VWidth: 901
GlyphClass: 2
Flags: HMW
HStem: 31.9037 17.85G 303.904 61.2 586.954 67.1491
VStem: 92.3 82.0231 393.197 76.5326 422.098 83.3008
LayerCount: 2
Fore
SplineSet
254.650390625 39.55078125 m 0xf4
 245.016601562 38.9833984375 234.248046875 38.1357421875 222.348632812 37.0029296875 c 0
 210.448242188 35.8701171875 200.815429688 35.01953125 193.448242188 34.453125 c 2
 171.348632812 32.7529296875 l 2
 163.981445312 32.185546875 157.323242188 31.9033203125 151.373046875 31.9033203125 c 0
 145.422851562 31.9033203125 139.8984375 32.4697265625 134.797851562 33.6025390625 c 2
 131.3984375 33.6025390625 l 2
 120.065429688 33.6025390625 110.857421875 37.427734375 103.774414062 45.078125 c 0
 97.2158203125 52.1611328125 93.9365234375 61.7939453125 93.9365234375 73.9775390625 c 0
 93.9365234375 80.3017578125 95.912109375 92.703125 95.912109375 166.8359375 c 0
 95.912109375 180.862304688 95.841796875 196.234375 95.7001953125 212.953125 c 0
 95.1328125 279.819335938 94 348.669921875 92.2998046875 419.502929688 c 0
 91.1669921875 457.469726562 90.599609375 482.969726562 90.599609375 496.002929688 c 0
 90.599609375 509.036132812 91.025390625 526.602539062 91.875 548.703125 c 0
 92.724609375 570.802734375 93.150390625 586.102539062 93.150390625 594.602539062 c 0
 93.716796875 609.903320312 97.8251953125 621.377929688 105.474609375 629.028320312 c 0
 113.125 636.677734375 122.900390625 640.502929688 134.799804688 640.502929688 c 2
 139.049804688 640.502929688 l 2
 148.1171875 643.3359375 157.466796875 645.744140625 167.099609375 647.7265625 c 0
 176.733398438 649.709960938 185.658203125 651.126953125 193.875 651.9765625 c 0
 202.091796875 652.827148438 211.016601562 653.393554688 220.650390625 653.676757812 c 0
 230.283203125 653.959960938 237.791015625 654.1015625 243.173828125 654.1015625 c 2
 260.598632812 654.1015625 l 1
 269.94921875 654.1015625 l 2
 308.482421875 654.1015625 342.624023438 647.018554688 372.374023438 632.8515625 c 0
 402.124023438 618.685546875 425.640625 598.143554688 442.923828125 571.2265625 c 0
 461.982421875 541.543945312 469.729492188 508.252929688 469.729492188 473.733398438 c 0xf8
 469.729492188 442.389648438 462.495117188 415.387695312 448.024414062 392.7265625 c 0
 433.006835938 369.208984375 412.182617188 352.067382812 385.548828125 341.30078125 c 1
 404.81640625 335.067382812 423.374023438 325.859375 441.223632812 313.67578125 c 0
 459.07421875 301.493164062 474.232421875 287.893554688 486.69921875 272.875976562 c 0
 499.166015625 257.859375 505.399414062 243.833984375 505.399414062 230.80078125 c 0
 505.399414062 209.268554688 500.015625 187.875976562 489.249023438 166.625976562 c 0
 478.482421875 145.375976562 462.756835938 125.967773438 442.07421875 108.401367188 c 0
 421.390625 90.833984375 394.7578125 75.8173828125 362.174804688 63.3505859375 c 0
 329.591796875 50.8837890625 293.75 42.9501953125 254.650390625 39.55078125 c 0xf4
268.248046875 586.953125 m 0
 237.6484375 586.953125 207.8984375 583.268554688 178.998046875 575.90234375 c 1
 178.998046875 565.134765625 178.431640625 547.8515625 177.297851562 524.051757812 c 0
 176.165039062 500.251953125 175.315429688 475.03515625 174.748046875 448.40234375 c 0
 174.46484375 435.0859375 174.322265625 421.627929688 174.322265625 408.028320312 c 0
 174.322265625 394.427734375 174.46484375 380.685546875 174.748046875 366.802734375 c 1
 201.380859375 365.669921875 226.598632812 365.102539062 250.3984375 365.102539062 c 0
 267.3984375 365.102539062 282.981445312 366.51953125 297.1484375 369.352539062 c 0
 311.315429688 372.185546875 323.073242188 375.869140625 332.422851562 380.40234375 c 0
 341.7734375 384.935546875 350.2734375 390.459960938 357.922851562 396.9765625 c 0
 365.573242188 403.494140625 371.380859375 410.15234375 375.348632812 416.952148438 c 0
 379.315429688 423.751953125 382.71484375 431.259765625 385.547851562 439.4765625 c 0
 388.380859375 447.694335938 390.364257812 455.060546875 391.497070312 461.578125 c 0
 392.630859375 468.094726562 393.197265625 475.037109375 393.197265625 482.403320312 c 0
 393.197265625 497.13671875 390.22265625 510.736328125 384.272460938 523.204101562 c 0
 378.322265625 535.670898438 370.955078125 545.728515625 362.172851562 553.37890625 c 0
 353.389648438 561.028320312 343.331054688 567.545898438 331.998046875 572.928710938 c 0
 320.665039062 578.311523438 309.615234375 581.995117188 298.848632812 583.977539062 c 0
 288.081054688 585.9609375 277.880859375 586.953125 268.248046875 586.953125 c 0
256.348632812 303.90234375 m 1
 214.981445312 303.90234375 188.348632812 303.618164062 176.448242188 303.05078125 c 1
 178.71484375 211.818359375 180.415039062 146.935546875 181.547851562 108.40234375 c 1
 187.78125 108.40234375 198.123046875 108.685546875 212.573242188 109.251953125 c 0
 227.0234375 109.819335938 237.931640625 110.1015625 245.297851562 110.1015625 c 0
 271.365234375 111.235351562 295.873046875 115.768554688 318.823242188 123.701171875 c 0
 341.7734375 131.633789062 360.331054688 141.125976562 374.498046875 152.17578125 c 0
 388.665039062 163.2265625 400.140625 174.842773438 408.922851562 187.026367188 c 0
 417.706054688 199.208984375 422.098632812 210.401367188 422.098632812 220.6015625 c 0xf4
 422.098632812 227.967773438 418.981445312 235.334960938 412.748046875 242.702148438 c 0
 406.515625 250.069335938 397.0234375 257.71875 384.2734375 265.65234375 c 0
 371.5234375 273.584960938 354.098632812 280.952148438 331.998046875 287.751953125 c 0
 309.8984375 294.551757812 284.681640625 299.935546875 256.348632812 303.90234375 c 1
EndSplineSet
Validated: 524289
EndChar

StartChar: C
Encoding: 67 67 35
Width: 550
VWidth: 903
GlyphClass: 2
Flags: HMW
HStem: 26.7904 76.5782 493.872 188.909 590.419 68.8467
VStem: 78.7041 85.8483 429.755 87.5508
LayerCount: 2
Fore
SplineSet
493.500976562 107.618164062 m 0xb8
 446.763671875 53.734375 375.223632812 26.7900390625 278.872070312 26.7900390625 c 0
 275.922851562 26.7900390625 272.950195312 26.814453125 269.954101562 26.865234375 c 0
 246.720703125 26.865234375 224.62109375 30.83203125 203.654296875 38.765625 c 0
 182.6875 46.6982421875 164.979492188 57.181640625 150.529296875 70.21484375 c 0
 136.079101562 83.248046875 123.1875 98.4052734375 111.854492188 115.688476562 c 0
 100.521484375 132.971679688 92.1630859375 151.388671875 86.7802734375 170.938476562 c 0
 81.396484375 190.48828125 78.705078125 210.180664062 78.705078125 230.013671875 c 0
 78.705078125 271.380859375 82.955078125 311.331054688 91.455078125 349.86328125 c 0
 99.955078125 388.396484375 111.4296875 423.247070312 125.879882812 454.4140625 c 0
 140.330078125 485.581054688 157.188476562 514.197265625 176.455078125 540.264648438 c 0
 195.721679688 566.331054688 216.263671875 588.006835938 238.081054688 605.2890625 c 0
 259.897460938 622.572265625 282.28125 635.889648438 305.23046875 645.239257812 c 0
 328.180664062 654.58984375 350.138671875 659.264648438 371.10546875 659.264648438 c 0xb8
 392.072265625 659.264648438 411.33984375 656.998046875 428.90625 652.46484375 c 1
 431.173828125 660.96484375 435.423828125 667.90625 441.65625 673.2890625 c 0
 447.889648438 678.672851562 455.256835938 681.647460938 463.756835938 682.21484375 c 0
 465.771484375 682.591796875 467.79296875 682.78125 469.822265625 682.78125 c 0
 476.922851562 682.78125 484.108398438 680.466796875 491.380859375 675.83984375 c 0
 500.73046875 669.889648438 506.5390625 661.248046875 508.805664062 649.9140625 c 0
 510.505859375 641.4140625 512.206054688 633.056640625 513.90625 624.83984375 c 0
 515.60546875 616.623046875 516.59765625 608.547851562 516.880859375 600.614257812 c 0
 517.1640625 592.681640625 517.305664062 586.1640625 517.305664062 581.064453125 c 2
 517.305664062 563.21484375 l 1
 517.305664062 550.46484375 l 2
 517.305664062 538.564453125 512.772460938 526.522460938 503.706054688 514.33984375 c 0
 494.638671875 502.15625 485.572265625 495.498046875 476.504882812 494.365234375 c 0
 474.53125 494.037109375 472.551757812 493.872070312 470.56640625 493.872070312 c 0xd8
 462.296875 493.872070312 453.934570312 496.728515625 445.479492188 502.44140625 c 0
 434.997070312 509.524414062 429.754882812 519.016601562 429.754882812 530.916015625 c 0
 429.754882812 535.44921875 430.038085938 547.349609375 430.604492188 566.616210938 c 0
 430.038085938 567.18359375 427.345703125 569.025390625 422.529296875 572.141601562 c 0
 417.711914062 575.258789062 414.3125 577.526367188 412.329101562 578.942382812 c 0
 410.345703125 580.359375 407.087890625 582.202148438 402.5546875 584.46875 c 0
 398.021484375 586.735351562 393.629882812 588.293945312 389.379882812 589.143554688 c 0
 385.129882812 589.994140625 381.021484375 590.418945312 377.0546875 590.418945312 c 0
 359.48828125 590.418945312 340.646484375 584.751953125 320.529296875 573.418945312 c 0
 300.412109375 562.0859375 281.145507812 545.935546875 262.728515625 524.96875 c 0
 244.311523438 504.001953125 227.594726562 479.918945312 212.577148438 452.71875 c 0
 197.560546875 425.518554688 185.802734375 394.776367188 177.302734375 360.494140625 c 0
 168.802734375 326.2109375 164.552734375 291.78515625 164.552734375 257.21875 c 0
 164.552734375 232.28515625 169.369140625 207.918945312 179.002929688 184.119140625 c 0
 188.635742188 160.318359375 202.377929688 140.91015625 220.227539062 125.893554688 c 0
 238.077148438 110.876953125 257.485351562 103.369140625 278.452148438 103.369140625 c 0
 296.5859375 103.369140625 314.577148438 105.2109375 332.427734375 108.893554688 c 0
 350.27734375 112.577148438 366.002929688 117.393554688 379.602539062 123.34375 c 0
 393.202148438 129.293945312 404.9609375 135.244140625 414.877929688 141.193359375 c 0
 424.793945312 147.143554688 434.002929688 153.518554688 442.502929688 160.318359375 c 0
 449.869140625 165.418945312 456.244140625 169.385742188 461.627929688 172.21875 c 0
 467.010742188 175.051757812 472.818359375 176.46875 479.051757812 176.46875 c 0
 485.28515625 176.46875 491.517578125 174.485351562 497.750976562 170.518554688 c 0
 507.288085938 163.100585938 512.057617188 154.567382812 512.057617188 144.918945312 c 0
 512.057617188 133.931640625 505.87109375 121.498046875 493.500976562 107.618164062 c 0xb8
EndSplineSet
Validated: 524289
EndChar

StartChar: D
Encoding: 68 68 36
Width: 550
VWidth: 901
GlyphClass: 2
Flags: HMW
HStem: 24.8749 73.0983 641.126 17G
VStem: 77.3451 83.8336 81.277 86.7017 437.429 81.5975
LayerCount: 2
Fore
SplineSet
162.028320312 347.025390625 m 0xe8
 162.595703125 322.658203125 163.583984375 285.96484375 165.000976562 236.947265625 c 0
 166.41796875 187.930664062 167.412109375 150.955078125 167.978515625 126.022460938 c 1
 191.211914062 115.822265625 215.577148438 108.59765625 241.077148438 104.34765625 c 0
 266.577148438 100.09765625 295.4765625 97.97265625 327.77734375 97.97265625 c 0
 343.643554688 97.97265625 358.661132812 103.21484375 372.828125 113.697265625 c 0
 386.995117188 124.180664062 398.611328125 137.780273438 407.678710938 154.497070312 c 0
 416.74609375 171.21484375 423.970703125 189.630859375 429.353515625 209.748046875 c 0
 434.736328125 229.865234375 437.428710938 249.557617188 437.428710938 268.82421875 c 0
 437.428710938 375.357421875 393.795898438 456.673828125 306.528320312 512.774414062 c 0
 275.361328125 532.607421875 230.87890625 553.006835938 173.079101562 573.973632812 c 1
 172.228515625 574.82421875 l 1
 171.37890625 574.82421875 l 1
 170.528320312 574.82421875 l 1
 169.678710938 575.673828125 l 1
 168.829101562 575.673828125 l 1
 167.978515625 575.673828125 l 1
 167.978515625 576.524414062 l 1xd8
 167.12890625 576.524414062 l 1
 166.278320312 576.524414062 l 1
 165.428710938 577.374023438 l 1
 164.579101562 577.374023438 l 1
 163.728515625 577.374023438 l 1
 162.87890625 578.223632812 l 1
 162.028320312 578.223632812 l 1
 161.178710938 578.223632812 l 1
 161.178710938 579.07421875 l 1
 160.450195312 547.500976562 160.0859375 515.251953125 160.0859375 482.326171875 c 0
 160.0859375 438.427734375 160.732421875 393.327148438 162.028320312 347.025390625 c 0xe8
328.627929688 24.8740234375 m 0
 300.294921875 24.8740234375 272.670898438 26.150390625 245.75390625 28.7001953125 c 0
 218.836914062 31.25 197.444335938 34.224609375 181.578125 37.625 c 0
 165.7109375 41.025390625 151.828125 44.1416015625 139.927734375 46.974609375 c 0
 128.028320312 49.8076171875 120.944335938 51.224609375 118.677734375 51.224609375 c 0
 107.344726562 51.224609375 97.9951171875 55.0498046875 90.6279296875 62.7001953125 c 0
 84.2431640625 69.330078125 81.05078125 78.1953125 81.05078125 89.294921875 c 0
 81.05078125 91.001953125 81.1259765625 92.76171875 81.27734375 94.5751953125 c 0xd8
 82.5517578125 114.973632812 83.189453125 147.24609375 83.189453125 191.390625 c 0
 83.189453125 206.107421875 83.119140625 222.143554688 82.9765625 239.5 c 0
 82.41015625 308.916992188 80.9931640625 384.141601562 78.7265625 465.174804688 c 0
 78.1591796875 496.908203125 77.734375 517.733398438 77.451171875 527.650390625 c 0
 77.380859375 530.12890625 77.3447265625 532.952148438 77.3447265625 536.122070312 c 0xe8
 77.3447265625 545.630859375 77.6640625 558.248046875 78.30078125 573.973632812 c 0
 79.1513671875 594.94140625 79.576171875 607.69140625 79.576171875 612.224609375 c 0
 80.1435546875 627.525390625 84.3935546875 639 92.326171875 646.650390625 c 0
 100.258789062 654.299804688 110.17578125 658.125 122.076171875 658.125 c 0
 129.443359375 658.125 138.79296875 657.557617188 150.125976562 656.424804688 c 0
 161.458984375 655.291992188 176.05078125 653.025390625 193.901367188 649.625 c 0
 211.750976562 646.224609375 230.026367188 641.549804688 248.7265625 635.599609375 c 0
 267.42578125 629.650390625 287.684570312 621.291992188 309.500976562 610.525390625 c 0
 331.318359375 599.7578125 352.000976562 587.291015625 371.55078125 573.124023438 c 0
 391.1015625 558.95703125 409.943359375 541.249023438 428.076171875 519.999023438 c 0
 446.208984375 498.749023438 461.934570312 475.515625 475.250976562 450.298828125 c 0
 488.568359375 425.08203125 499.193359375 395.048828125 507.125976562 360.19921875 c 0
 515.059570312 325.348632812 519.026367188 287.807617188 519.026367188 247.57421875 c 0
 519.026367188 227.741210938 516.333984375 207.624023438 510.951171875 187.223632812 c 0
 505.568359375 166.82421875 497.3515625 146.848632812 486.30078125 127.298828125 c 0
 475.250976562 107.749023438 462.359375 90.32421875 447.625976562 75.0244140625 c 0
 432.893554688 59.7236328125 415.185546875 47.541015625 394.501953125 38.4736328125 c 0
 373.819335938 29.4072265625 351.861328125 24.8740234375 328.627929688 24.8740234375 c 0
EndSplineSet
Validated: 524289
EndChar

StartChar: E
Encoding: 69 69 37
Width: 550
VWidth: 901
GlyphClass: 2
Flags: HMW
HStem: 36.477 72.6012 46.0504 77.1225 316.551 73.0991 333.551 68.8491 574.235 70.4154
VStem: 88.0079 82.8725
LayerCount: 2
Fore
SplineSet
464.553710938 46.25 m 0x4c
 462.697265625 46.353515625 460.362304688 46.404296875 457.547851562 46.404296875 c 0
 444.90234375 46.404296875 422.58984375 45.3623046875 390.606445312 43.2763671875 c 0
 351.505859375 40.7265625 308.581054688 38.458984375 261.831054688 36.4765625 c 0
 236.657226562 35.408203125 214.399414062 34.875 195.05859375 34.875 c 0
 178.482421875 34.875 164.047851562 35.267578125 151.755859375 36.0517578125 c 0
 138.723632812 36.619140625 125.690429688 42.994140625 112.657226562 55.1767578125 c 0
 99.6240234375 67.3603515625 91.9736328125 82.2353515625 89.70703125 99.8017578125 c 0
 88.0068359375 114.53515625 87.1572265625 141.02734375 87.1572265625 179.27734375 c 0
 87.1572265625 217.52734375 87.4404296875 258.184570312 88.0068359375 301.251953125 c 0
 88.1962890625 315.615234375 88.291015625 330.576171875 88.291015625 346.135742188 c 0
 88.291015625 377.233398438 87.9130859375 410.721679688 87.158203125 446.6015625 c 0
 86.5908203125 480.6015625 86.166015625 503.126953125 85.8828125 514.176757812 c 0
 85.8125 516.938476562 85.7763671875 520.028320312 85.7763671875 523.444335938 c 0
 85.7763671875 533.698242188 86.095703125 546.900390625 86.732421875 563.05078125 c 0
 87.5830078125 584.583984375 88.0078125 597.901367188 88.0078125 603.000976562 c 0
 88.5751953125 618.30078125 92.8251953125 629.91796875 100.7578125 637.8515625 c 0
 108.69140625 645.784179688 118.607421875 649.750976562 130.5078125 649.750976562 c 0
 131.284179688 649.78125 132.049804688 649.795898438 132.807617188 649.795898438 c 0
 146.42578125 649.795898438 156.9921875 644.963867188 164.5078125 635.30078125 c 1
 196.807617188 639.833984375 234.6328125 642.666992188 277.982421875 643.80078125 c 0
 299.658203125 644.366210938 320.09375 644.649414062 339.2890625 644.649414062 c 0
 358.484375 644.649414062 376.44140625 644.366210938 393.157226562 643.80078125 c 0
 426.58984375 642.666992188 453.223632812 640.966796875 473.056640625 638.700195312 c 0
 486.65625 637 496.005859375 633.600585938 501.106445312 628.5 c 0
 506.206054688 623.400390625 509.0390625 616.317382812 509.606445312 607.25 c 0
 509.606445312 602.150390625 509.0390625 597.333007812 507.90625 592.80078125 c 0
 506.7734375 588.267578125 504.931640625 584.159179688 502.380859375 580.4765625 c 0
 499.831054688 576.79296875 496.005859375 573.818359375 490.90625 571.55078125 c 0
 485.806640625 569.284179688 479.856445312 568.716796875 473.056640625 569.850585938 c 0
 433.80859375 572.7734375 394.330078125 574.234375 354.62109375 574.234375 c 0
 340.4375 574.234375 326.223632812 574.047851562 311.981445312 573.67578125 c 0
 257.864257812 572.258789062 211.5390625 568.716796875 173.005859375 563.049804688 c 1
 170.739257812 504.116210938 169.606445312 446.31640625 169.606445312 389.649414062 c 1xac
 210.973632812 389.649414062 267.356445312 391.774414062 338.755859375 396.024414062 c 0
 410.15625 400.274414062 450.389648438 402.399414062 459.456054688 402.399414062 c 0
 472.489257812 402.399414062 481.697265625 399.56640625 487.080078125 393.899414062 c 0
 492.463867188 388.232421875 495.155273438 380.299804688 495.155273438 370.099609375 c 0
 495.155273438 345.720703125 483.778320312 333.53125 461.025390625 333.53125 c 0
 460.5078125 333.53125 459.985351562 333.538085938 459.456054688 333.55078125 c 0x1c
 449.255859375 333.55078125 405.481445312 330.716796875 328.130859375 325.05078125 c 0
 250.78125 319.383789062 198.223632812 316.55078125 170.456054688 316.55078125 c 1
 170.456054688 304.083007812 170.598632812 287.791015625 170.880859375 267.674804688 c 0
 171.1640625 247.557617188 171.447265625 230.274414062 171.73046875 215.82421875 c 0
 172.013671875 201.374023438 172.296875 186.499023438 172.579101562 171.19921875 c 0
 172.862304688 155.899414062 173.4296875 143.291015625 174.279296875 133.374023438 c 0
 175.129882812 123.458007812 176.404296875 116.515625 178.104492188 112.548828125 c 0
 186.69921875 110.234375 205.37109375 109.077148438 234.119140625 109.077148438 c 0xac
 254.650390625 109.077148438 280.3203125 109.666992188 311.129882812 110.84765625 c 0
 385.079101562 113.680664062 432.538085938 117.364257812 453.504882812 121.897460938 c 0
 461.4375 123.030273438 468.237304688 123.455078125 473.904296875 123.171875 c 0
 479.571289062 122.888671875 484.529296875 121.755859375 488.779296875 119.772460938 c 0
 493.029296875 117.790039062 496.4296875 115.665039062 498.979492188 113.397460938 c 0
 501.529296875 111.130859375 503.512695312 108.15625 504.9296875 104.47265625 c 0
 506.346679688 100.790039062 507.479492188 97.53125 508.329101562 94.6982421875 c 0
 509.1796875 91.865234375 509.604492188 89.0322265625 509.604492188 86.19921875 c 0
 509.604492188 75.4326171875 505.779296875 65.7998046875 498.129882812 57.2998046875 c 0
 491.37890625 49.7998046875 481.872070312 46.0498046875 469.606445312 46.0498046875 c 0
 467.970703125 46.0498046875 466.287109375 46.1162109375 464.553710938 46.25 c 0x4c
EndSplineSet
Validated: 524289
EndChar

StartChar: F
Encoding: 70 70 38
Width: 550
VWidth: 901
GlyphClass: 2
Flags: HMW
HStem: 34.0727 17.85G 326.138 71.9191 580.5 72.0089 642.047 17G
VStem: 89.453 87.7727 91.592 79.6833
LayerCount: 2
Fore
SplineSet
177.225585938 72.3837890625 m 0xe8
 176.092773438 60.484375 170.572265625 50.9931640625 160.655273438 43.91015625 c 0
 151.47265625 37.3515625 141.198242188 34.072265625 129.830078125 34.072265625 c 0
 128.920898438 34.072265625 128.00390625 34.09375 127.080078125 34.1357421875 c 0
 115.74609375 34.1357421875 106.396484375 37.9609375 99.029296875 45.6103515625 c 0
 92.64453125 52.2412109375 89.4521484375 61.1064453125 89.4521484375 72.2060546875 c 0xe8
 89.4521484375 73.9140625 89.52734375 75.673828125 89.6787109375 77.486328125 c 0
 90.9541015625 96.185546875 91.5908203125 127.713867188 91.5908203125 172.071289062 c 0
 91.5908203125 186.859375 91.5205078125 203.072265625 91.37890625 220.711914062 c 0
 90.8115234375 291.26171875 89.39453125 363.936523438 87.1279296875 438.736328125 c 0
 85.9951171875 476.703125 85.427734375 502.203125 85.427734375 515.236328125 c 0
 85.427734375 528.26953125 85.8525390625 545.836914062 86.703125 567.936523438 c 0
 87.552734375 590.036132812 87.9775390625 605.053710938 87.9775390625 612.986328125 c 0
 88.544921875 628.286132812 92.794921875 639.76171875 100.727539062 647.411132812 c 0
 108.661132812 655.061523438 118.578125 658.88671875 130.477539062 658.88671875 c 0
 131.934570312 658.994140625 133.358398438 659.048828125 134.749023438 659.048828125 c 0xd4
 147.95703125 659.048828125 158.150390625 654.177734375 165.328125 644.435546875 c 1
 220.861328125 648.40234375 277.102539062 650.953125 334.052734375 652.0859375 c 0
 348.290039062 652.369140625 361.880859375 652.510742188 374.82421875 652.510742188 c 0
 413.66015625 652.510742188 446.677734375 651.235351562 473.87890625 648.685546875 c 0
 486.912109375 647.552734375 496.120117188 644.294921875 501.502929688 638.911132812 c 0
 506.885742188 633.528320312 509.578125 626.020507812 509.578125 616.387695312 c 0
 509.578125 605.620117188 506.4609375 596.553710938 500.227539062 589.186523438 c 0
 493.995117188 581.819335938 484.078125 578.13671875 470.477539062 578.13671875 c 0
 438.745117188 579.712890625 406.051757812 580.501953125 372.3984375 580.501953125 c 4
 309.298828125 580.501953125 242.825195312 577.729492188 172.977539062 572.186523438 c 5
 172.977539062 562.553710938 172.6953125 547.111328125 172.127929688 525.861328125 c 0
 171.560546875 504.611328125 170.994140625 482.936523438 170.426757812 460.836914062 c 0
 170.143554688 449.786132812 170.000976562 438.666015625 170.000976562 427.473632812 c 0
 170.000976562 416.282226562 170.143554688 405.01953125 170.426757812 393.685546875 c 1
 196.168945312 396.600585938 224.408203125 398.057617188 255.14453125 398.057617188 c 0
 260.268554688 398.057617188 265.462890625 398.017578125 270.7265625 397.935546875 c 0
 307.559570312 397.369140625 340.9921875 395.810546875 371.025390625 393.260742188 c 0
 401.05859375 390.7109375 424.575195312 388.018554688 441.575195312 385.185546875 c 0
 455.17578125 382.918945312 464.525390625 379.235351562 469.625 374.135742188 c 0
 474.725585938 369.036132812 477.55859375 361.953125 478.125 352.885742188 c 0
 478.125 347.786132812 477.700195312 343.110351562 476.850585938 338.860351562 c 0
 476 334.610351562 474.442382812 330.502929688 472.17578125 326.536132812 c 0
 469.908203125 322.568359375 466.225585938 319.59375 461.125 317.610351562 c 0
 456.025390625 315.627929688 449.508789062 314.919921875 441.575195312 315.486328125 c 0
 424.008789062 318.319335938 399.92578125 320.727539062 369.325195312 322.7109375 c 0
 338.725585938 324.693359375 304.30078125 325.827148438 266.05078125 326.110351562 c 0
 263.502929688 326.12890625 260.985351562 326.137695312 258.497070312 326.137695312 c 0
 223.622070312 326.137695312 194.547851562 324.287109375 171.275390625 320.583984375 c 1xe4
 174.67578125 170.416992188 176.658203125 87.68359375 177.225585938 72.3837890625 c 0xe8
EndSplineSet
Validated: 524289
EndChar

StartChar: G
Encoding: 71 71 39
Width: 550
VWidth: 901
GlyphClass: 2
Flags: HMW
HStem: 25.5681 76.5524 288.27 69.5785 598.522 68.8491
VStem: 77.8953 85.0008
LayerCount: 2
Fore
SplineSet
492.69921875 259.370117188 m 0
 491.56640625 247.470703125 488.017578125 233.58984375 482.067382812 217.72265625 c 0
 476.118164062 201.856445312 468.750976562 184.998046875 459.967773438 167.1484375 c 0
 451.184570312 149.297851562 439.8515625 132.014648438 425.96875 115.297851562 c 0
 412.0859375 98.5810546875 397.494140625 83.4228515625 382.193359375 69.8232421875 c 0
 366.893554688 56.22265625 349.043945312 45.314453125 328.643554688 37.09765625 c 0
 309.560546875 29.4111328125 290.724609375 25.568359375 272.137695312 25.568359375 c 0
 270.85546875 25.568359375 269.573242188 25.5859375 268.293945312 25.623046875 c 0
 245.060546875 25.623046875 223.102539062 29.58984375 202.419921875 37.5224609375 c 0
 181.736328125 45.4560546875 164.028320312 55.939453125 149.294921875 68.9716796875 c 0
 134.5625 82.0048828125 121.669921875 97.1630859375 110.620117188 114.446289062 c 0
 99.5703125 131.729492188 91.353515625 150.146484375 85.970703125 169.696289062 c 0
 80.5869140625 189.24609375 77.8955078125 208.938476562 77.8955078125 228.771484375 c 0
 77.8955078125 270.704101562 82.0029296875 311.50390625 90.220703125 351.170898438 c 0
 98.4375 390.837890625 109.912109375 426.538085938 124.645507812 458.271484375 c 0
 139.377929688 490.00390625 156.377929688 519.045898438 175.645507812 545.396484375 c 0
 194.912109375 571.74609375 215.454101562 593.846679688 237.271484375 611.696289062 c 0
 259.087890625 629.545898438 281.330078125 643.288085938 303.997070312 652.920898438 c 0
 326.6640625 662.5546875 348.48046875 667.37109375 369.448242188 667.37109375 c 0
 393.248046875 667.37109375 419.740234375 661.846679688 448.922851562 650.795898438 c 0
 478.10546875 639.74609375 497.23046875 630.25390625 506.297851562 622.321289062 c 0
 514.609375 614.009765625 518.764648438 604.061523438 518.764648438 592.475585938 c 0
 518.764648438 586.68359375 517.7265625 580.482421875 515.6484375 573.87109375 c 0
 513.381835938 566.50390625 507.999023438 561.12109375 499.499023438 557.721679688 c 0
 495.249023438 556.021484375 490.856445312 555.170898438 486.323242188 555.170898438 c 0
 481.791015625 555.170898438 477.115234375 556.021484375 472.299804688 557.721679688 c 0
 468.899414062 558.854492188 461.107421875 563.104492188 448.924804688 570.471679688 c 0
 436.741210938 577.837890625 424.274414062 584.35546875 411.524414062 590.022460938 c 0
 398.774414062 595.689453125 387.016601562 598.522460938 376.249023438 598.522460938 c 0
 358.682617188 598.522460938 339.840820312 592.713867188 319.723632812 581.096679688 c 0
 299.606445312 569.48046875 280.33984375 552.763671875 261.922851562 530.946289062 c 0
 243.505859375 509.12890625 226.7890625 484.337890625 211.772460938 456.5703125 c 0
 196.754882812 428.803710938 184.85546875 397.353515625 176.072265625 362.220703125 c 0
 167.2890625 327.087890625 162.897460938 291.670898438 162.897460938 255.970703125 c 0
 162.897460938 231.037109375 167.713867188 206.670898438 177.346679688 182.870117188 c 0
 186.98046875 159.0703125 200.721679688 139.662109375 218.572265625 124.645507812 c 0
 236.421875 109.62890625 256.114257812 102.120117188 277.647460938 102.120117188 c 0
 291.247070312 102.120117188 305.272460938 106.512695312 319.721679688 115.295898438 c 0
 334.171875 124.078125 347.063476562 135.270507812 358.397460938 148.870117188 c 0
 369.73046875 162.470703125 380.35546875 177.770507812 390.272460938 194.770507812 c 0
 400.188476562 211.770507812 408.688476562 228.203125 415.772460938 244.0703125 c 0
 422.85546875 259.9375 428.379882812 274.670898438 432.346679688 288.270507812 c 1
 396.647460938 286.5703125 361.655273438 283.453125 327.372070312 278.920898438 c 0
 293.088867188 274.387695312 269.430664062 268.4375 256.397460938 261.0703125 c 0
 251.834960938 258.655273438 247.3671875 257.447265625 242.995117188 257.447265625 c 0
 238.13671875 257.447265625 233.396484375 258.938476562 228.7734375 261.920898438 c 0
 219.990234375 267.587890625 215.032226562 275.237304688 213.899414062 284.870117188 c 0
 213.482421875 287.506835938 213.274414062 290.071289062 213.274414062 292.563476562 c 0
 213.274414062 310.424804688 223.965820312 324.577148438 245.348632812 335.020507812 c 0
 261.215820312 342.953125 295.923828125 349.045898438 349.473632812 353.295898438 c 0
 387.723632812 356.331054688 419.974609375 357.849609375 446.2265625 357.849609375 c 0
 456.727539062 357.849609375 466.268554688 357.606445312 474.848632812 357.120117188 c 0
 489.015625 356.553710938 498.791015625 354.145507812 504.173828125 349.895507812 c 0
 509.556640625 345.645507812 513.381835938 338.987304688 515.6484375 329.920898438 c 0
 515.951171875 327.125 516.1015625 324.469726562 516.1015625 321.95703125 c 0
 516.1015625 305.619140625 509.717773438 295.240234375 496.94921875 290.8203125 c 0
 496.94921875 289.120117188 496.241210938 284.587890625 494.82421875 277.220703125 c 0
 493.407226562 269.853515625 492.69921875 263.903320312 492.69921875 259.370117188 c 0
EndSplineSet
Validated: 524289
EndChar

StartChar: H
Encoding: 72 72 40
Width: 550
VWidth: 901
GlyphClass: 2
Flags: HMW
HStem: 34.0619 17.85G 317.174 73.1009 641.938 17G
VStem: 100.853 83.3017 416.282 84.6407
LayerCount: 2
Fore
SplineSet
495.254882812 72.375 m 0
 494.122070312 60.474609375 488.595703125 50.98046875 478.678710938 43.8974609375 c 0
 469.497070312 37.3388671875 459.465820312 34.060546875 448.583007812 34.060546875 c 0
 447.711914062 34.060546875 446.8359375 34.0810546875 445.954101562 34.123046875 c 0
 434.62109375 34.123046875 425.271484375 37.9482421875 417.904296875 45.5986328125 c 0
 411.51953125 52.228515625 408.327148438 61.09375 408.327148438 72.193359375 c 0
 408.327148438 73.900390625 408.40234375 75.66015625 408.553710938 77.4736328125 c 0
 413.705078125 149.076171875 416.280273438 228.640625 416.280273438 316.165039062 c 0
 416.280273438 324.920898438 416.254882812 333.756835938 416.203125 342.672851562 c 1
 406.5703125 342.106445312 371.862304688 337.713867188 312.079101562 329.497070312 c 0
 252.295898438 321.280273438 209.654296875 317.171875 184.154296875 317.171875 c 1
 184.154296875 315.47265625 184.012695312 312.497070312 183.729492188 308.247070312 c 0
 183.446289062 303.997070312 183.303710938 301.022460938 183.303710938 299.322265625 c 0
 181.604492188 271.272460938 180.75390625 238.334960938 180.75390625 200.509765625 c 0
 180.75390625 162.684570312 181.604492188 119.97265625 183.303710938 72.3720703125 c 0
 182.170898438 60.47265625 176.50390625 50.98046875 166.303710938 43.8974609375 c 0
 156.860351562 37.3388671875 146.6875 34.060546875 135.786132812 34.060546875 c 0
 134.9140625 34.060546875 134.036132812 34.0810546875 133.155273438 34.123046875 c 0
 121.822265625 34.123046875 112.471679688 37.9482421875 105.10546875 45.5986328125 c 0
 98.7197265625 52.228515625 95.52734375 61.09375 95.52734375 72.1943359375 c 0
 95.52734375 73.9013671875 95.603515625 75.6611328125 95.75390625 77.4736328125 c 0
 96.3212890625 85.4072265625 96.74609375 98.1572265625 97.029296875 115.723632812 c 0
 97.3125 133.291015625 97.4541015625 156.807617188 97.4541015625 186.274414062 c 0
 97.4541015625 215.7421875 97.7373046875 242.375 98.3037109375 266.174804688 c 0
 98.3037109375 285.44140625 98.87109375 313.06640625 100.00390625 349.049804688 c 0
 101.137695312 385.033203125 101.845703125 411.666015625 102.127929688 428.94921875 c 0
 102.22265625 434.705078125 102.270507812 441.41796875 102.270507812 449.090820312 c 0
 102.270507812 464.45703125 102.081054688 483.668945312 101.702148438 506.724609375 c 0
 101.135742188 532.224609375 100.852539062 548.516601562 100.852539062 555.599609375 c 0
 100.852539062 562.682617188 101.135742188 572.458007812 101.702148438 584.924804688 c 0
 102.26953125 597.391601562 102.8359375 606.7421875 103.403320312 612.974609375 c 0
 103.970703125 628.274414062 108.078125 639.75 115.728515625 647.399414062 c 0
 123.377929688 655.049804688 133.153320312 658.875 145.053710938 658.875 c 0
 145.977539062 658.916992188 146.889648438 658.9375 147.790039062 658.9375 c 0
 159.041992188 658.9375 168.471679688 655.659179688 176.079101562 649.100585938 c 0
 184.295898438 642.017578125 188.404296875 630.825195312 188.404296875 615.525390625 c 0
 188.404296875 609.858398438 187.696289062 597.67578125 186.279296875 578.975585938 c 0
 184.862304688 560.275390625 184.154296875 542.9921875 184.154296875 527.125976562 c 0
 184.154296875 512.392578125 184.4375 489.8671875 185.00390625 459.55078125 c 0
 185.571289062 429.233398438 185.854492188 406.141601562 185.854492188 390.274414062 c 1
 215.321289062 390.274414062 245.637695312 391.974609375 276.8046875 395.375 c 0
 307.971679688 398.774414062 336.3046875 402.174804688 361.8046875 405.575195312 c 0
 387.3046875 408.974609375 405.155273438 411.2421875 415.35546875 412.375 c 1
 415.35546875 416.341796875 415.072265625 422.149414062 414.504882812 429.799804688 c 0
 413.938476562 437.450195312 413.655273438 443.2578125 413.655273438 447.224609375 c 0
 413.087890625 482.357421875 412.8046875 505.590820312 412.8046875 516.923828125 c 0
 412.8046875 528.256835938 413.23046875 545.82421875 414.080078125 569.624023438 c 0
 414.9296875 593.423828125 415.637695312 607.874023438 416.205078125 612.973632812 c 0
 416.205078125 628.274414062 420.313476562 639.749023438 428.530273438 647.399414062 c 0
 436.747070312 655.048828125 446.521484375 658.874023438 457.85546875 658.874023438 c 0
 458.779296875 658.916015625 459.69140625 658.9375 460.591796875 658.9375 c 0
 471.84375 658.9375 481.2734375 655.658203125 488.880859375 649.099609375 c 0
 497.09765625 642.016601562 501.206054688 630.825195312 501.206054688 615.524414062 c 0
 501.206054688 604.7578125 500.922851562 582.658203125 500.35546875 549.224609375 c 0
 499.7890625 515.791992188 499.364257812 486.466796875 499.081054688 461.25 c 0
 499.024414062 456.209960938 498.99609375 450.721679688 498.99609375 444.787109375 c 0
 498.99609375 421.03125 499.44921875 390.110351562 500.35546875 352.024414062 c 0
 500.733398438 338.805664062 500.921875 324.202148438 500.921875 308.213867188 c 0
 500.921875 276.2265625 500.166992188 238.696289062 498.655273438 195.625 c 0
 496.387695312 131.024414062 495.254882812 89.94140625 495.254882812 72.375 c 0
EndSplineSet
Validated: 524289
EndChar

StartChar: I
Encoding: 73 73 41
Width: 550
VWidth: 902
GlyphClass: 2
Flags: HMW
HStem: 40.327 68.0008 46.786 66.2143 572.426 75.6509 583.477 72.5328
VStem: 251.251 86.6958 258.107 85.5066
LayerCount: 2
Fore
SplineSet
474.794921875 42.875 m 0x68
 460.061523438 45.142578125 435.845703125 46.4189453125 402.12890625 46.7021484375 c 0
 395.389648438 46.7587890625 388.6953125 46.787109375 382.046875 46.787109375 c 0x68
 355.431640625 46.787109375 329.54296875 46.3330078125 304.37890625 45.4267578125 c 0
 272.928710938 44.2939453125 239.211914062 43.1611328125 203.228515625 42.0283203125 c 0
 167.24609375 40.89453125 142.170898438 40.328125 128.00390625 40.328125 c 0
 113.270507812 40.328125 102.50390625 43.1611328125 95.7041015625 48.828125 c 0
 85.6767578125 57.1845703125 85.43359375 67.09375 85.43359375 73.447265625 c 0
 85.43359375 82.55859375 88.2890625 90.3603515625 94.0029296875 96.853515625 c 0
 100.236328125 103.936523438 110.71875 107.76171875 125.452148438 108.329101562 c 0
 149.251953125 109.461914062 191.185546875 110.87890625 251.251953125 112.579101562 c 1x88
 255.822265625 183.635742188 258.107421875 257.740234375 258.107421875 334.890625 c 0
 258.107421875 362.951171875 257.805664062 391.413085938 257.201171875 420.279296875 c 0
 256.634765625 440.6796875 256.208984375 459.946289062 255.926757812 478.079101562 c 0
 255.643554688 496.212890625 255.500976562 509.24609375 255.500976562 517.178710938 c 0
 255.500976562 525.111328125 256.068359375 537.436523438 257.201171875 554.153320312 c 0
 258.333984375 570.87109375 258.901367188 580.645507812 258.901367188 583.478515625 c 0
 233.1171875 584.044921875 209.883789062 584.328125 189.19921875 584.328125 c 0
 168.515625 584.328125 150.381835938 584.044921875 134.798828125 583.477539062 c 0
 120.631835938 583.477539062 109.723632812 586.594726562 102.07421875 592.828125 c 0
 90.791015625 602.020507812 90.5361328125 612.604492188 90.5361328125 618.87109375 c 0
 90.5361328125 628.120117188 93.814453125 636.155273438 100.373046875 642.9765625 c 0
 107.456054688 650.342773438 118.6484375 654.026367188 133.948242188 654.026367188 c 0
 181.173828125 655.348632812 225.125 656.009765625 265.80078125 656.009765625 c 0x94
 347.145507812 656.009765625 415.39453125 653.365234375 470.547851562 648.077148438 c 0
 495.481445312 645.810546875 508.513671875 634.193359375 509.647460938 613.2265625 c 0
 509.647460938 608.125976562 508.939453125 603.16796875 507.522460938 598.3515625 c 0
 506.10546875 593.534179688 503.697265625 588.859375 500.296875 584.326171875 c 0
 496.897460938 579.79296875 492.364257812 576.250976562 486.697265625 573.701171875 c 0
 481.030273438 571.151367188 475.080078125 570.7265625 468.846679688 572.42578125 c 0
 451.846679688 575.258789062 410.197265625 578.375976562 343.897460938 581.776367188 c 1
 343.897460938 577.243164062 343.614257812 564.493164062 343.046875 543.526367188 c 0
 342.48046875 522.559570312 342.197265625 505.842773438 342.197265625 493.375 c 2
 342.197265625 439.825195312 l 2
 342.197265625 416.592773438 342.48046875 393.642578125 343.046875 370.975585938 c 0
 343.424804688 357.568359375 343.61328125 343.05859375 343.61328125 327.448242188 c 0x24
 343.61328125 296.215820312 342.857421875 260.575195312 341.346679688 220.525390625 c 0
 339.079101562 160.458007812 337.946289062 124.758789062 337.946289062 113.42578125 c 1
 362.313476562 113.42578125 390.646484375 113.283203125 422.946289062 113 c 0
 455.24609375 112.717773438 472.529296875 112.575195312 474.795898438 112.575195312 c 0
 487.829101562 112.575195312 497.037109375 109.600585938 502.420898438 103.650390625 c 0
 507.803710938 97.7001953125 510.495117188 89.908203125 510.495117188 80.275390625 c 0
 510.495117188 75.17578125 510.212890625 70.5 509.645507812 66.25 c 0
 509.078125 62 507.37890625 57.75 504.545898438 53.5 c 0
 501.712890625 49.25 497.887695312 46.1337890625 493.0703125 44.150390625 c 0
 488.25390625 42.1669921875 482.161132812 41.7421875 474.794921875 42.875 c 0x68
EndSplineSet
Validated: 524289
EndChar

StartChar: J
Encoding: 74 74 42
Width: 550
VWidth: 900
GlyphClass: 2
Flags: HMW
HStem: 20.8991 85.8509 581.9 70.5491
VStem: 82.9286 75.65 306.478 79.8975
LayerCount: 2
Fore
SplineSet
383.825195312 233.399414062 m 0
 379.291992188 182.399414062 372.493164062 141.032226562 363.42578125 109.298828125 c 0
 354.359375 77.56640625 343.309570312 54.8994140625 330.276367188 41.298828125 c 0
 317.243164062 27.69921875 301.943359375 20.8994140625 284.375976562 20.8994140625 c 0
 265.109375 20.8994140625 246.125976562 24.298828125 227.42578125 31.0986328125 c 0
 208.7265625 37.8994140625 192.434570312 46.9658203125 178.55078125 58.298828125 c 0
 164.66796875 69.6318359375 151.776367188 81.95703125 139.875976562 95.2744140625 c 0
 127.9765625 108.590820312 118.059570312 121.908203125 110.125976562 135.224609375 c 0
 102.193359375 148.541992188 95.9599609375 160.44140625 91.4267578125 170.924804688 c 0
 86.8935546875 181.408203125 84.34375 189.765625 83.77734375 195.999023438 c 0
 82.6435546875 201.098632812 82.3603515625 207.19140625 82.927734375 214.274414062 c 0
 83.4951171875 221.357421875 84.76953125 228.015625 86.7529296875 234.248046875 c 0
 88.7353515625 240.481445312 92.1357421875 246.005859375 96.953125 250.823242188 c 0
 101.76953125 255.640625 108.427734375 258.615234375 116.927734375 259.748046875 c 0
 119.950195312 260.297851562 122.831054688 260.572265625 125.5703125 260.572265625 c 0
 134.129882812 260.572265625 141.307617188 257.889648438 147.102539062 252.524414062 c 0
 154.752929688 245.44140625 158.578125 236.515625 158.578125 225.749023438 c 0
 158.578125 219.515625 159.7109375 212.0078125 161.977539062 203.224609375 c 0
 164.245117188 194.44140625 168.069335938 184.2421875 173.453125 172.625 c 0
 178.8359375 161.0078125 185.494140625 150.3828125 193.426757812 140.75 c 0
 201.360351562 131.1171875 212.551757812 123.041992188 227.001953125 116.524414062 c 0
 241.452148438 110.0078125 256.893554688 106.75 273.327148438 106.75 c 0
 293.7265625 106.75 305.34375 156.049804688 308.176757812 254.649414062 c 0
 308.176757812 267.1171875 307.610351562 307.06640625 306.4765625 374.5 c 0
 305.911132812 408.215820312 305.627929688 442.286132812 305.627929688 476.711914062 c 0
 305.627929688 511.13671875 305.911132812 545.916015625 306.4765625 581.049804688 c 1
 268.397460938 582.0703125 232.969726562 582.580078125 200.194335938 582.580078125 c 0
 178.34375 582.580078125 157.670898438 582.353515625 138.177734375 581.899414062 c 0
 124.010742188 581.899414062 113.244140625 585.016601562 105.876953125 591.25 c 0
 95.0576171875 600.404296875 94.763671875 610.931640625 94.763671875 617.293945312 c 0
 94.763671875 626.54296875 98.04296875 634.578125 104.6015625 641.399414062 c 0
 111.684570312 648.765625 122.591796875 652.44921875 137.325195312 652.44921875 c 0
 184.55078125 653.771484375 228.470703125 654.432617188 269.083984375 654.432617188 c 0
 350.302734375 654.432617188 418.299804688 651.788085938 473.076171875 646.5 c 0
 498.008789062 644.233398438 511.326171875 632.616210938 513.026367188 611.649414062 c 0
 513.026367188 606.548828125 512.17578125 601.590820312 510.4765625 596.774414062 c 0
 508.776367188 591.95703125 506.508789062 587.282226562 503.67578125 582.749023438 c 0
 500.842773438 578.215820312 496.592773438 574.673828125 490.92578125 572.124023438 c 0
 485.258789062 569.57421875 478.7421875 569.149414062 471.375 570.848632812 c 0
 451.541992188 573.681640625 421.225585938 576.232421875 380.424804688 578.499023438 c 1
 380.424804688 562.06640625 380.9921875 537.1328125 382.125 503.700195312 c 0
 383.258789062 470.266601562 384.25 439.80859375 385.100585938 412.326171875 c 0
 385.950195312 384.842773438 386.375 354.2421875 386.375 320.525390625 c 0
 386.375 286.80859375 385.525390625 257.766601562 383.825195312 233.399414062 c 0
EndSplineSet
Validated: 524289
EndChar

StartChar: K
Encoding: 75 75 43
Width: 550
VWidth: 901
GlyphClass: 2
Flags: HMW
HStem: 34.0608 17.85G 641.936 17G
VStem: 91.225 80.9749
LayerCount: 2
Fore
SplineSet
179 72.375 m 0
 177.8671875 60.474609375 172.346679688 50.9814453125 162.4296875 43.8984375 c 0
 153.247070312 37.3408203125 142.97265625 34.0615234375 131.604492188 34.0615234375 c 0
 130.694335938 34.0615234375 129.77734375 34.08203125 128.853515625 34.125 c 0
 117.520507812 34.125 108.170898438 37.94921875 100.803710938 45.599609375 c 0
 94.4189453125 52.23046875 91.2265625 61.095703125 91.2265625 72.1953125 c 0
 91.2265625 73.9033203125 91.3017578125 75.6630859375 91.453125 77.4755859375 c 0
 92.7275390625 96.1748046875 93.365234375 127.703125 93.365234375 172.059570312 c 0
 93.365234375 186.84765625 93.294921875 203.060546875 93.15234375 220.69921875 c 0
 92.5859375 291.25 91.1689453125 363.924804688 88.90234375 438.724609375 c 0
 87.7685546875 474.991210938 87.2021484375 499.5 87.2021484375 512.25 c 0
 87.2021484375 525 87.626953125 543.416992188 88.4765625 567.5 c 0
 89.3271484375 591.583007812 89.751953125 606.741210938 89.751953125 612.973632812 c 0
 90.318359375 628.2734375 94.568359375 639.749023438 102.501953125 647.3984375 c 0
 110.434570312 655.048828125 120.3515625 658.874023438 132.251953125 658.874023438 c 0
 133.17578125 658.916015625 134.087890625 658.936523438 134.98828125 658.936523438 c 0
 146.240234375 658.936523438 155.669921875 655.658203125 163.27734375 649.099609375 c 0
 171.495117188 642.016601562 175.602539062 630.82421875 175.602539062 615.524414062 c 0
 175.602539062 601.924804688 175.036132812 572.174804688 173.90234375 526.274414062 c 0
 172.76953125 480.375 172.203125 442.408203125 172.203125 412.375 c 1
 192.602539062 432.208007812 223.203125 462.241210938 264.002929688 502.473632812 c 0
 304.802734375 542.70703125 337.385742188 574.58203125 361.752929688 598.098632812 c 0
 386.120117188 621.616210938 401.703125 636.208007812 408.502929688 641.875 c 0
 416.435546875 649.241210938 424.0859375 654.19921875 431.453125 656.75 c 0
 438.819335938 659.299804688 445.194335938 659.866210938 450.578125 658.44921875 c 0
 455.9609375 657.033203125 460.918945312 654.057617188 465.452148438 649.524414062 c 0
 471.8359375 642.649414062 475.028320312 635.029296875 475.028320312 626.6640625 c 0
 475.028320312 615.724609375 469.569335938 603.51171875 458.651367188 590.024414062 c 0
 450.151367188 579.82421875 420.118164062 548.799804688 368.55078125 496.94921875 c 0
 316.984375 445.099609375 271.083984375 399.908203125 230.850585938 361.375 c 1
 250.118164062 340.974609375 282.842773438 309.099609375 329.026367188 265.75 c 0
 375.208984375 222.399414062 415.30078125 184.291992188 449.30078125 151.424804688 c 0
 483.30078125 118.557617188 502.284179688 97.875 506.250976562 89.375 c 0
 507.951171875 83.9912109375 508.80078125 78.890625 508.80078125 74.07421875 c 0
 508.80078125 69.2568359375 507.951171875 64.7236328125 506.250976562 60.4736328125 c 0
 502.850585938 51.9736328125 497.750976562 45.45703125 490.951171875 40.923828125 c 0
 483.916992188 36.166015625 476.920898438 33.787109375 469.962890625 33.787109375 c 0
 457.860351562 33.787109375 445.874023438 40.982421875 434 55.375 c 0
 428.333007812 62.7412109375 408.075195312 82.2919921875 373.225585938 114.024414062 c 0
 338.375 145.7578125 300.833007812 180.75 260.600585938 219 c 0
 220.3671875 257.25 190.900390625 287.708007812 172.200195312 310.375 c 1
 172.200195312 293.375 l 2
 172.200195312 283.741210938 174.466796875 210.07421875 179 72.375 c 0
EndSplineSet
Validated: 524289
EndChar

StartChar: L
Encoding: 76 76 44
Width: 550
VWidth: 901
GlyphClass: 2
Flags: HMW
HStem: 39.0756 73.8785
VStem: 87.1782 87.5517 112.508 77.9468
LayerCount: 2
Fore
SplineSet
472.229492188 60.330078125 m 0xc0
 433.697265625 52.962890625 375.329101562 47.5751953125 297.12890625 44.1748046875 c 0
 218.928710938 40.7744140625 161.412109375 39.0751953125 124.579101562 39.0751953125 c 0
 113.24609375 39.0751953125 103.895507812 42.8994140625 96.529296875 50.5498046875 c 0
 90.14453125 57.1806640625 86.951171875 66.0458984375 86.951171875 77.1455078125 c 0
 86.951171875 78.8525390625 87.02734375 80.6123046875 87.177734375 82.42578125 c 0xc0
 87.177734375 86.958984375 90.4365234375 119.400390625 96.953125 179.750976562 c 0
 103.469726562 240.100585938 108.145507812 298.325195312 110.978515625 354.42578125 c 0
 111.998046875 369.725585938 112.5078125 392.674804688 112.5078125 423.274414062 c 0
 112.5078125 443.673828125 112.28125 467.474609375 111.828125 494.67578125 c 0
 110.6953125 562.67578125 110.127929688 599.508789062 110.127929688 605.17578125 c 0
 110.6953125 620.475585938 115.086914062 632.092773438 123.303710938 640.025390625 c 0
 131.520507812 647.958984375 141.295898438 651.92578125 152.62890625 651.92578125 c 0
 153.552734375 651.967773438 154.46484375 651.98828125 155.366210938 651.98828125 c 0
 166.6171875 651.98828125 176.046875 648.709960938 183.655273438 642.151367188 c 0
 191.872070312 635.068359375 195.979492188 623.875976562 195.979492188 608.576171875 c 0
 195.979492188 592.143554688 195.413085938 569.760742188 194.280273438 541.427734375 c 0
 193.146484375 513.09375 191.872070312 477.39453125 190.455078125 434.327148438 c 0xa0
 189.038085938 391.260742188 187.762695312 353.860351562 186.629882812 322.126953125 c 0
 186.0625 298.327148438 183.9375 263.760742188 180.254882812 218.427734375 c 0
 176.572265625 173.09375 174.729492188 137.9609375 174.729492188 113.028320312 c 1
 178.870117188 112.979492188 183.069335938 112.954101562 187.328125 112.954101562 c 0
 232.025390625 112.954101562 283.217773438 115.670898438 340.905273438 121.103515625 c 0
 404.087890625 127.052734375 446.163085938 132.861328125 467.129882812 138.528320312 c 0
 473.9296875 140.228515625 480.021484375 139.9453125 485.405273438 137.677734375 c 0
 490.788085938 135.411132812 495.038085938 132.010742188 498.155273438 127.478515625 c 0
 501.271484375 122.9453125 503.822265625 117.987304688 505.8046875 112.603515625 c 0
 507.788085938 107.220703125 508.780273438 102.262695312 508.780273438 97.7294921875 c 0
 508.780273438 87.529296875 506.229492188 79.3125 501.129882812 73.080078125 c 0
 496.030273438 66.8466796875 486.396484375 62.5966796875 472.229492188 60.330078125 c 0xc0
EndSplineSet
Validated: 524289
EndChar

StartChar: M
Encoding: 77 77 45
Width: 550
VWidth: 902
GlyphClass: 2
Flags: HMW
HStem: 43.5819 17.85G<102.501 108.168>
VStem: 71.8994 70.5508 252.101 89.2492
LayerCount: 2
Fore
SplineSet
142.450195312 102.2265625 m 0
 142.48828125 101.018554688 142.508789062 99.826171875 142.508789062 98.6513671875 c 0
 142.508789062 82.2041015625 138.8046875 69.0908203125 131.400390625 59.306640625 c 0
 123.466796875 48.82421875 113.833984375 43.58203125 102.500976562 43.58203125 c 0
 82.1005859375 44.1484375 71.9013671875 65.1162109375 71.9013671875 106.482421875 c 0
 71.9013671875 113.282226562 72.7509765625 124.899414062 74.451171875 141.333007812 c 0
 76.1513671875 157.765625 78.2763671875 179.298828125 80.826171875 205.931640625 c 0
 83.3759765625 232.564453125 85.5009765625 255.797851562 87.201171875 275.630859375 c 0
 87.767578125 282.430664062 88.6181640625 292.9140625 89.7509765625 307.081054688 c 0
 93.1513671875 349.013671875 95.8427734375 381.739257812 97.826171875 405.255859375 c 0
 99.8095703125 428.7734375 102.784179688 458.09765625 106.750976562 493.231445312 c 0
 110.717773438 528.364257812 114.259765625 555.989257812 117.376953125 576.106445312 c 0
 120.494140625 596.22265625 124.318359375 610.248046875 128.8515625 618.180664062 c 0
 134.518554688 630.081054688 143.161132812 638.72265625 154.77734375 644.106445312 c 0
 164.374023438 648.552734375 173.680664062 650.776367188 182.698242188 650.776367188 c 0
 184.595703125 650.776367188 186.48046875 650.677734375 188.352539062 650.481445312 c 0
 213.852539062 650.481445312 229.719726562 639.998046875 235.953125 619.03125 c 0
 242.752929688 594.09765625 250.120117188 552.873046875 258.052734375 495.356445312 c 0
 265.985351562 437.838867188 274.060546875 372.247070312 282.27734375 298.580078125 c 0
 290.495117188 224.913085938 296.302734375 176.180664062 299.703125 152.379882812 c 1
 305.370117188 232.280273438 311.88671875 304.247070312 319.25390625 368.280273438 c 0
 324.353515625 415.313476562 331.295898438 462.629882812 340.078125 510.23046875 c 0
 348.861328125 557.830078125 356.653320312 594.096679688 363.453125 619.030273438 c 0
 365.720703125 627.530273438 370.395507812 634.471679688 377.478515625 639.85546875 c 0
 384.561523438 645.23828125 392.069335938 648.49609375 400.002929688 649.62890625 c 0
 405.290039062 650.384765625 410.200195312 650.762695312 414.732421875 650.762695312 c 0
 417 650.762695312 419.173828125 650.66796875 421.251953125 650.478515625 c 2
 424.65234375 650.478515625 l 1
 436.126953125 650.478515625 l 2
 439.244140625 650.478515625 443.494140625 649.770507812 448.876953125 648.353515625 c 0
 454.259765625 646.936523438 458.65234375 645.094726562 462.051757812 642.828125 c 0
 465.452148438 640.560546875 468.568359375 637.018554688 471.40234375 632.202148438 c 0
 474.235351562 627.384765625 476.217773438 621.577148438 477.350585938 614.77734375 c 0
 479.618164062 597.77734375 486.134765625 514.759765625 496.90234375 365.7265625 c 0
 507.668945312 216.693359375 515.6015625 132.543945312 520.702148438 113.27734375 c 0
 522.96875 103.5625 524.1015625 94.8662109375 524.1015625 87.1865234375 c 0
 524.1015625 67.9892578125 517.018554688 55.15234375 502.8515625 48.67578125 c 0
 497.9296875 46.6044921875 493.006835938 45.568359375 488.084960938 45.568359375 c 2
 470.549804688 49.9521484375 l 2
 459.783203125 55.3349609375 451.850585938 67.0927734375 446.75 85.2255859375 c 0
 434.850585938 123.193359375 424.3671875 288.66015625 415.299804688 581.626953125 c 1
 398.8671875 499.459960938 388.100585938 424.66015625 383 357.2265625 c 0
 377.900390625 292.626953125 370.958007812 231.28515625 362.174804688 173.202148438 c 0
 353.392578125 115.119140625 346.450195312 79.560546875 341.350585938 66.52734375 c 0
 335.1171875 52.927734375 319.25 46.1279296875 293.75 46.1279296875 c 0
 292.333007812 46.0576171875 290.94921875 46.021484375 289.598632812 46.021484375 c 0
 280.147460938 46.021484375 272.323242188 47.7568359375 266.125976562 51.2275390625 c 0
 259.04296875 55.1943359375 254.368164062 60.861328125 252.100585938 68.228515625 c 0
 245.30078125 95.4287109375 233.967773438 157.903320312 218.100585938 255.653320312 c 0
 202.234375 353.403320312 187.784179688 447.045898438 174.750976562 536.578125 c 1
 173.05078125 518.4453125 171.493164062 498.045898438 170.076171875 475.37890625 c 0
 168.659179688 452.711914062 167.383789062 433.01953125 166.250976562 416.302734375 c 0
 165.118164062 399.5859375 163.276367188 374.793945312 160.725585938 341.926757812 c 0
 158.17578125 309.059570312 156.333984375 284.126953125 155.201171875 267.126953125 c 0
 154.068359375 243.327148438 152.368164062 218.818359375 150.100585938 193.6015625 c 0
 147.833984375 168.384765625 145.9921875 148.551757812 144.575195312 134.1015625 c 0
 143.158203125 119.65234375 142.450195312 109.02734375 142.450195312 102.2265625 c 0
EndSplineSet
Validated: 524289
EndChar

StartChar: N
Encoding: 78 78 46
Width: 550
VWidth: 901
GlyphClass: 2
Flags: HMW
HStem: 39.8158 17.85G
VStem: 88.9145 70.3357 428.421 78.6919 436.565 70.703
LayerCount: 2
Fore
SplineSet
444.213867188 39.916015625 m 0xd0
 442.9453125 39.849609375 441.703125 39.8154296875 440.485351562 39.8154296875 c 0
 431.369140625 39.8154296875 423.684570312 41.6884765625 417.436523438 45.4384765625 c 0
 410.353515625 49.6884765625 405.395507812 55.49609375 402.561523438 62.86328125 c 0
 397.461914062 74.1962890625 383.862304688 99.1298828125 361.76171875 137.662109375 c 0
 339.662109375 176.1953125 316.853515625 216.287109375 293.336914062 257.9375 c 0
 269.8203125 299.587890625 245.169921875 346.1953125 219.38671875 397.762695312 c 0
 193.603515625 449.329101562 174.196289062 493.24609375 161.163085938 529.513671875 c 1
 163.8828125 480.099609375 165.2421875 433.40625 165.2421875 389.432617188 c 0
 165.2421875 378.439453125 165.158203125 367.616210938 164.98828125 356.962890625 c 0
 164.137695312 303.6953125 162.86328125 249.4375 161.163085938 194.1875 c 0
 159.887695312 152.751953125 159.25 123.506835938 159.25 106.454101562 c 0
 159.25 99.34765625 159.51953125 90.0654296875 159.51953125 89.8994140625 c 0
 159.51953125 73.5751953125 155.817382812 61.4462890625 148.413085938 53.513671875 c 0
 140.9765625 45.544921875 132.044921875 41.560546875 121.620117188 41.560546875 c 0
 120.924804688 41.560546875 120.22265625 41.578125 119.513671875 41.61328125 c 0
 107.61328125 41.61328125 99.5390625 46.4306640625 95.2890625 56.0634765625 c 0
 91.0390625 65.6962890625 88.9140625 79.86328125 88.9140625 98.5634765625 c 0
 88.9140625 109.896484375 89.763671875 153.813476562 91.4638671875 230.313476562 c 0
 93.1640625 306.813476562 94.296875 373.680664062 94.86328125 430.913085938 c 0
 95.005859375 445.22265625 95.076171875 459.390625 95.076171875 473.41796875 c 0
 95.076171875 515.491210938 94.4384765625 556.290039062 93.1640625 595.814453125 c 0
 93.08203125 597.43359375 93.0419921875 599.018554688 93.0419921875 600.568359375 c 0
 93.0419921875 609.865234375 94.4990234375 617.913085938 97.4140625 624.712890625 c 0
 100.813476562 632.645507812 105.630859375 638.454101562 111.86328125 642.13671875 c 0
 118.096679688 645.819335938 124.61328125 648.370117188 131.4140625 649.787109375 c 0
 138.213867188 651.204101562 145.581054688 651.345703125 153.513671875 650.212890625 c 0
 177.880859375 650.212890625 193.180664062 639.729492188 199.4140625 618.762695312 c 0
 211.313476562 581.362304688 244.180664062 512.512695312 298.013671875 412.212890625 c 0
 351.846679688 311.912109375 397.463867188 230.879882812 434.86328125 169.112304688 c 1
 436.375 204.627929688 437.130859375 250.913085938 437.130859375 307.967773438 c 0
 437.130859375 336.484375 436.942382812 367.69140625 436.564453125 401.588867188 c 0xd0
 435.431640625 503.305664062 432.881835938 570.313476562 428.9140625 602.61328125 c 0
 428.5859375 605.245117188 428.421875 607.797851562 428.421875 610.270507812 c 0
 428.421875 620.575195312 431.27734375 629.498046875 436.990234375 637.038085938 c 0
 444.073242188 646.388671875 453.28125 651.063476562 464.614257812 651.063476562 c 0
 470.84765625 651.063476562 476.23046875 650.35546875 480.763671875 648.938476562 c 0
 485.296875 647.521484375 488.838867188 645.821289062 491.388671875 643.838867188 c 0
 493.938476562 641.85546875 496.063476562 638.59765625 497.763671875 634.064453125 c 0
 499.463867188 629.53125 500.73828125 625.422851562 501.588867188 621.740234375 c 0
 502.438476562 618.056640625 503.430664062 612.249023438 504.563476562 604.315429688 c 0
 505.696289062 595.249023438 506.546875 549.774414062 507.11328125 467.890625 c 0xe0
 507.216796875 453 507.267578125 438.01171875 507.267578125 422.923828125 c 0
 507.267578125 355.045898438 506.224609375 285.176757812 504.138671875 213.315429688 c 0
 501.588867188 125.482421875 497.196289062 74.765625 490.963867188 61.166015625 c 0
 485.296875 46.9990234375 469.713867188 39.916015625 444.213867188 39.916015625 c 0xd0
EndSplineSet
Validated: 524289
EndChar

StartChar: O
Encoding: 79 79 47
Width: 550
VWidth: 902
GlyphClass: 2
Flags: HMW
HStem: 31.6498 71.3983 593.497 68.8509
VStem: 89.7136 81.9277 424.189 81.6547
LayerCount: 2
Fore
SplineSet
269.9140625 31.6494140625 m 0
 234.78125 32.216796875 203.331054688 42.8388671875 175.564453125 63.521484375 c 0
 147.797851562 84.2041015625 126.405273438 111.971679688 111.388671875 146.821289062 c 0
 96.91796875 180.404296875 89.6826171875 217.010742188 89.6826171875 256.64453125 c 0
 89.6826171875 258.141601562 89.693359375 259.642578125 89.7138671875 261.147460938 c 2
 89.7138671875 275.59765625 l 2
 89.7138671875 301.09765625 89.85546875 321.497070312 90.138671875 336.796875 c 0
 90.421875 352.09765625 91.5546875 372.497070312 93.5380859375 397.997070312 c 0
 95.5205078125 423.497070312 98.9208984375 447.72265625 103.73828125 470.671875 c 0
 108.5546875 493.622070312 114.646484375 515.296875 122.013671875 535.697265625 c 0
 136.180664062 572.530273438 161.397460938 602.84765625 197.6640625 626.647460938 c 0
 233.931640625 650.447265625 274.1640625 662.34765625 318.364257812 662.34765625 c 0
 341.03125 662.34765625 362.848632812 657.955078125 383.815429688 649.171875 c 0
 404.782226562 640.389648438 423.482421875 627.78125 439.915039062 611.34765625 c 0
 456.348632812 594.915039062 470.08984375 573.948242188 481.140625 548.448242188 c 0
 492.190429688 522.948242188 499.131835938 494.331054688 501.96484375 462.59765625 c 0
 504.232421875 434.264648438 505.506835938 403.948242188 505.790039062 371.6484375 c 0
 505.826171875 367.614257812 505.84375 363.573242188 505.84375 359.525390625 c 0
 505.84375 331.16796875 504.975585938 302.483398438 503.240234375 273.473632812 c 0
 501.256835938 240.32421875 497.432617188 214.116210938 491.765625 194.848632812 c 0
 484.3984375 168.215820312 475.331054688 145.265625 464.564453125 125.999023438 c 0
 453.797851562 106.732421875 441.897460938 91.0068359375 428.864257812 78.82421875 c 0
 415.831054688 66.640625 400.814453125 57.0078125 383.814453125 49.9248046875 c 0
 366.814453125 42.841796875 349.389648438 38.0244140625 331.5390625 35.474609375 c 0
 313.689453125 32.9248046875 293.147460938 31.6494140625 269.9140625 31.6494140625 c 0
269.9140625 103.046875 m 0
 285.21484375 103.046875 299.662109375 104.889648438 313.26171875 108.572265625 c 0
 326.862304688 112.254882812 340.178710938 118.205078125 353.211914062 126.421875 c 0
 366.245117188 134.639648438 377.862304688 145.546875 388.061523438 159.147460938 c 0
 398.26171875 172.747070312 406.1953125 188.614257812 411.862304688 206.747070312 c 0
 414.12890625 214.114257812 416.395507812 231.114257812 418.663085938 257.747070312 c 0
 420.9296875 284.379882812 422.771484375 316.11328125 424.188476562 352.946289062 c 0
 424.60546875 363.780273438 424.813476562 374.564453125 424.813476562 385.299804688 c 0
 424.813476562 411.064453125 423.61328125 436.546875 421.213867188 461.74609375 c 0
 417.813476562 499.146484375 405.771484375 530.454101562 385.088867188 555.671875 c 0
 364.405273438 580.888671875 339.047851562 593.49609375 309.014648438 593.49609375 c 0
 278.4140625 593.49609375 252.772460938 582.3046875 232.08984375 559.921875 c 0
 211.40625 537.538085938 196.53125 506.23046875 187.46484375 465.997070312 c 0
 176.916015625 420.446289062 171.641601562 367.796875 171.641601562 308.045898438 c 0
 171.641601562 297.180664062 171.815429688 286.081054688 172.1640625 274.74609375 c 0
 172.731445312 256.61328125 174.2890625 239.896484375 176.83984375 224.596679688 c 0
 179.389648438 209.296875 182.931640625 193.99609375 187.46484375 178.696289062 c 0
 191.997070312 163.396484375 197.947265625 150.221679688 205.314453125 139.171875 c 0
 212.681640625 128.12109375 221.889648438 119.338867188 232.939453125 112.821289062 c 0
 243.989257812 106.3046875 256.314453125 103.046875 269.9140625 103.046875 c 0
EndSplineSet
Validated: 524289
EndChar

StartChar: P
Encoding: 80 80 48
Width: 550
VWidth: 901
GlyphClass: 2
Flags: HMW
HStem: 35.679 17.85G 247.395 69.6468 587.397 68.8483
VStem: 106.457 80.1861 110.772 86.9669 420.39 78.2025
LayerCount: 2
Fore
SplineSet
197.73828125 70.3876953125 m 0xec
 197.73828125 59.40625 193.047851562 50.8388671875 183.666992188 44.673828125 c 0
 174.543945312 38.677734375 164.340820312 35.6806640625 153.059570312 35.6806640625 c 0
 152.078125 35.6806640625 151.088867188 35.703125 150.090820312 35.7490234375 c 0
 138.19140625 35.7490234375 128.416015625 39.291015625 120.765625 46.3740234375 c 0
 114.102539062 52.54296875 110.771484375 61.18359375 110.771484375 72.296875 c 0xec
 110.771484375 73.943359375 110.844726562 75.642578125 110.991210938 77.3974609375 c 0
 111.557617188 86.46484375 111.840820312 99.9228515625 111.840820312 117.772460938 c 0
 111.840820312 135.623046875 111.69921875 157.72265625 111.416015625 184.073242188 c 0
 111.1328125 210.422851562 110.708007812 235.922851562 110.140625 260.573242188 c 0
 109.57421875 285.22265625 108.866210938 315.397460938 108.015625 351.09765625 c 0
 107.166015625 386.797851562 106.741210938 416.547851562 106.741210938 440.34765625 c 0
 106.551757812 452.630859375 106.45703125 466.239257812 106.45703125 481.168945312 c 0xf4
 106.45703125 511.008789062 106.834960938 546.134765625 107.58984375 586.546875 c 0
 104.756835938 589.379882812 103.057617188 590.796875 102.490234375 590.796875 c 0
 97.95703125 597.596679688 96.3994140625 604.5390625 97.81640625 611.622070312 c 0
 99.2333984375 618.705078125 102.349609375 625.080078125 107.166992188 630.747070312 c 0
 111.983398438 636.4140625 117.225585938 639.813476562 122.892578125 640.947265625 c 0
 143.29296875 645.48046875 173.184570312 649.163085938 212.567382812 651.99609375 c 0
 251.951171875 654.829101562 279.576171875 656.24609375 295.442382812 656.24609375 c 0
 333.975585938 656.24609375 368.400390625 649.446289062 398.717773438 635.845703125 c 0
 429.034179688 622.24609375 453.118164062 601.704101562 470.967773438 574.220703125 c 0
 488.817382812 546.73828125 498.025390625 514.012695312 498.592773438 476.045898438 c 0
 498.592773438 444.313476562 493.350585938 414.420898438 482.868164062 386.37109375 c 0
 472.384765625 358.321289062 458.217773438 334.095703125 440.368164062 313.696289062 c 0
 422.517578125 293.295898438 400.559570312 277.146484375 374.493164062 265.24609375 c 0
 348.42578125 253.345703125 320.092773438 247.396484375 289.493164062 247.396484375 c 0
 245.29296875 247.396484375 210.442382812 250.512695312 184.942382812 256.74609375 c 1
 186.076171875 232.946289062 187.493164062 210.137695312 189.192382812 188.321289062 c 0
 190.892578125 166.50390625 192.592773438 143.836914062 194.29296875 120.3203125 c 0
 196.217773438 93.6875 197.73828125 72.6494140625 197.73828125 70.3876953125 c 0xec
295.44140625 587.399414062 m 0
 275.608398438 587.399414062 239.91015625 585.130859375 188.34375 580.59765625 c 1
 188.34375 569.264648438 187.776367188 548.297851562 186.643554688 517.698242188 c 0xf4
 185.510742188 487.09765625 184.66015625 455.647460938 184.09375 423.34765625 c 0
 183.526367188 391.047851562 183.243164062 359.59765625 183.243164062 328.998046875 c 1
 205.024414062 321.029296875 230.291015625 317.044921875 259.043945312 317.044921875 c 0
 260.9609375 317.044921875 262.89453125 317.0625 264.84375 317.09765625 c 0
 281.276367188 317.09765625 296.151367188 318.23046875 309.46875 320.498046875 c 0
 322.78515625 322.764648438 334.40234375 325.881835938 344.319335938 329.848632812 c 0
 354.236328125 333.815429688 363.161132812 339.057617188 371.094726562 345.57421875 c 0
 379.02734375 352.091796875 385.685546875 358.608398438 391.068359375 365.125 c 0
 396.451171875 371.642578125 400.984375 379.291992188 404.66796875 388.075195312 c 0
 408.350585938 396.858398438 411.18359375 404.791015625 413.166992188 411.874023438 c 0
 415.150390625 418.958007812 416.708007812 427.174804688 417.840820312 436.524414062 c 0
 418.973632812 445.874023438 419.682617188 453.524414062 419.96484375 459.474609375 c 0
 420.248046875 465.424804688 420.390625 472.649414062 420.390625 481.149414062 c 0
 420.390625 497.016601562 417.415039062 511.32421875 411.46484375 524.07421875 c 0
 405.515625 536.82421875 398.1484375 547.024414062 389.365234375 554.674804688 c 0
 380.58203125 562.32421875 370.524414062 568.69921875 359.19140625 573.799804688 c 0
 347.858398438 578.899414062 336.950195312 582.44140625 326.466796875 584.424804688 c 0
 315.983398438 586.407226562 305.641601562 587.399414062 295.44140625 587.399414062 c 0
EndSplineSet
Validated: 524289
EndChar

